<svg version="1" xmlns="http://www.w3.org/2000/svg" width="682.667" height="682.667" viewBox="0 0 512.000000 512.000000"><path d="M249.5 10.1c.4.5 1.6.9 2.7.9 2.6 0 1.9-.9-1.1-1.5-1.2-.2-1.9 0-1.6.6zM273 10.2c0 .4 1.4.8 3 .8 1.7 0 3-.4 3-.8 0-.5-1.3-.9-3-.9-1.6 0-3 .4-3 .9z"/><path d="M284 10c0 .7-.8 1-2 .7-1.1-.3-2-.1-2 .3 0 1.4 1.4 1.8 3.5 1 2.2-.8 13.4 1.5 15 3.1.9 1-2.1.9-6.4-.2-.7-.2-1.6.2-1.9 1-.2.8 0 1.1.5.8.5-.3 2.7-.2 4.9.3 2.1.5 5.5 1.2 7.4 1.5 1.9.3 3.9 1 4.6 1.6.6.5 2.6 1.1 4.3 1.3 1.8.2 3.7.8 4.3 1.4 1.3 1.3-5.9 0-8.9-1.6-2.6-1.4-3.6-1.5-2.9-.3.4.5-.3.7-1.4.4-1.1-.3-1.7-1-1.3-1.7.5-.8.3-.8-.8 0-1.9 1.4-6.2 1.6-7 .3-.4-.8-1.3-.7-2.9.1-1.5.8-2 .8-1.6.1.4-.6 0-1.1-.8-1.1-.9 0-1.6.4-1.6 1 0 .5-.4 1-1 1-.5 0-1-.8-1-1.8 0-1.3-.2-1.4-.9-.3-1.1 1.7-6.5.1-6.7-2-.1-.8-.2-2-.3-2.8-.1-1.1-1.4-1.3-6.2-.8-3.4.3-6.5 1.1-6.9 1.7-.6.9-1.3.9-2.9 0-1.7-.9-2.6-.9-3.6 0-.8.7-1.9.9-2.5.5-.6-.4-2.1 0-3.4.8-1.3.9-2.8 1.2-3.5.7-1.8-1-10.3 1.7-11.4 3.6-.7 1.3-1.1 1.4-1.7.4-.7-1.1-1.4-1.1-4 0-2.7 1.1-3.3 1.1-4.1-.1-.7-1.1-.9-1.1-.9.3 0 1.4-.9 1.8-4.2 1.9-2.4 0-5.2.2-6.3.5-3.2.7-12.5 1.5-18.7 1.7-3.1.1-5.6.6-5.5 1 .2.7-6.8 3.7-8.2 3.5-2.2-.2-4.1.3-3.7 1.1.5.8-1.9 2.4-2.8 1.8-.1-.1-1 .4-1.8 1.1-.9.7-2.7 1.5-3.9 1.7-1.3.3-2.9 1.2-3.5 2-.6.8-2.5 1.5-4.3 1.5-1.7 0-5.5 1.2-8.4 2.7-2.9 1.5-5.5 2.6-5.9 2.5-.5-.1-.8.3-.8 1 0 .6-.2.9-.5.6-.3-.3-3.5.3-7.2 1.3s-6.8 1.7-7 1.6c-.1-.2 1.6-1.1 3.8-2.1 2.2-1 3.8-2 3.6-2.3-.9-.8-8.8 3.8-8.1 4.8.3.5-.8 1.5-2.5 2.2-1.7.6-3.1 1.5-3.1 1.9 0 1.3 1.9.9 6.3-1.4 4.8-2.5 6.1-2.9 10-2.9 1.5 0 2.7-.4 2.7-.9s1.7-1.2 3.8-1.6c2-.4 4-1.2 4.4-1.8.5-.7.8-.7.8.3 0 .7.6 1.1 1.5.7 1-.3 1.5.1 1.5 1.3 0 1.1.6 2.1 1.3 2.4 1.4.5-8.7 5.6-10.6 5.3-.6-.1-1.8-.5-2.5-1-.8-.4-1.1-.3-1 .4.3 1-5.1 5-6.7 5-.3 0-1.6.2-3 .6-2 .5-2.4 1.1-2 2.8.4 1.1.3 1.6-.2 1.1-.7-.9-2.3-1.1-4.8-.5-.5.1-1.4.3-2 .4-1.3.2-5.1 2.3-7.8 4.4-3.1 2.4-9.7 9.6-9.7 10.4 0 .5-.5.8-1.1.8-1.3 0-11.7 6.8-14.1 9.2-1 1-2.2 1.8-2.7 1.8s-1.2.9-1.6 1.9c-.5 1.7-2.1 2.6-6.3 3.6-.8.2-1.7.7-2 1.1-.4.4.1.4 1.1.1 2.8-1 2 .9-1.5 3.6-6.2 4.7-12.7 11.6-14.7 15.4-1 2.1-4 6.1-6.4 8.8-2.5 2.8-5.5 6.2-6.6 7.5l-2 2.5.2-2.3c.1-1.2.5-2.2 1-2.2s.6-.7.3-1.5c-.3-.9.1-1.8.8-2.1 1.2-.5 2.4-3 2.4-5.1 0-.3.7-1 1.6-1.5.9-.5 1.6-1.3 1.6-1.9 0-.5 1.8-3.4 4-6.4 3.9-5.2 5.3-8 2.7-5.3-6 6.4-15.2 20.9-14 22.1.3.4-.1.7-1.1.7-1.1 0-1.4.4-.9 1.2.7 1.3.7 3.2-.2 7.5-.3 1.2-1.4 2.5-2.5 2.8-1.1.3-2 1.2-2 1.9s-.9 2.1-2 3.1-1.8 2-1.5 2.3c.3.3 1.4-.3 2.5-1.3 2.1-1.9 2.9-.8.9 1.2-1.7 1.7-4.9 11.3-3.8 11.3.5 0 .9-.9.9-1.9 0-1 .7-2.1 1.5-2.5.8-.3 1.5-.1 1.5.5 0 1-.5 1.7-4.5 6.3-1.4 1.6-2.5 3.5-2.5 4.3 0 .7-.7 1.6-1.5 1.9-.8.4-1.5 1.1-1.5 1.6 0 .6-1.4 2.8-3.1 4.9-2.1 2.7-2.9 4.5-2.5 6.1.3 1.3.3 1.7 0 1-.5-1-.9-1-2-.1-1.2.9-1.2 1.4-.3 2 .9.5.3 1.5-1.9 3.4-1.8 1.5-3.2 3.2-3.2 3.8 0 .7.7.3 1.5-.7 1.4-1.9 1.5-1.8 1.5 1.2 0 1.8-.8 4-2 5.2-1 1-2.1 3-2.2 4.2-.2 1.3-.7 2.8-1.1 3.4-.4.7-.1 1.7.7 2.3 1.6 1.3 1.1 4.4-1.3 8-1.1 1.8-1.2 2.6-.4 2.8.7.3.9 1.1.6 2-.5 1.2-.2 1.2 1.5-.3 2.6-2.2 2.7-2.5.7-1.8-.8.4-1.5.4-1.5.1 0-1.2 5.1-10.7 6-11.2.6-.4.8-1 .6-1.3-.2-.4.9-1.5 2.5-2.4 1.6-1 2.9-1.3 2.9-.8 0 .6-.5 1-1.1 1-.5 0-.8.4-.5.8.2.4-.4 2.7-1.5 5.1-2.3 5.2-2.3 5.2-.2 4.4 1-.4 1.4-.2 1 .5-1.6 2.4-2.8 38.6-1.4 41.4.5 1.1.4 1.8-.3 1.8-.6 0-.8.5-.5 1.1.4.5.9 4.8 1 9.4.5 10.7 2.2 23 3.6 25.6.8 1.6 1.4 1.8 2.4.9 1-.8 1.5-.8 2 0 .9 1.4 9.5 32.9 9.3 33.8-.1.4 1.1 4.7 2.6 9.6l2.8 9-2.1 1.7c-1.3 1.1-1.7 2-1.1 2.4.6.3.8 1 .5 1.4-.4.8 1.8 4.1 6.1 9.1 6 6.9 7.5 8.4 7.1 7-.2-.8.8-2.3 2.2-3.4 1.5-1.1 1.9-1.6.8-1.2-2.3.7-4.4-1.3-5.2-5l-.7-2.9 2.1 3.2c1.1 1.8 2.6 3.3 3.3 3.3.9 0 1-.3.2-.8-2.2-1.4-4.3-6.7-3.3-8.3.9-1.2 1-1.2.6.1-.2.8.9 3.5 2.5 5.9 1.5 2.5 2.8 5 2.8 5.6 0 .7.9 2 2 3 1.2 1 1.8 2.5 1.6 3.2-.3.8.1 1.6.9 1.9.8.4 1.2 1 .9 1.6-.4.5-1 .5-1.8-.1-.8-.7-1.2-.4-1.4 1.2-.1 1.6.4 2.3 1.8 2.3 1 0 1.6-.4 1.4-.8-.3-.4-.1-.8.3-.8.8 0 4.8 7.9 4.6 9-.1.3.3 1 .9 1.7.5.7.6 1.8.2 2.4-.4.7-.3.9.4.5.6-.3 1.6.3 2.2 1.4.6 1.1.8 2 .5 2-.2 0 .3.9 1.2 1.9.9 1.1 2.2 1.7 2.9 1.4.8-.3 1.4-.1 1.4.5 0 .5-.7 1.3-1.6 1.6-.8.3-1.2 1-.9 1.6.4.6 1.1.8 1.6.4.5-.3 1.7 0 2.5.7 1.3 1 1.7 1 2.5-.2.8-1 .9-.8.4.8-.3 1.3-.2 2.3.3 2.3s.9.7.9 1.5c0 1.1-.4 1.2-1.1.5-.5-.5-1.7-1-2.5-1-1.3.1-1.3.2.1 1.1 1 .5 1.8 1.7 1.8 2.4 0 2.3 3.8 5.5 6.5 5.5 1.4 0 2.5-.5 2.5-1 0-.6-.9-1-2.1-1-1.1 0-1.8-.4-1.5-.9.4-.5.3-1.1-.1-1.4-.5-.2-.2-.2.6 0s1.7-.1 2.1-.7c.5-.7 1.1-.6 2 .5 1.1 1.3 1 1.4-.6.8-1.7-.6-1.7-.5-.5 1.1.8.9 2 1.5 2.8 1.2.7-.3 1.3-.1 1.3.3 0 .5-.7 1.2-1.6 1.5-2 .8-.9 2.5 1.4 2 .9-.2 3 .8 4.6 2.2 2.6 2.3 2.8 2.7 1.3 3.6-1.7.9-2.4 4-.9 3.6 1.7-.3 6.2 1.5 6.2 2.6 0 .7 1.4 1.6 3.2 2.1 1.9.6 3.2 1.8 3.4 2.8.4 2.7 1.4 3.4 2.4 1.7.7-1.1 1-1.1 1-.2 0 2.2-3 2.5-5.2.6-1.4-1.3-1.9-1.4-1.6-.5.2.8 2 2.2 3.8 3.3 1.9 1 2.9 1.8 2.2 1.8-.7 0-1 .5-.7 1.1.5.6 1.2.4 2.1-.8.7-1 1.4-1.4 1.4-.8 0 .5.5.3 1-.5.8-1.3 1-1.2 1 .3 0 1 .4 1.6.9 1.3.5-.3 1.5.1 2.2 1 1.1 1.3.9 1.4-1.4.9-4-1-3.3.2.9 1.5 2.9 1 3.8 1 4.4-.1.7-1 1.1-1 2.4 0 .9.8 1.6 1.9 1.6 2.5 0 .6-.5.4-1.1-.4-.9-1.3-1-1.3-.7 0 .3.8 1.6 1.4 3.2 1.5 1.5 0 3 .5 3.4 1.1.4.6 1.5 1.3 2.5 1.7.9.4 1.6 1.2 1.5 1.9-.2.7.5 1.3 1.5 1.3s2.3.8 2.8 1.7c.5 1 1.5 1.5 2.2 1.2.7-.2 1.7.6 2.2 1.8.7 1.7 1.8 2.3 4.2 2.3 2.1 0 4.3 1.1 6.9 3.3 4.4 3.9 7.1 5.5 8.3 4.8.4-.3 1.3.6 2 2 .6 1.4 1.5 2.3 2 1.9.5-.3 1.6.3 2.3 1.3 1.5 2.1 5.9 2.2 8.2.3 1-.8 1.6-.9 1.6-.3 0 .6-.6 1.2-1.2 1.5-1 .3-1 .7.1 2 .9 1.1 1 1.7.2 1.7-.6 0-1.1-.5-1.1-1 0-.6-1.2-1-2.7-.9-1.6 0-2.2.3-1.6.6.7.2 1.5.4 1.9.3.4-.1 1 .4 1.5 1.1.4.7 1.6 1.4 2.6 1.5 5.1.6 9.5 2.4 6 2.4-.9 0-1.9.5-2.3 1.2-.5.7-.1.9 1.3.6 1.7-.4 2-.2 1.6 1.6-.4 1.9-.3 2 1 .4.8-1 1.7-1.5 2-1.2.3.4 2.5-.1 4.8-1 3.7-1.5 4.1-1.5 3-.2-.8.9-2 1.6-2.7 1.6-.8 0-1.4.5-1.4 1 0 .7.6.7 1.9 0 2.4-1.2 6.4-1.3 5.7-.1-.4.5.2.8 1.1.6 1-.1 2.7.5 3.7 1.4 1.1.9 1.6 1 1.2.3-.5-.9.3-1.2 2.8-1.2 1.9 0 3.7-.4 4-.9.7-1.2 17.3-.6 18.9.6 1.5 1.2 7.9.6 10.4-1 .7-.5 1.3-.4 1.3.1 0 1 3.7 2.5 5.7 2.3.7-.1 2.2.3 3.2.9 1.6.8 2.2.6 3-.7.8-1.3 1-1.4 1.1-.4 0 1.1.4 1 1.3-.4 1.4-1.8 4.3-1.3 3.2.6-.4.5 1.7.9 4.7 1 2.9.1 6.4.4 7.8.8 3.1.9 7.2.2 6.8-1.1-.2-.5-4.2-1.1-8.8-1.3-10.6-.4-10-.3-10-1.4 0-.8 4-.8 15.5.3 2.2.2 4.3 0 4.6-.5.8-1.4 6.9-1.8 6.9-.5 0 .6.7.2 1.5-.8 1.3-1.8 1.6-1.6 1.5 1.1 0 .5-1.2 1.1-2.5 1.5-1.4.3-2.3.2-2-.3.3-.5-.7-.1-2.4.8-1.6 1-2.7 2.1-2.4 2.6.2.4 1 .3 1.7-.2.7-.6 2.7-1.2 4.5-1.3 1.8-.1 3.5-.6 3.7-1 .3-.4 1-.5 1.8-.2.7.3 2.6-.1 4.2-.7 1.6-.7 3.6-1.3 4.4-1.5.8-.2 2-1 2.6-1.8 1.3-1.9 2.8-2.1 1.8-.4-.4.7.2.5 1.3-.5 1.1-.9 2.6-1.7 3.4-1.7.8 0 2.1-.6 2.7-1.2 1-1 1.5-1 2.2.2.7 1.1 1 1.1 1 .2 0-1.7 3.3-1.1 4.2.8.5 1.2.8 1 1.4-.7.3-1.3 1-2 1.5-1.7.5.3.9 0 .9-.6 0-.7.7-1 1.5-.6.8.3 1.8-.1 2.2-.8 1.4-2.4 6.1-4.8 6.5-3.5.3.9 1.1.8 2.9-.5 1.4-1.1 1.7-1.6.7-1.3-1.2.4-1.8.1-1.8-.9 0-1.2.6-1.5 2.8-1 1.7.4 2.2.3 1.3-.2-1-.7-1-1.1-.1-1.7.6-.4 1.4-.5 1.7-.2.3.3 1.6.2 2.9-.3 1.5-.6 2.4-.6 2.4 0s-.7 1-1.5 1-1.5.5-1.5 1c0 .7.6.7 1.8.1 2.4-1.5 6.2-4.8 6.2-5.5 0-.4-1-.2-2.2.4-2.1 1-2.1.9.2-.9 1.4-1.1 2.8-2.1 3.3-2.1.4 0 .7-.7.7-1.5s.4-1.5 1-1.5c.5 0 .7.7.4 1.5-1 2.5.9 1.7 5.6-2.6 2.6-2.3 5.2-3.8 6.2-3.6 1.1.3 1.5 0 1.1-.9-.3-.8-1-1.4-1.7-1.5-.6 0 .1-.6 1.5-1.2 2.5-1.1 2.9-1.6 2.9-3.5 0-.4.5 0 1 .8.8 1.3 1.1 1.1 1.6-.8.4-1.2 1-2.3 1.5-2.3.5-.1 1.2-.3 1.7-.4.4-.2 1.7-.6 2.9-1 1.3-.4 2-1.2 1.6-1.7-.3-.6 0-.8.8-.6.8.3 3.1-.8 5.1-2.4 3.4-2.7 3.7-2.7 4.8-1.1 1 1.6 1 1.6.5-.3-.5-2.1.7-3.2 4.1-3.9.7-.2 2.1-1.2 3.3-2.4 2.2-2.2 4.1-2.7 4.1-1.1 0 .5-.4 1-1 1-.5 0-1 .5-1 1.1 0 2 2.9-1.1 3.2-3.4.3-2.4 3.9-3.1 4.8-.9.3.8 1.2.1 2.4-1.9l1.8-3.1-3.2 1.7c-3.3 1.7-4.7 1.5-3.5-.5.4-.6 1.3-.9 2.1-.6.8.3 1.4.1 1.4-.4 0-.6 1.2-2.3 2.8-3.9 1.5-1.6 3.5-4.1 4.6-5.5 4.9-6.8 4.4-6.3 5.1-4.4 1 2.5 2.7 2.2 5-1l2-2.7-2.7 1.7c-3.2 2.1-3.8 2.2-3.8.5 0-2.1 6.6-9.1 7.4-7.8.4.6.1 1.4-.8 1.7-.8.3-1.2 1.2-.9 2 .4 1.1 1.1.8 2.9-1.3 1.2-1.5 2.1-3 1.8-3.4-.2-.4.3-.9 1.1-1.3.8-.3 1.5-1.5 1.5-2.6 0-1.2.4-1.9.9-1.5.5.3 1.2-.4 1.6-1.5.3-1.1 1.1-2 1.6-2 .6 0 .7.6.3 1.3-.4.7-.3.9.2.4s.9-1.2.9-1.6c0-.7.2-.9 5.5-7.3 1.8-2.2 2.7-3.9 2-4.3-.5-.3-1-.1-1 .4 0 .6-1.1 1.1-2.5 1.1-2.4 0-3.5 1.5-1.5 2.2.5.2-.6 2.1-2.5 4.2-1.9 2.2-3.5 4.3-3.5 4.8 0 1.9-2.6.6-2.7-1.4-.2-1.8 0-2 .7-.8.8 1.2 1.1 1.1 1.6-.8.4-1.2 1.3-2.2 2-2.2.8 0 1.4-.5 1.4-1.1 0-.5-.4-.8-.9-.4-.5.3 0-1.3 1.2-3.5s2.8-4 3.5-4c.7 0 1.8-1.2 2.4-2.8 1.1-2.6 1.2-2.6 1.5-.5.5 2.5 2.3 3.2 2.3.9 0-.7 1.2-2.1 2.6-3.1 1.4-.9 2.3-1.9 2-2.3-.4-.3-1.2 0-1.8.6-.7.7-1.9 1.2-2.7 1.2-2.1 0 1.8-2.9 4-3 1.6 0 3.9-3.9 3.9-6.7 0-.9.3-1.4.6-1 .3.3 1.7.2 3-.3 1.7-.7 2.4-.6 2.4.2 0 .9.3.9 1.2 0 .9-1 .8-1.6-.6-3-1.1-.9-1.6-1.2-1.3-.6.4.7-.3 1.4-1.8 1.6-3 .6-2.3-.7 1.5-2.7 2.5-1.3 4.9-6.1 4.2-8.8-.1-.4.2-.7.6-.7.5 0 2.6-3.9 4.7-8.8 2.1-4.8 4.8-9.6 6-10.8 2.3-2.2 4.5-5.6 4.5-7.1 0-.4-.9.2-1.8 1.5-1.6 2-2 2.1-3 .9-1-1.1-.9-1.7.5-2.8 1.1-.9 1.4-1 .9-.2-.4.7-.5 1.3-.2 1.3.9 0 3.5-5.5 4-8.5.3-1.6 1.1-3.2 1.8-3.6.7-.4.9-1.1.5-1.5-1-1-3.6 2.5-4.3 5.8-.4 1.8-1.2 2.6-2.6 2.5-1.7-.1-1.7-.3-.4-1.3.9-.6 1.6-1.9 1.6-2.8 0-.9.5-1.6 1.1-1.6.7 0 .9-1 .7-2.5-.3-1.4-.1-2.5.4-2.5s.7-.4.4-.9c-.3-.5.1-2.6 1-4.7 3-7.1 3.4-9.3 1.8-10.8-.9-1-1-1.7-.4-2.1 2.3-1.4 3.5-7.4 3.4-16.3-.1-5.1.3-9.5.7-9.8.5-.3.4-1.4-.1-2.5-.6-1.1-1.3-4-1.6-6.6-.2-2.6-.9-5.2-1.4-5.8-.5-.6-.5-1.6 0-2.5 1.4-2.2 1.2-6.4-.4-9.4-.7-1.5-1.4-5.1-1.5-8.1 0-3.5-.7-6.2-1.7-7.4-1.6-1.9-1.8-3-2.7-23.9-.3-5.3-.3-5.4-5.2-8l-5-2.7-.2-5.5c-.1-3-.2-5.5-.3-5.5-.1 0-.4-1.2-.6-2.6-1.2-7-14.3-29.9-17.2-29.9-.4 0-2.1-1.9-3.8-4.2-1.6-2.3-5.6-6.9-9-10.2-3.3-3.4-8.7-10.2-12-15.1-5.5-8.5-16.5-20.4-29.9-32.6-13.7-12.3-18.8-16.1-26.5-19.7-3.6-1.6-8.3-4.6-10.5-6.6-2.2-2-8-5.7-13-8.2-4.9-2.5-11.5-6-14.5-7.8-3.1-1.8-6.2-3-7-2.8-1.2.4-1.3.2-.2-.9.6-.7 1.2-1.6 1.2-1.9 0-1.1-4.5-.9-5.2.3-.5.8-.8.6-.8-.7 0-1.3-.5-1.6-1.7-1.2-.9.4-2 .1-2.5-.6-.8-1-1.1-1-1.5-.1-.2.7-1.2 1.3-2 1.3-1.3 0-1.3-.3-.3-1.5.7-.9.9-1.9.5-2.3-.4-.4-1-.2-1.2.4-.5 1.4-4.3.6-4.3-.8 0-.5.3-.7.8-.5.4.3 1.2-.1 1.9-.8 1-1.1.7-1.7-1.3-3-2.3-1.5-5-1.3-4 .4.3.3-.4.7-1.4.7-1 0-1.6-.4-1.3-.9.3-.5 0-.7-.8-.5-.8.3-3.1-.4-5.1-1.5-2.3-1.3-4.3-1.7-5.5-1.2-3.4 1.5-6.8 1.1-7.8-1-1.4-2.7-15.5-6.8-15.5-4.5zm-8.3 6.3c-.3.9-1.6 1.2-3.6.9-1.7-.2-3.9-.1-4.8.3-1.5.6-1.2 1 1.7 2 3.4 1.3 3.1 1.6-2.1 1.9-2.1.2-2.5-.2-2.1-1.6.2-1-.1-1.8-.7-1.8s-1.1.7-1.1 1.5-.6 1.6-1.2 1.7c-5 .6-7.2.7-14.5 1.1-4.6.2-8.3 0-8.3-.5 0-.4 1-.9 2.3-1 6.5-.5 13.9-1.8 15.2-2.8.6-.4 1.7-.7 2.5-.8 2.5 0 7.4-.9 9-1.5 1.6-.7 7.3-1.4 7.9-1 .2.1.1.8-.2 1.6zm34 .4c-.4.3-.2 1.2.4 2 1.5 1.7.1 1.7-1.7-.1-1.1-1.1-1.1-1.6-.1-1.9 1.8-.8 2.1-.8 1.4 0zM280 21c1.1.8.8.9-1.4.6-1.6-.3-3.1-.8-3.4-1.1-1-.9 3.3-.5 4.8.5zm41 1.9c0 .5-.7 1.1-1.5 1.5-1.5.5-2-.5-.8-1.7.9-1 2.3-.9 2.3.2zm3.5 3.9c-.3.3-1.1 0-1.8-.7-.9-1-.8-1.1.6-.5 1 .3 1.5.9 1.2 1.2zm-131.6 3.9c0 1.1-.3 1.3-.6.6-.3-.9-1-1-2.3-.3-1 .5-2.6.7-3.4.4-.9-.3-1.6-.2-1.6.4 0 .5-1.1 1.2-2.4 1.4-1.7.4-2.3.1-1.9-.9.3-.7 1-1.3 1.7-1.2.6.1 1.8 0 2.6-.4 5.7-2.2 8-2.2 7.9 0zM176 35c0 .5-.5 1-1.1 1-.5 0-.7-.5-.4-1 .3-.6.8-1 1.1-1 .2 0 .4.4.4 1zm14.3-.2c1.4.6 1.1 1.1-1.8 2.6-1.9 1.1-3.5 2.3-3.5 2.8 0 .4-.5.8-1.2.8-.6 0-.4-.8.6-1.9 1.5-1.7 1.5-1.9.1-2.5-2.4-.9-3.2-.7-1.5.4 1 .6 1.1 1 .3 1-.7 0-1.3.6-1.3 1.3 0 .7-.9 1.8-2 2.5-1.5.9-1.9.9-1.8 0 .5-2.2-2.6-1.3-5.4 1.5-2.5 2.7-4.7 3.5-10.7 4-4 .3-3.5-2 .8-4.2 4.8-2.5 5.8-2.6 4.1-.6-.7.9-.8 1.5-.2 1.5.5 0 1.2-.7 1.6-1.5.3-.8 1.4-1.5 2.4-1.5s2.7-.9 3.7-2 2.4-2 3.2-2c.7 0 1.3-.4 1.3-.8s1.7-.9 3.7-1c2.1-.2 3.9-.5 4.2-.7.5-.6 1.1-.5 3.4.3zm6.7 1.1c0 .5-.9 1.2-2 1.5-5.3 1.5-6.1 1.4-2.5-.4 4.7-2.3 4.5-2.2 4.5-1.1zM171 39c0 .5-.2 1-.4 1-.3 0-.8-.5-1.1-1-.3-.6-.1-1 .4-1 .6 0 1.1.4 1.1 1zm-7.5 1.9c-.6.5-2.1 1.2-3.5 1.5l-2.5.7 2.5-1.5c2.8-1.7 5-2.1 3.5-.7zM246 42c0 .5-.9 1-2.1 1-1.5 0-1.9.5-1.5 1.5.4 1.2 0 1.4-2.2.9-1.5-.4-2.8-.8-3-.9-.2-.2 5-2.3 8.6-3.4.1-.1.2.3.2.9zm15 2.4c0 1.1-1.9 1.5-2.5.6-.3-.5.1-1 .9-1 .9 0 1.6.2 1.6.4zM234.5 46c-2.8 1.2-4.5 1.2-4.5 0 0-.6 1.5-1 3.3-.9 2.7 0 2.9.2 1.2.9zm13.5 1.8c0 1.5-.2 1.5-1 .2-.9-1.3-1.1-1.3-1.9-.1-.6 1-.5 1.8.4 2.5.7.6 1.6 1.8 1.9 2.6.3.8.4.4.2-.8-.4-1.9-.1-2.3 1.2-2 1 .3 2.3-.1 3-.9 1.5-1.6 3.2-1.7 3.2-.2 0 .5-.4.8-.9.4-.5-.3-1.2-.1-1.6.5-1 1.6 1.2 1.2 6.5-1.4 2.8-1.3 4.7-1.9 4.3-1.4-.4.8.6.9 3.1.5s3.4-.2 3 .5c-.5.7-.2.9.8.5.9-.3 2.1 0 2.7.6.8.8 1.1.6 1.1-.9 0-1.4.3-1.6.9-.6.5.8 2.1 1.2 4.2.9 1.9-.2 4.4 0 5.6.4 1.2.4 3.5.4 5.1-.1 2.8-.7 3-.6 2.7 1.6l-.2 2.5 2.3-2.2c2.2-2.1 4.4-1.9 4.4.4 0 .7-.4.6-1-.3-.8-1.2-1-1.1-1 .7 0 1.4.6 2.2 1.8 2.1.9 0 2.8.3 4.2.7 1.4.4 3.3.8 4.3.8.9.1 1.7.5 1.7.9s.7.8 1.5.8 2 .9 2.7 2c.7 1.1 1.6 2 2 2 1.5 0 .8-2.7-1.2-4.5-2.4-2.2-2.6-3.5-.5-3.5.8 0 1.5.4 1.5 1 0 .5.7.7 1.5.4.9-.4 1.5 0 1.5 1 0 .9.5 1.6 1 1.6.6 0 1-.4 1-.9 0-1.3 6 1.8 6.7 3.5.3.8 1.5 1.4 2.7 1.4 1.3 0 3.3 1.1 4.6 2.5 1.3 1.4 2.7 2.5 3.2 2.5 1.3 0 13.8 10.2 17.1 13.9 1.5 1.7 2.5 3.7 2.1 4.3-.4.6-.3.8.4.4.9-.5 5.2 4.2 5.2 5.8 0 .4 1.1 2.4 2.5 4.6 1.4 2.2 2.5 4.4 2.5 4.9s2.2 5.5 4.9 11.2c4.8 10 5.3 12.9 2.5 12.9-2 0-1.7 1.4.6 3.5 1.6 1.4 1.8 2.1.8 2.8-1 .7-1 1 0 1.4.6.2 1.2 2.2 1.2 4.4 0 3.2-.3 3.7-1.7 3.3-1.7-.5-1.7-.5 0 .9 2 1.7 2.2 3.8.5 5.5-.9.9-.9 1.2.1 1.2.7 0 1 .4.6 1-.3.5-1.3.6-2.2.3-1.4-.6-1.4-.4 0 1.8.8 1.3 1.3 3.3 1.1 4.4-.2 1.1-.5 3-.6 4.2-.3 2.6-.9 2.8-2.6 1.1-.8-.8-1.5-.8-2.7.2-1.3 1.1-1.3 1.5-.3 2.1 1.1.7 1.1.9 0 .9-1.8 0-4.4 2.7-3.3 3.4.4.3.6 1.7.4 3.1-.3 1.3-.9 2.3-1.3 2-.4-.2-1.2.7-1.9 2.1-1.6 3.6-1.3 5.4.5 2.1.8-1.5 1.9-2.7 2.5-2.7.6 0 .7.6.3 1.2-.5.8 0 .7 1.1-.2 1.7-1.4 1.8-1.3 1.1.5-.5 1.1-.9 2.5-.9 3.2 0 .6-.6.9-1.4.6-.8-.3-1.3.3-1.3 1.8 0 1.7.3 2 .9 1 .6-.9.8-.4.8 1.5 0 1.6-.2 2.3-.4 1.6-.6-1.7-4 2.7-4.6 5.9-.2 1.3-.2 1.8 0 1.1.5-1.4 2.3-1.6 2.3-.3 0 .6-.4 1.3-1 1.6-.6.3-1 1.4-1 2.4s-.7 2.4-1.5 3.1c-.9.8-1.5.9-1.5.2 0-.6.4-1.4 1-1.7 1.2-.8 1.3-2.5.1-2.5-.5 0-1.1.9-1.4 2-.3 1.4-1 1.8-2.1 1.4-1.3-.5-1.4-.9-.5-2 .6-.8.8-1.4.3-1.4-.4 0 .1-.6 1.2-1.4 1-.8 1.6-1.8 1.2-2.2-.4-.4-1.4-.1-2.3.6-.8.7-1.6 1-1.6.6-.1-.3-.2-1.2-.3-1.9-.4-2.4-5.6.3-5.6 2.9 0 .7-1.2 2.5-2.7 3.9-1.5 1.4-2.2 2.5-1.5 2.5.6 0 1.2-.5 1.2-1.1 0-.5.4-.7 1-.4.5.3 1.9-.9 3.1-2.7 1.2-1.8 1.9-2.5 1.5-1.6-.6 2.1.4 2.3 2.3.5 1.2-1 .5.7-4.1 9.6-.5 1-.6 2.7-.3 3.7.5 1.6.1 1.8-2.3 1.5-2-.2-3.7.4-5.8 2.1-1.8 1.6-3.7 2.4-5.1 2.1-1.2-.2-2.1-.1-2.1.2.4 1.3-1.4 5.1-2.3 5.1-.5 0-.8 1.2-.7 2.7.2 1.9-.1 2.7-1 2.5-.8-.1-1.1.2-.7.8.3.5.1 1-.5 1s-.8.4-.5 1c.3.5-.1 1-.9 1-1.9 0-2.2 2-.3 2.1.6 0-.3.5-2.1 1-2.3.7-3.2 1.5-2.8 2.4.3.8-.3 1.9-1.4 2.5-1.3.7-2 .6-2.3-.3-.2-.6-.9.5-1.6 2.6-1.4 4.3-1.3 4.7 1.8 5 2.2.1 2.8 1.2 1.1 2.2-.5.3-1 .2-1-.4 0-.6-.7-.8-1.6-.4-.8.3-1.3 1.1-1 1.9.3.7-.2 1.8-1 2.5-1.3 1-1.7 1-2.4-.1-.6-.9-.4-1.7.3-2.2.9-.5.8-1-.2-2-.9-.8-1.1-.9-.7-.1.3.6.1 1.5-.5 1.8-.6.4-.8 1.8-.5 3.1.5 1.9 0 2.6-2.5 3.9-1.7.9-6.3 3.8-10.2 6.4-10.4 7-15.2 9.2-18.4 8.6-2.3-.4-2.5-.4-.8.4 2 1 1.2 1.4-2.7 1.4-1 0-1.8.3-1.8.7 0 .4-.6.7-1.2.7-.7 0-4.9 1.3-9.2 2.7-6.4 2.2-8.1 2.5-8.8 1.4-.6-.9-.7-.6-.3.9.5 1.7.2 2.3-.9 2.3-1 0-1.3-.6-.9-1.5.3-.9.2-1.5-.3-1.4-2.1.4-3.5-.2-2.9-1.1 1.1-1.7-.5-1.1-3.1 1.3-2.2 2.1-2.2 2.3-.5 2.3 1.1 0 1.8-.4 1.5-.7-.7-1.2 1.1-1.8 2.5-1 .9.6.5 1.4-1.8 3-1.7 1.2-3.1 1.8-3.1 1.2 0-.6-2.8 1-6.2 3.4-3.5 2.5-9 6.4-12.3 8.7-7 4.9-19.2 16.8-25.9 25.1-4.2 5.3-10.6 17-11.2 20.7-.2.8-.8 1.6-1.5 1.9-.8.2-.8.6.2 1.1 1 .7.9 1.4-.4 3.4-.9 1.4-1.7 3.4-1.7 4.5s-.5 2.3-1 2.6c-.6.4-.8 1.1-.5 1.6.4.5-.2.9-1.2.9-1.5 0-1.5.2-.3 1 1.2.7 1.1 1.2-.5 3.1-1.1 1.2-1.4 1.9-.6 1.4 1-.6 1.2-.4.5.6-.5.8-.9 2.7-1.1 4.4-.3 4.1-1.2 12-1.3 12-.4 0-1.1 4.5-1.5 8.8-.2 2.7-.8 5.4-1.4 6.1-.6.7-.8 1.6-.4 1.9.3.4.1.7-.7.7-1 0-1 .3.1 1.7.8.9 1.3 2.5 1.1 3.5-.2 1.1.4 3.5 1.3 5.5.9 1.9 1.4 3.7 1.2 4-.3.3-1.4-1.4-2.4-3.6-1.1-2.3-2.2-3.8-2.6-3.5-.3.4-.2 1.5.4 2.6 1.7 3.2 2 10.6.4 11.2-.8.3-1.6 0-1.9-.7-.3-.7-.3 0 0 1.5.7 3.3-.4 3.5-4 .7-1.5-1.1-3.4-2.2-4.4-2.4-.9-.1-1.6-.8-1.5-1.3.2-.6-.4-.9-1.2-.6-.8.4-1.5.1-1.5-.5s-.7-.8-1.5-.5c-.8.4-1.5 1-1.5 1.5 0 .4.7.6 1.5.3 1.7-.7 1.8-.3.9 2.1-.6 1.3-.9 1.4-1.6.3-.8-1-1.1-1-1.5 0-.5 1.3-2.3.7-2.3-.9 0-.6.5-.7 1-.4 1.3.8 1.3-.1-.1-2.7-1-1.8-.9-2 .5-1.5.9.4 1.6.1 1.6-.5s-1.1-.8-3-.5c-1.7.4-3.2.2-3.6-.5-.5-.7-.2-.9.9-.5.9.3 1.9.2 2.2-.3.4-.6 0-1-.8-1s-1.8-.7-2.1-1.6c-.4-.9-1.3-1.4-2.2-1-.8.3-1.2.2-.9-.4.3-.5-.3-1.4-1.4-2-1.1-.6-1.9-1.6-1.7-2.3.1-.6.1-.9-.1-.6-.7 1.2-4.4-.3-3.9-1.6.3-.8-.2-1.1-1.5-.8-1.1.3-1.9 0-1.9-.6 0-.7.5-.9 1.3-.5.8.5.7.2-.2-.9-.8-1-1.6-1.5-1.9-1.3-.8.8-4.3-1.4-3.7-2.4.3-.5 0-1.2-.6-1.6-.6-.4-1.6.1-2.1 1-1 1.8-2.8 2.2-2.8.5 0-.5.5-.7 1-.4 2.3 1.4.8-2.4-1.6-3.9-4-2.7-9.9-9.6-10.4-12.4-.3-1.4-1.1-2.7-1.9-3-.8-.3-1.1 0-.7.7.4.6.3 1.1-.2 1.1-.6 0-1.3-1.2-1.6-2.6-.5-1.9-1.1-2.4-2.6-1.9-1.3.4-2 .2-2-.7 0-1.6-7.3-8.8-8.8-8.8-.6 0-.9.8-.6 1.7.5 1.5.4 1.6-.5.3-1.5-2.1-1.4-3 .6-3 1.2 0-.3-2-4.4-5.9-3.4-3.3-6.9-7.4-7.8-9-.8-1.7-1.8-3.1-2.1-3.1-.3 0-.2.4.1 1 .3.5.2 1-.4 1-.6 0-1.4-1.2-1.7-2.8-.4-1.5-1.3-3.9-2.1-5.5s-.9-2.7-.3-2.7c.6 0 1.7 1.8 2.6 4 2.1 5.2 2.8 4.7 1-.5-1-2.8-2.1-4.1-3.6-4.3-1.6-.3-2.1-.9-1.7-2.2.3-1.1 0-2.1-.7-2.4-.6-.3-.1-.3 1.1 0 1.7.4 2.1.2 1.7-.9-.3-.8.2-1.7 1-2 .9-.4 1.6-1.2 1.6-1.8 0-.9-.3-.9-1.4 0-.7.6-2.1.9-3 .5-1.3-.5-1.5-.2-1 1.2.6 1.5.4 1.7-.6.7-1.1-1-1.1-1.5.1-2.9 1.2-1.6 1.2-1.7-.3-1.1-1 .3-1.8.2-1.8-.2 0-.5-.3-1.6-.6-2.5-.3-.9-.1-1.6.5-1.6s1.1.6 1.1 1.4c0 .7.9 1.6 2 1.9 1.1.3 2 .1 2-.5 0-.5.6-.6 1.3-.2.8.6.8.3-.2-.9-1.4-1.7-.9-4.7.8-4.7.5 0 1.5 1.6 2.1 3.5.6 1.9 1.5 3.5 2 3.5s1.1 1 1.3 2.2c.3 1.3.3-.2.1-3.2-.3-5.5-1.1-11.7-1.8-15.5-.3-1.1-.5-2.6-.5-3.3-.1-.6-.9-1.2-1.8-1.2-1.2 0-1.4-.3-.6-.8 1.2-.8 1.2-2 0-5.7-.7-2.5-1.7-8.6-2.3-14.4-.2-2.4-.7-4.9-1.2-5.5-.4-.6-.8-3-.7-5.2 0-3.2-.3-4-1.4-3.6-1 .4-1.2.1-.6-.8.6-1 .4-1.2-.8-.7-1.3.5-1.7.1-1.7-1.7 0-1.3.7-2.6 1.5-3 .8-.3 1.5-1.2 1.5-2.1 0-2.1-2-1.9-2.1.2-.1 1-.5-.2-.9-2.7-.9-5.3-.6-11.3.8-15.6.5-1.7.6-3.7.2-4.4-.6-.9-1.1-.2-1.5 2.3-.4 2-1.2 3.7-1.7 3.7-.6 0-.8-.9-.5-1.9.3-1.1-.3-2.8-1.4-4-1.7-1.8-2.8-4.4-1.3-2.8.9.9 5.4-4.4 4.8-5.5-.9-1.3-2.4-.9-2.4.7 0 3.1-2.5 1.4-2.6-1.8-.1-1.7-.4-5.2-.6-7.7-.3-2.5-.1-5 .4-5.6 1.2-1.6-.8-6.4-2.4-6-.7.1-1 .1-.5-.1.4-.3.5-.8.3-1.2-.3-.4.4-.7 1.4-.7 1.2 0 1.6.5 1.2 1.6-.3.8-.2 1.2.3.8.4-.4.9-2 1.1-3.5.1-1.6.2-3.1.3-3.4.1-.4 1-.9 2.2-1.2 1.2-.3 1.8-1 1.4-1.7-.4-.6 0-1.9.8-2.8.8-.9 1.7-2.6 1.9-3.7.2-1.4 1-1.9 2.5-1.7 2.8.4 3.8-1.5 2.3-4.4-1.2-2.1-1-2.6 1.1-4.3 2-1.7 2.1-2 .7-2.1-1.2 0-1.5-.5-1.1-1.7.5-1.2.3-1.4-.7-.8-.9.6-1.1.4-.6-.4.5-.7 2-1.2 3.4-1.1 4.1.3 4.8.1 3.2-1-1.3-.8-1-1.4 1.6-3.7 1.6-1.5 2.2-2.2 1.2-1.4-1.6 1.2-1.8 1.2-1.8-.4 0-1.5-.3-1.5-1.5-.5-.9.7-1.4 1.9-1.1 2.6.3.8-.4 1.9-1.5 2.5-1.8.9-2 .8-1.5-.9.4-1.1.9-2.9 1.1-3.9 1.6-6.9 5.1-14.3 6.8-14.3 1.3 0 3.5-2.6 8.4-9.8 1.9-2.8 2.1-3.4.8-3.9-1.2-.4-1.3-.9-.4-1.9.6-.8.8-1.4.4-1.4s.1-1.2 1.1-2.8c1.3-1.9 1.3-2.4.2-1.5-.8.7-1.8 1-2.1.6-.4-.3-.7.2-.7 1.1 0 1-1.3 3.1-3 4.8-1.6 1.6-3 3.4-3 3.9 0 .6-.5.7-1.1.4-.7-.5-.4-1.4.7-2.6.9-1 1.2-1.9.6-1.9s-1.2.6-1.5 1.2c-.2.7-.8.9-1.3.5-.5-.5.2-1.7 1.6-2.9 1.6-1.3 1.9-1.8.7-1.4-2.4.8-2.1.1.7-1.8 2.4-1.5 2.4-1.5 1.6 1.5-.8 2.6-.7 2.9.5 1.9.8-.7 1.5-2.3 1.5-3.6 0-1.3.5-2.4 1.1-2.4.6 0 .9-.7.5-1.5-.3-.8-.1-1.5.5-1.5s.7-.5.4-1c-.4-.6-.1-.9.7-.8.7.2 1.2-.3 1.1-1-.2-.6.2-1.2.8-1.2 1.2 0 4.3-2.9 4.5-4.2.1-.4.2-1.3.3-1.8 0-.6.8-1 1.6-1 .9 0 1.5-.7 1.3-1.7-.4-2.1 3.1-3 4.3-1.1.7 1 1.3.9 2.7-.8 2.1-2.7 4.1-3.3 6.8-2.3 1.5.5 3.1-.1 6.4-2.7 2.3-1.9 4.5-3.4 4.8-3.4.6 0-1.7 3-4.3 5.5-3 2.8.3.6 4.6-3.1 3.1-2.7 3.4-3.3 2-4.3-1.4-1.1-1.4-1.1.2-.7.9.3 3 0 4.5-.6s3.2-1 3.9-.9c.7.1 1.7-.8 2.3-1.9.8-1.6.8-2.4-.4-3.5-1.8-1.9-2.2-1.9-3 .1-.3.8-.2 1.2.4.9.6-.3 1.5-.3 2.1.1.7.4-.1 1.2-2.1 2-4 1.7-4.5 1.7-3.1 0 .8-1 .8-1.6-.2-2.5-1.1-.8-2.1-.5-4.3 1.4-4 3.4-4.3 2.3-.3-1.3 2.1-1.9 3.6-2.6 4-2 .4.6 1.2.2 1.9-1.1s1.7-2 2.6-1.7c.8.3 1.4 0 1.4-.7s1.5-2.2 3.3-3.5c3.7-2.5 5.2-2.8 4.1-1-.4.7.7-.2 2.4-2 3.1-3.1 5-4.2 3.7-2.3-1.3 2.2 2 2.1 6.6 0 5.3-2.6 5.4-2.7 3.8-4.9-.9-1.3-1-1.2-.5.2.3 1 .1 1.8-.4 1.8-1.5 0-1.2-3.7.3-4.2.6-.3 3.5-.3 6.2-.2 3.8.3 4.6.1 3.3-.7-2.4-1.4-2.3-3.9.1-3.9 1.1 0 2.3-.5 2.6-1 .4-.6 1.5-.8 2.5-.5 1.2.4 2-.1 2.4-1.7.5-1.4.9-1.8 1.3-1 .2.6.9 1 1.4.7.4-.3 2.5-.8 4.6-1.1 2.1-.2 4.2-.9 4.7-1.4 3.1-3.1 2.9 1.3-.2 4.5-3.7 3.8-2.4 4.1 1.6.4 7.4-6.8 12.8-9.8 19.1-10.4 1.8-.2 3.8-.9 4.5-1.5.8-1 .4-1.1-1.9-.5-1.6.4-4.1.9-5.4 1.1-1.4.3-2.8.7-3.3 1-.4.3-.5-.2-.2-1 .3-.9 1.6-1.6 2.8-1.6 1.3 0 2.6-.3 2.9-.7 1.5-1.4 5.6-1.1 6.2.5.3.9.1 1.8-.4 2-.6.2-1.1.8-1.1 1.3 0 1.2 2.7 1.2 3.2 0 .2-.6 1.4-1.2 2.8-1.5 4-.7 5.8-1.6 6.4-3.2.4-1.2.1-1.4-1.4-.9-1.1.4-2 .2-2-.3 0-.6 1.3-.9 2.8-.8 1.5.1 4.6-.8 6.7-1.9 4.4-2.3 5.5-2.3 5.5.3zm3.9-.7c-1.6 1-2.3.4-1.4-1 .3-.6 1.1-.8 1.7-.5.6.4.5.9-.3 1.5zm-24.3.8c-1.2.5-1.6 1-.9 1.4.6.4 1.8.4 2.7.1.9-.3 1.6-.2 1.6.4 0 .5-1.1 1.2-2.5 1.4-1.7.4-2.5.1-2.5-.8 0-.8-.6-1.4-1.2-1.4-.9 0-.8-.4.2-1 .8-.5 2.2-.9 3-.9 1 0 .9.3-.4.8zM206.5 55c-.4.6-1 .8-1.5.5-.5-.3-1.1-.1-1.5.5-.3.5-1.6 1-2.8 1-1.8 0-1.9.2-.7 1 .8.5 1.2 1 .8 1-1.8 0-2.4.2-3.6 1.3-.7.6-1.2.6-1.1.1.3-2-.2-2.8-1-1.5-.5.8-1.1.9-1.5.3-.3-.5 2-1.9 5.2-3 6.5-2.3 8.6-2.6 7.7-1.2zm-2 3c-.3.5-.1 1 .6 1 .8 0 .8.4-.1 1.5-.7.8-1.8 1.5-2.4 1.4-.7 0-.6-.2.2-.6.6-.2 1-.9.6-1.4-.5-.9.3-2.9 1.2-2.9.3 0 .2.4-.1 1zm4.5-.6c0 .3-.4.8-1 1.1-.5.3-1 .1-1-.4 0-.6.5-1.1 1-1.1.6 0 1 .2 1 .4zM131 65c0 .5-.6 1-1.3 1-.7 0-2.8 1.1-4.7 2.5-3.7 2.7-6.3 3.4-3.9 1 1.6-1.6 7.9-5.3 9.2-5.4.4-.1.7.3.7.9zm46 4.4c0 1.1-1.9 1.5-2.5.6-.3-.5.1-1 .9-1 .9 0 1.6.2 1.6.4zm-15 5.3c0 1.1-9 6.6-9.7 6-.9-1 .6-3.9 1.7-3.2.5.3 1 .1 1-.5 0-.7.7-1 1.5-.6.8.3 1.5.1 1.5-.4s.8-1.1 1.8-1.3c.9-.3 1.8-.5 2-.6.1 0 .2.2.2.6zm3.6 1.2c1.7-1.4 1.9.2.2 1.9-2 2-3.7 1.4-3-1 .3-1.3.7-1.7 1-1 .3 1 .7 1 1.8.1zm-16.8 6.7c-1.3 1.3-2.9 2.4-3.7 2.4-.7 0-2.2 1-3.2 2.2-1.1 1.1-2.2 1.8-2.5 1.5-.6-.6 3-5.8 4-5.8 2.6.3 3.6-.1 3.6-1.3 0-1.5 2-2.6 3.3-1.9.4.3-.3 1.5-1.5 2.9zM130 94c-2.4 1.5-3.6 1.1-1.4-.4 1-.8 2.1-1.2 2.4-1 .2.3-.2.9-1 1.4zm-5.8 4.2c-.9.9-.9 1.5.1 2.7 1 1.4 1 1.4-.4.4-1.8-1.5-3-.8-2.2 1.2.4 1.1 1 1.1 2.9.3 1.3-.6 2.1-1.4 1.9-1.9-.3-.4.4-.5 1.5-.2 2.8.7 2.5 1.2-1.5 2.9-2 .8-3.3 1.9-3 2.4.4.6-.4.8-1.7.6-1.3-.3-2.6-.5-3-.5-2-.2 3.5-9.1 5.6-9.1.6 0 .5.5-.2 1.2zM82 102.5c-.7.8-1.7 1.5-2.3 1.5-.6 0-.2-.7.9-1.5 2.5-1.9 3-1.9 1.4 0zm-3.4 4c-.8.8-1.8 1.5-2.2 1.5-.3 0-.1-.7.6-1.5s1.7-1.5 2.2-1.5c.5 0 .3.7-.6 1.5zm37.6.4c1.1.1-.3 3.1-1.4 3.1-.6 0-.7-.8-.3-1.8.5-1.4.4-1.5-.6-.5-1.7 1.7-3 1.6-2.3-.1.3-.8 1.3-1.3 2.2-1.1.9.2 2 .4 2.4.4zM109 109c0 .5-.2 1-.4 1-.3 0-.8-.5-1.1-1-.3-.6-.1-1 .4-1 .6 0 1.1.4 1.1 1zm-4.8 5.7c-.7.3-1.7 1.6-2.3 3-.5 1.3-1.3 2.1-1.9 1.8-.5-.3-1-.2-1 .3 0 .6-.7 1.2-1.5 1.6-1.2.4-1.3.2-.2-1.4.6-1.1 1.7-2 2.4-2s1.3-.7 1.3-1.5c0-1.5 3.1-3.7 4-2.8.3.3-.1.8-.8 1zm1.8 2.7c0 .2-.7.6-1.5 1-.8.3-1.5.1-1.5-.4 0-.6.7-1 1.5-1s1.5.2 1.5.4zm-9.6 23.1c-.4.8-1 1.5-1.5 1.5-.4 0-.6-.7-.3-1.5.4-.8 1-1.5 1.5-1.5.4 0 .6.7.3 1.5zm-12 2.9c-.3.9-1 1.6-1.5 1.6s-.4-.9.3-2c1.4-2.2 2.1-2 1.2.4zm7.1.6c.3.6-.1.7-.9.4-1.8-.7-2.1-1.4-.7-1.4.6 0 1.3.4 1.6 1zm-10.7 4c-.7 1-1.4 1.8-1.5 1.6-.6-.6.9-3.6 1.8-3.6.5 0 .4.9-.3 2zm9.6-.7c-.2.7-1.8 2.1-3.5 3.1-3 1.8-3 1.8-1.7-.3.7-1.2 1.8-2.1 2.5-2.1s1.3-.5 1.3-1c0-.6.4-1 1-1 .5 0 .7.6.4 1.3zm-40.2 2.9c-.7.7-1.2.8-1.2.2 0-1.4 1.2-2.6 1.9-1.9.2.3-.1 1.1-.7 1.7zM86 154c0 .5-.4 1-1 1-.5 0-1-.5-1-1 0-.6.5-1 1-1 .6 0 1 .4 1 1zm287 10c0 .9-1 2.5-2.2 3.6-1.6 1.3-1.9 1.4-1 .3.8-1 1-3 .7-4.9-.5-2.9-.4-3.2 1-2 .8.7 1.5 2 1.5 3zM81.2 176.7c-.7.3-1.9 1.2-2.8 2-2.4 2.5-2.6.9-.2-1.9 1.6-1.7 2.6-2.2 3.3-1.6.7.7.6 1.2-.3 1.5zM366 187.4c0 .3-.4.8-1 1.1-.5.3-1 .1-1-.4 0-.6.5-1.1 1-1.1.6 0 1 .2 1 .4zm-307 9.1c1.4 1.9 1.4 1.9-.2.6-1-.7-1.8-1.8-1.8-2.4 0-.6.1-.8.3-.6.1.2.9 1.3 1.7 2.4zm8.7-.8c-.4.3-.2 1.2.4 1.9 1 1.2.7 1.2-3 .5-.5-.1 2-3.1 2.7-3.1.3 0 .2.3-.1.7zm287.1 4.3c-.7 1.1-1.6 2-2.1 2-.4 0-.3-.9.3-2s1.5-2 2-2c.6 0 .5.9-.2 2zM59 203c0 1.1-.4 2-.9 2s-.7-.9-.4-2c.3-1.1.7-2 .9-2 .2 0 .4.9.4 2zm0 4.4c0 .3-.4.8-1 1.1-.5.3-1 .1-1-.4 0-.6.5-1.1 1-1.1.6 0 1 .2 1 .4zm286 4.7c-.6 1.1-.8 2.5-.4 3.1.5.7.3.8-.6.3-1-.6-1.2-.4-.7.7.3 1 0 1.5-1.1 1.4-1 0-1.6.5-1.4 1.4.3 1.2.1 1.2-.9.3-1-1-.9-1.6.1-2.8 2-2.4-.9-1.5-3.3 1-1.5 1.6-1.4 1.3.2-1.2 1.4-2 2.7-3 3.6-2.7 1 .4 1.8-.3 2.5-2.1.5-1.4 1.4-2.3 2-2 .7.4.7 1.3 0 2.6zm7-.6c-.7.9-1.5 1.3-1.7 1.1-.6-.6 2-3.6 2.6-3 .2.2-.2 1-.9 1.9zm-3.4 4.1c-.8 2.4-10.6 12.8-11.3 12-.9-.9.6-3.8 1.7-3.1.5.3 1 .2 1-.3s1.8-2.8 4.1-5.1c2.9-2.9 3.9-4.6 3.5-5.8-.6-1.4-.4-1.5.4-.7.7.7.9 2 .6 3zM335 222c0 .5-.5 1-1.1 1-.5 0-.7-.5-.4-1 .3-.6.8-1 1.1-1 .2 0 .4.4.4 1zM71 235.6c0 .8.7 2.6 1.6 3.9 1.2 1.8 1.3 2.5.4 2.5-.7 0-1 .8-.7 2 .3 1.1.1 2.3-.4 2.6-.5.3-.6 1-.3 1.6 1.1 1.7 1.4 6.2.4 5.2-1.9-1.9-3.8-21-1.9-19.9.5.4.9 1.3.9 2.1zm252.5.4c-.3.5-1.1 1-1.6 1-.6 0-.7-.5-.4-1 .3-.6 1.1-1 1.6-1 .6 0 .7.4.4 1zm5.5 1.4c0 .2-.7.7-1.6 1-.8.3-1.2.2-.9-.4.6-1 2.5-1.4 2.5-.6zM73 261.6c0 .8-.4 1.2-1 .9-.5-.3-1-1-1-1.6 0-.5.5-.9 1-.9.6 0 1 .7 1 1.6zm2.5 6.4c.3.5.1 1-.4 1-.6 0-1.1-.5-1.1-1 0-.6.2-1 .4-1 .3 0 .8.4 1.1 1zm-1 7c-.3.5-.2 1.8.3 2.7 1.1 2-2.1 9.2-3.2 7.4-.4-.5-.2-1.2.2-1.5.5-.3.8-2.2.8-4.3-.1-2.1.3-4.1.9-4.5 1.4-1 1.7-1 1 .2zm4.9 1.6c.3.8.2 1.2-.4.9-.6-.3-1-1-1-1.6 0-1.4.7-1.1 1.4.7zm1.6 13c0 .8-.6 1.4-1.4 1.4-1.3 0-2.8-6.5-1.8-7.5.6-.6 3.2 4.3 3.2 6.1zm-4.5-2.6c.3 1.1.3 2.4 0 3-.3.5-.1 1 .4 1 .6 0 1.1.8 1.1 1.7 0 1.4-.3 1.3-1.6-.5-.9-1.3-1.3-2.9-1-3.7.3-.8.1-1.5-.4-1.5-.6 0-1-.5-1-1 0-1.8 1.8-1.1 2.5 1zm4.5 7c0 .5-.4 1-1 1-.5 0-1-.5-1-1 0-.6.5-1 1-1 .6 0 1 .4 1 1zm-4.4 2.6c.7-.3 1.6-.1 1.9.3.2.5-.4 1.1-1.5 1.4-1.3.3-1.8 1.1-1.4 2 .5 1.4-1.2 3.4-2.2 2.4-.3-.2-.1-2.4.3-4.8s.9-3.6 1.1-2.6c.2 1.1.9 1.6 1.8 1.3zm-1.6 13c1.3 4 .6 6-.8 2.3-2-5.4-2.4-7.1-1.4-6.5.6.3 1.6 2.2 2.2 4.2zm6-2c0 .8-.4 1.2-1 .9-.5-.3-1-1-1-1.6 0-.5.5-.9 1-.9.6 0 1 .7 1 1.6zm414.5-.6c.3.5.1 1-.4 1-.6 0-1.1-.5-1.1-1 0-.6.2-1 .4-1 .3 0 .8.4 1.1 1zm-417.8 5.2c-.3.8-.6.5-.6-.6-.1-1.1.2-1.7.5-1.3.3.3.4 1.2.1 1.9zM492 312c0 1.3-1.1 1.3-3 0-1.2-.8-1.1-1 .8-1 1.2 0 2.2.4 2.2 1zm-412 4.1c0 .5-.4.9-1 .9-.5 0-1-.7-1-1.6 0-.8.5-1.2 1-.9.6.3 1 1 1 1.6zm409.6 5.8c-.4.5 0 1.1.6 1.4.7.2.9.8.5 1.3-.9 1-2.8-1.6-2.1-2.8.3-.4.7-.8 1-.8.3 0 .3.4 0 .9zM332 334.2c4.8 3 11.4 10.4 10.5 11.9-.2.3.2 1.8 1 3.3 3.9 7.4 6.2 27.7 4 34.7-1.1 3.3-9 13.5-12.6 16.1-1.6 1.2-2.9 3-2.9 4 0 1.1-.7 1.8-2 1.8s-2.8 1.3-4.1 3.5c-1.3 2.1-3.1 3.7-4.8 4.1-1.4.3-3.7.9-5.1 1.3-1.4.5-3.7.7-5.2.7-1.6-.1-2.8.1-2.8.5s-.9.9-1.9 1.2c-1.4.3-1.8.1-1.4-1 .5-1.3.2-1.3-1.5-.4-1.4.7-2.3.8-2.7.1-.3-.5-1.7-1-3.1-1-1.3 0-2.4-.5-2.4-1.1 0-.5-.4-.7-1-.4-.5.3-1 .2-1-.4 0-.5.4-1.2.9-1.6 1.9-1.1-3-8.1-6.5-9.4-1.9-.7-3.4-1.7-3.4-2.2 0-.5-.6-.9-1.2-.9-2.2-.1-6.2-3.6-5-4.4.6-.4.9-1.2.7-1.9-.6-1.6-1.3-8.1-2-18.5-.5-7-.4-8.2 1-8.2.8 0 1.5-.4 1.5-1 0-.5-.7-.7-1.5-.4-1.1.5-1.4.2-.9-1.2 1.1-3.1 3.5-5.3 5.1-4.7 1.2.5 1.4.1.8-1.7-.6-2 .2-3.2 5.3-7.9 3.4-3.1 7.8-6.5 9.9-7.6 2.1-1.1 4.3-2.5 4.8-3.1 1.5-1.7 9.9-6.2 12.6-6.7 7.2-1.3 11.5-.7 16.9 2.5zm149.3 16.3c-.3.9-.8 1.4-1 1.1-.3-.3-.2-.9.2-1.5.9-1.6 1.5-1.3.8.4zm-298.6 31.7c-.3.7-.5.2-.5-1.2s.2-1.9.5-1.3c.2.7.2 1.9 0 2.5zM85 384.1c0 1 5.8 8.9 7.3 10 .5.3.2.9-.6 1.2-1.8.7-5.2-2.7-4.3-4.2.4-.5 0-1.3-.7-1.8-.8-.4-1.9-2.3-2.5-4.1-.6-1.9-.7-3-.2-2.7.6.4 1 1.1 1 1.6zm-2.6 3.5c.3.8.2 1.2-.4.9-.6-.3-1-1-1-1.6 0-1.4.7-1.1 1.4.7zm368 6c.3.8.2 1.2-.4.9-.6-.3-1-1-1-1.6 0-1.4.7-1.1 1.4.7zM185.2 397c-.3 1.9 0 3 .8 3 .7 0 1-.8.7-2-.3-1.1-.1-2.2.4-2.5.4-.3 1.1.7 1.4 2.2.3 1.5 1.8 5.3 3.2 8.3 1.5 3 2.7 6.6 2.8 8 .1 1.4.7 4.2 1.4 6.4 1.1 3.1 1.1 4 .1 4.6-1.2.8-1.1 2.4.5 6.1.5 1.4 0 1.7-2.8 1.7-2.3 0-3.4-.5-3.4-1.5 0-.9.7-1.3 1.9-1 1 .3 1.8.2 1.8-.3 0-1.2-2.9-2-3.5-1-.9 1.4-3.7-.1-3.1-1.6.3-.8 0-1.4-.5-1.4-.6 0-.9-.9-.6-2 .5-2.1-.7-2.8-1.8-1-.4.6-.1 1.8.6 2.7 1.1 1.3 1.1 1.5-.5 1.2-2.4-.5-3-4-1.1-5.5 1.3-1 1.3-1.3 0-2.4-1.3-1.1-1.4-1-1 .2.4.9 0 1.8-.9 2.1-1.1.5-1.6-.4-2-3.6-.7-5.9-.5-7.7 1.1-7.7.7 0 1.3-.6 1.4-1.3 0-.6.2-2.1.4-3.2.5-2.3 1.3-8.4 1.4-10.3.1-.6.5-1.2.9-1.2.5 0 .7 1.3.4 3zM96 401.4c0 1.1-1.9 1.5-2.5.6-.3-.5.1-1 .9-1 .9 0 1.6.2 1.6.4zm339.8 5.1c-1.6 1.3-2.8 3-2.8 3.8 0 .7-1.1 2.4-2.4 3.6-2 1.9-2.4 2-2.9.7-.8-1.9.1-4.6 1.5-4.6.9 0 3.3-1.9 7.1-5.6.7-.7 1.4-1 1.7-.7.3.3-.7 1.5-2.2 2.8zm-335.2-.7c-1 .2-2.2 0-2.8-.6-.6-.6 0-.7 1.9-.4 2.1.5 2.3.7.9 1zm3.8 2.8c.5 1.4.4 1.5-.9.4-1.7-1.4-1.9-2-.6-2 .5 0 1.2.7 1.5 1.6zm320.2 5c-3 2.1-4.5 1.6-1.6-.6 1.4-1 2.7-1.6 3-1.3.3.2-.4 1.1-1.4 1.9zM113 416.2c0 .6-.6.5-1.5-.2-.8-.7-1.5-1.4-1.5-1.6 0-.2.7-.1 1.5.2.8.4 1.5 1.1 1.5 1.6zm312.9-.1c-.8.5-2 .9-2.8.9-.8 0-2.3.7-3.3 1.7-1 .9-1.8 1.2-1.8.7 0-1.4 7.2-5.4 8.3-4.7.5.3.3.9-.4 1.4zM163 420c0 .5-.6 1.2-1.2 1.6-.7.4-1 .4-.6-.1.4-.4.3-1.4-.4-2.2-.8-1.1-.7-1.2.6-.7.9.3 1.6 1 1.6 1.4zm6.1.8c-.6.2-.8.9-.4 1.5.5.8.2.8-.9 0-.8-.7-1.8-.9-2.3-.5-.4.4-.2-.3.4-1.6 1-2 1.5-2.1 2.8-1.1 1 .9 1.1 1.5.4 1.7zm9.9.8c0 .8-.4 1.4-1 1.4-.5 0-1-.9-1-2.1 0-1.1.5-1.7 1-1.4.6.3 1 1.3 1 2.1zm-64 2.4c1.3.8 1.3 1-.2 1-.9 0-2-.5-2.3-1-.8-1.3.5-1.3 2.5 0zm44.6 1.7c-.7.7-2.6-.7-2.6-1.9 0-.6.6-.6 1.5.2.9.7 1.3 1.5 1.1 1.7zm7.9.3c.3.5.2 1-.4 1-.5 0-1.3-.5-1.6-1-.3-.6-.2-1 .4-1 .5 0 1.3.4 1.6 1zm6.8.5c-.3.9-.8 1.4-1 1.1-.3-.3-.2-.9.2-1.5.9-1.6 1.5-1.3.8.4zm-10.8.5c.3.6-.1.7-.9.4-1.8-.7-2.1-1.4-.7-1.4.6 0 1.3.4 1.6 1zm15.1.5c1.4 1.3 1.3 1.5-.5 1.5-2.1 0-3.5-1.3-2.4-2.4.9-.9 1.3-.8 2.9.9zm20.7 1.7c.6 2.2.5 2.2-.8.4-1.7-2.2-2-4-.6-3.2.5.3 1.1 1.6 1.4 2.8zm-23.8 1.8c.3.5.2 1-.4 1-.5 0-1.3-.5-1.6-1-.3-.6-.2-1 .4-1 .5 0 1.3.4 1.6 1zm9.7 1c1 0 1.8.4 1.8 1 0 .5-.7.7-1.5.4-.8-.4-1.5-.1-1.5.6s-.5.6-1.5-.4c-.8-.8-1.5-2-1.5-2.7 0-1 .3-1 1.2-.1.7.7 2 1.2 3 1.2zm215.8 1c0 .5-.5 1-1.1 1-.5 0-.7-.5-.4-1 .3-.6.8-1 1.1-1 .2 0 .4.4.4 1zm-3.5 2.9c-.8 1.3-3.5 1.5-3.5.2 0-.5.8-1.1 1.8-1.3 2.1-.5 2.6-.2 1.7 1.1zm-200.1 1.5c-.3.8.9 2.2 3 3.4 2.1 1.3 3.6 2.9 3.5 3.9 0 1.1-.3 1.3-.6.5-.2-.6-1-.9-1.5-.6-.6.4-.8.2-.5-.3.4-.6-.4-1.4-1.9-1.7-2.8-.7-4.8-4.6-3-5.8 1.5-1 1.6-1 1 .6zm191.6.6c0 .5-.2 1-.4 1-.3 0-.8-.5-1.1-1-.3-.6-.1-1 .4-1 .6 0 1.1.4 1.1 1zm4 .7c-.1 1.4-4.9 4.3-5.5 3.4-.3-.5.4-1.2 1.5-1.6 1.1-.3 2-1.1 2-1.6s.5-.9 1-.9c.6 0 1 .3 1 .7zm-51 37c0 .5-1.7.9-3.8 1-2.8.1-3.2-.1-1.7-.7 2.6-1.1 5.5-1.2 5.5-.3zm-144.6 1.2c.3.5 1.5.7 2.6.4 1.1-.3 2 0 2 .6 0 1.4-3.7 1.4-4.5 0-.4-.6-1.3-.8-2.1-.5-.8.3-1.4.1-1.4-.4 0-1.3 2.7-1.3 3.4-.1zm10 5.1c-1.5 1.5-5.6 1.6-6.2.1-.3-1 0-1.2 1.2-.8.9.4 1.4.3 1.1-.2-.3-.5-.1-1.2.5-1.6.6-.4.7-1.2.4-1.8-.4-.7.4-.2 1.7 1 1.5 1.5 2 2.6 1.3 3.3zm63.1 1.9c-.3.6-1.4.9-2.5.8-2.4-.2-1.5-1.7 1.1-1.7 1.1 0 1.8.4 1.4.9zm39.5-.3c0 .8-1.9 1.3-2.4.6-.3-.5.1-.9.9-.9s1.5.2 1.5.3z"/><path d="M241.8 50.2c-.7 1.7 1.7 4.6 2.9 3.4.3-.3.1-.6-.5-.6s-1.2-1-1.4-2.3c-.3-1.8-.4-1.9-1-.5zM238.3 50.7c-.7.2-1.3.9-1.3 1.4 0 .6.5.7 1.1.3.7-.4.9 0 .5 1.4-.4 1.3-.1 2.2.9 2.6.8.3 1.5.1 1.5-.4 0-.6-.5-1-1.1-1-.6 0-.7-.5-.2-1.3 1.8-2.9 1.2-4.1-1.4-3zM272.3 51.7c-1.3.2-2.3.8-2.3 1.3 0 1.2 2.8.6 4.2-.8.7-.7 1-1.1.8-1.1-.3.1-1.5.4-2.7.6zM214.5 58.3c-2.7 2-1 4.2 1.8 2.2 1.2-.8 2.9-1.5 3.9-1.5s1.8-.5 1.8-1.1c0-.6-.7-.8-1.5-.5-.8.3-2.2.9-3.2 1.3-1.1.4-1.4.3-.9-.5.9-1.6.4-1.5-1.9.1zM223.5 59c-.3.5-.1 1 .4 1 .6 0 1.1-.5 1.1-1 0-.6-.2-1-.4-1-.3 0-.8.4-1.1 1zM180.3 68.5c-1.7 1.3-1.6 1.4 1 1.3 3.3-.3 5.6-2.3 2.7-2.5-1-.1-2.6.5-3.7 1.2zM335 68c0 .5.5 1 1.1 1 .5 0 .7-.5.4-1-.3-.6-.8-1-1.1-1-.2 0-.4.4-.4 1zM191.8 70.3c-1.6.6-2.7 1.7-2.5 2.5.1.8-.4 1.7-1.2 2-.8.3-1.1 0-.7-.7 1.1-1.7-1.5-1.3-5.6.8-1.9 1.1-3.8 1.8-4.1 1.5-.2-.3-.7.2-1 1-.3.8 0 2 .8 2.6 1 .8 1.8.6 3.4-1.1 1.1-1.2 1.8-2.5 1.6-2.9-.2-.4 1-.6 2.8-.5 2.4.2 4.1-.6 7-3.1 3.9-3.6 3.9-3.8-.5-2.1zM260 72c-.9.6-1 1-.3 1 .6 0 1.5-.5 1.8-1 .8-1.2.4-1.2-1.5 0zM255 76.2c-1.2 2.2-1.2 2.2.6.6 1-1 1.5-2 1.2-2.4-.4-.3-1.2.5-1.8 1.8zM173 79.7c-.8.3-1.8 1.1-2.2 1.7-.4.6-1.3 1.1-2 1.1-1.7.1-6.8 2.7-6.8 3.4 0 .4.9.7 2 .7s2-.6 2-1.2c0-.7.7-1.4 1.5-1.8.8-.3 1.5-.1 1.5.4 0 .6.7 1 1.5 1s1.5-.4 1.5-.9 1.2-1.2 2.6-1.5c1.4-.4 2.4-1.2 2.2-1.8-.5-1.4-1.8-1.8-3.8-1.1zM286 84.1c0 .5.5.7 1 .4.6-.3 1-.8 1-1.1 0-.2-.4-.4-1-.4-.5 0-1 .5-1 1.1zM154.6 85.6c-.9.8-2 1.3-2.5.9-1.1-.6-2.5 1.2-2.6 3.7-.2 1.7-.1 1.7 1.9.1 1.2-1 2.5-2.4 2.9-3.1.5-.7 1.2-1 1.7-.7.4.3 1-.2 1.4-1 .7-2-.8-1.9-2.8.1zM288.8 86.2c1.8 1.8 1.4 3.2-.5 1.7-1.5-1.2-1.6-1.2-1 .3.8 2.2-.5 2.3-4.4.2-2.9-1.5-3.1-1.4-5 1.1-1.2 1.4-2.5 2.3-3 2-.5-.4-.9-.2-.9.3 0 .8-3.5 2.3-4.3 1.9-.2-.1-1.8 1-3.6 2.6-1.8 1.5-3.7 2.5-4.1 2.2-.5-.3-1.2 0-1.6.6-.4.8-.3.9.4.5s1.2-.3 1.2.3.6.8 1.4.5c1.5-.6 1.5.4.3 4.2-.6 1.6-1.3 2-3.2 1.6-2-.3-2.3-.7-1.4-1.8.9-1.1.8-1.4-.5-1.4-1.1 0-1.4-.4-1-1.3.5-.7 0-.6-1.1.3-1 .8-2.5 3.1-3.3 5-1.3 3.1-1.5 3.3-2.7 1.7-.6-.9-1.5-1.4-1.9-1-.4.4-.4 0 0-1 .3-1 .1-1.7-.6-1.7-.6 0-.9-.4-.6-.8.8-1.4-5.4-3.6-6.7-2.3-.8.8-.5 1.1 1.1 1.1 1.2 0 2.2.5 2.2 1.1 0 .5.5.7 1 .4.6-.3 1 0 1 .9 0 .8-1.5 2.3-3.2 3.5-1.8 1.1-4.4 3-5.8 4.3-1.3 1.3-2.9 2.3-3.5 2.4-1.8.1-8.5 3.7-8.5 4.6 0 .4.9.8 2 .8s2 .4 2 1c0 .5-.8 1-1.8 1-1.1 0-2.4 1.2-3.1 2.7-.8 1.6-1.7 3.5-2.2 4.4-.8 1.7-.3 2.9 1.2 2.9.4 0 1-1 1.2-2.3l.4-2.2.2 2.3c.1 1.6-.7 2.5-2.5 3.2-1.9.8-2.5 1.6-2.1 3 .6 2.3-1.1 2.7-1.9.5-.3-.8.2-2.2 1.1-3.1 1.6-1.6 1.5-1.8-.6-2.9-1.8-1-2.5-1-3.6 0-1.5 1.5-1.8 2.9-.4 2.1.5-.4.7.3.4 1.5-.4 1.6-.8 1.7-1.4.7-.7-1-.9-1-.9-.1 0 .7-.5 1.3-1.1 1.3-.6 0 .1-2 1.5-4.5 2.7-4.5 2.6-6.1-.1-2.8-1.2 1.6-1.3 1.5-.8-1.2.5-2.8.5-2.9-.6-.8-.7 1.3-1.7 2.3-2.3 2.3-.6 0-.4.4.3.9 1.3.8 1.2 1.5-.4 4.5-1 1.9-2.2 3.3-2.6 3-.9-.5-.6 1.7.4 3.3.4.6.2 1.5-.4 1.9-.8.4-.9.3-.5-.4s.1-1.2-.7-1.2c-.9 0-1.3 1.2-1.3 3.7.1 2.4-.4 3.8-1.4 4-1.3.4-1.3.3 0-.7 1.1-.8 1.2-1.3.3-1.6-1.4-.6-.7-5.5 1.4-9.7.8-1.6 1.2-3.1.9-3.4-1.2-1.2-3.9 6.6-4 11.7-.1 3-.5 6.1-1 6.8-1 1.7.2 1.5 2.1-.3 2.4-2.4 2.8-.9.4 1.6-1.4 1.6-2.1 3.6-2.1 6.3 0 3 .3 3.7 1 2.6.6-.9 1-1 1-.3 0 .6-.4 1.5-1 1.8-.5.3-1 1.5-1 2.6 0 1-.4 1.9-1 1.9-.5 0-1 .5-1 1.1 0 .5.5.7 1 .4.6-.3 1 .3 1 1.4 0 1.2-.5 2.1-1.1 2.1-.5 0-.7.5-.3 1.2.5.8.2.9-.9.5-1-.3-1.7-.2-1.7.3 0 .6.6 1 1.4 1 .8 0 1.8.5 2.2 1.1.5.8-.1 1-2 .7-1.8-.4-2.6-.1-2.6.8 0 .8-.5 1.4-1 1.4-.6 0-.8-1.2-.6-2.6.4-2.1.3-2.4-.9-1.4-1.3 1-1.3 1.6 0 4 1 2 1.1 3 .2 3.9-.8.8-.8 1.1.1 1.1.6 0 .9.7.6 1.5-.4.8-.1 2.1.5 2.9.6.7.8 1.5.5 1.9-.3.3-.1 1.4.5 2.4 1 1.6 1.1 1.4 1-1.2-.2-4.9 0-5.4 2.1-5.2 1.2.1 2 .8 2 1.9 0 2.3 2 3.4 2.1 1.1.1-1 0-2.2-.1-2.8-.1-.5.2-.6.6-.2 1.1 1.1 1.4 8.7.3 8.7-.5 0-.9-.7-.9-1.5s-.4-1.5-.9-1.5-.8 1.4-.6 3.1c.5 3.5 5.3 14.5 6 13.7.3-.3-.4-2.5-1.5-4.9-2.1-4.8-2.8-8.9-.8-5.4.6 1.1 1.6 2.3 2.2 2.7.6.4.8.8.3.8-.4 0 .5 1.8 1.9 4 2.1 3.2 3 3.8 4 2.9 1.1-.9 1.4-.8 1.4.5 0 .9.9 2.7 2 3.8 1.5 1.6 1.7 2.4.8 2.9-.9.6-.7 1 .7 1.4 1.1.3 3.2 1.2 4.7 2 2.5 1.2 2.9 1.2 3.9-.3.9-1.4 1-1.4.6-.1-.7 2.1-.1 2.8 5.3 6.5 5.3 3.7 9 5.1 9 3.4 0-.9.7-.8 2.3.2 2.3 1.6 7.3 1.4 9.3-.3.8-.7 1.4-.6 1.9.1 1.1 1.8 2 1.1 2-1.5 0-2.4-.6-2.9-3.2-2.6-.7.1-1.3-.5-1.3-1.3s.6-1.6 1.3-1.9c.6-.2.9-.7.6-1.1-.4-.4-2.1 1.3-3.9 3.7-3.4 4.8-4.8 5-9.7 1.7-3.5-2.3-2.8-3 2.6-2.7 2.9.1 4.9-.2 4.8-.8-.1-.6.4-.9 1.1-.8.6.2 1.2-.2 1.2-.7 0-.6-.7-1-1.5-1s-1.5.4-1.5.8c0 .5-1.5.7-3.2.6-1.8-.1-4.2-.3-5.3-.3-1.1-.1-2.6-1-3.2-2.1-1.1-1.6-1-1.8.2-1.4.8.4 1.5 1 1.5 1.4 0 2.2 11.1-.9 17.7-4.9 4.1-2.5 6.3-5.1 4.3-5.1-.6 0-1 .4-1 1 0 1.1-8 5.4-8 4.3 0-.5-.5-.1-1 .7-.7 1.2-1.2 1.2-2.2.2-1.7-1.7-3.3-1.5-1.9.2 1 1.2.5 1.5-2.9 2.1-2.6.4-4.6.3-5.5-.5-.8-.6-2.6-1.3-4-1.5l-2.6-.2 2 2.1c2.6 2.8 2.6 3.1-.1 3.3-1.8.2-2 0-.8-.7 1.4-.9.7-1.4-1.3-1.1-.4.1-1.5-.6-2.4-1.5-1.3-1.2-1.4-1.7-.3-2.4.7-.4 1-1.4.8-2.1-.3-.9-1.1-.2-2.2 1.8-1.9 3.9-3 4.4-1.6.9.9-2.4-.9-5.4-2.3-3.9-.6.6-3.9-2.5-7.8-7.4-1-1.2-2-3.5-2.4-5.2-.4-1.7-1.1-3.1-1.6-3.1-.6 0-.5.8.1 2 .6 1.1.7 2 .2 2-1.1 0-4.4-8.2-3.6-8.9.4-.3.9 0 1.1.6.8 2.2 2.1 1.4 1.5-.9-.4-1.6-.2-1.9.8-1.3 1 .6 1.2.4.7-.8-1.6-4-1.9-5.2-.9-3.8.8 1.1 1.1 1.1 1.4-.5.3-1.5.8-1.3 3.5 1.6 2.1 2.3 3.1 4.1 2.7 5.2-.3 1 0 1.8.6 1.8s.8-.5.5-1c-.8-1.3 3.3-.9 5.5.5.8.5 2.7 1 4.1 1.1 3.1.2 11.9 4.3 11.9 5.6 0 1.1-1.7 1-2.2-.1-.1-.5-1.6-1.1-3.3-1.5-2.9-.6-3-.5-2.9 2.6 0 1.7.6 3.4 1.2 3.6.7.2 1.2 1 1.2 1.7s1 1.5 2.1 1.8c1.5.4 2 1.2 1.7 2.4-.4 1.5.1 1.8 3.1 1.8 2 0 5.2.3 7.2.7 2.7.5 4.1.1 6-1.4 2.1-1.7 2.1-1.8.2-.9-2.8 1.4-5.5 1.4-3.1.1 1.6-1 5.1-1.7 11.1-2.4 1.5-.1 3-.6 3.5-1.1.4-.4-.2-.5-1.3-.1s-1.6.3-1.1-.1c.4-.4 1.5-.8 2.4-.9 4.4-.2 8.3-1.7 7.8-3-.7-1.7.6-1.8 2.3-.2 1.1 1.1 1.4 1 1.8 0 .3-.6.9-.9 1.4-.6.6.3 1.7 0 2.6-.7 1.3-1.2 1.5-1.1 1.1.6-.2 1.2-1.1 1.9-2.1 1.9-1.1-.1-1.6.4-1.5 1.4.2.9-.3 1.7-.9 1.8-2.4.3-2.5.4-1.5 1.7.8.9.2 2-1.9 4.1-1.6 1.6-2.6 3.2-2.3 3.5.3.3 3.7-2.7 7.5-6.8 6.1-6.6 7-7.3 8.6-6 .9.8 1.4.9 1 .2-.9-1.5.2-4.5 1.5-3.7.5.3.8 0 .6-.7-.3-1.8 4.1-10.9 5.3-10.9.5 0 1.2 0 1.6.1.4 0 1.1-.9 1.5-2.1.4-1.2 1.2-1.8 1.8-1.5.5.3 1 0 1-.8s.7-2 1.6-2.8c1.5-1.2 9.4-16 9.4-17.6 0-.4-.8.4-1.7 1.7-2.8 4-4.7 6-5.6 6-.5 0 .1-1.3 1.2-2.9 1.1-1.5 1.8-3.1 1.5-3.4-.3-.3.5-2.4 1.7-4.8s2.4-7 2.7-10.2c.4-5.1.2-5.9-1.5-6.3-1.4-.4-2-1.5-2.2-4.6-.1-2.3-.7-5-1.2-6.1-.8-1.4-.8-1.7 0-1.3 1.5 1 1.4.5-.6-3.5-1-1.9-1.9-4.2-2-5.2-.2-1-1-2.8-1.9-4.2-1.8-2.7-2.6-9.2-1.3-10.1.5-.3.5-1.3-.1-2.5-.7-1.3-.7-1.9 0-1.9 1.7 0 1.1-5.6-.9-7.4-2.7-2.4-3.4-5.6-1.3-5.6 1.3-.1.9-.7-1.2-2.4-3.2-2.6-5.9-2.5-4.8.2.5 1.5.3 1.5-1.1.4-.8-.8-1.3-2-1-2.8.3-.9-.5-1.7-2.2-2.4-3.5-1.3-4.2-1.3-2.7.2zM287 92c0 .5-.2 1-.4 1-.3 0-.8-.5-1.1-1-.3-.6-.1-1 .4-1 .6 0 1.1.4 1.1 1zm7.4 1.6c1.1 2.8.6 5.4-.9 5.4-.8 0-1.5.5-1.5 1 0 .6.6 1 1.4.8.8-.2 1.5 0 1.5.4.2 2.3 0 2.7-1.4 2.2-1.1-.5-1.3-.2-.9 1 .3.9.1 1.6-.5 1.6s-1.2-.3-1.2-.8c-.8-5.4-.6-6.8 1.2-8.5 1.6-1.5 1.8-2.2.8-3.3-.7-.8-.7-1.4-.1-1.4.5 0 1.3.7 1.6 1.6zM281 95.7c1.7 1.2 2.5 1.3 2.8.5.6-2 1.7-1.4 3.4 2 2.2 4.4 3.6 9.1 3.1 10.4-.5 1.4-4.3.6-4.3-.8 0-.6.7-.8 1.5-.4 2.8 1 1.5-1.2-1.4-2.5-2.5-1.1-2.9-1.8-2.5-4.4.3-2.5.2-2.6-.4-.6-1.1 3.7-3.8 5-5.5 2.7-1.3-1.7-1.5-1.7-4.4-.2-2.6 1.3-3.2 1.3-3.6.2-.4-1 0-1.2 1.5-.8 1.5.3 1.9.1 1.6-.9-.6-1.7-5.4-1.9-5-.2.1.7-.2 1.3-.8 1.3-3.2 0 2-5.9 5.3-6 .9 0 1.7-.5 1.7-1 0-1.6 4.3-1.2 7 .7zm10 .3c0 .5-.4 1-1 1-.5 0-1-.5-1-1 0-.6.5-1 1-1 .6 0 1 .4 1 1zm10 2.4c0 .3-.4.8-1 1.1-.5.3-1 .1-1-.4 0-.6.5-1.1 1-1.1.6 0 1 .2 1 .4zm-2.8 7.6c-.2.7.3 1 1.1.7 1-.4 1.7.3 2.1 2.1.3 1.5.8 3.7 1.2 4.9.4 1.4.2 2.3-.5 2.3-.6 0-1.1-.6-1.1-1.4 0-.7-.6-2.5-1.3-3.9-1.3-2.5-1.5-2.5-3.2-.9-1 .9-1.5 1.2-1.2.7.3-.6.2-1.7-.3-2.5-.5-.9-.5-2 .2-2.7 1.3-1.6 3.4-1.1 3 .7zm-54.2 5.5c-.7.8-1.6 1.5-2.1 1.5s-.6-.7-.3-1.5c.4-.8 1.3-1.5 2.1-1.5 1.3 0 1.3.3.3 1.5zm6-1.1c0 .3-.4.8-1 1.1-.5.3-1 .1-1-.4 0-.6.5-1.1 1-1.1.6 0 1 .2 1 .4zm-17.3 8.7c-.6 1-1.3 1.5-1.5.9-.6-1.7.7-4.2 1.8-3.5.6.4.5 1.3-.3 2.6zm-2.7-.1c0 .5-.5 1-1.1 1-.5 0-.7-.5-.4-1 .3-.6.8-1 1.1-1 .2 0 .4.4.4 1zm-19 20.5c0 .8-.4 1.5-1 1.5-.5 0-.7-.7-.4-1.5.4-.8.8-1.5 1-1.5.2 0 .4.7.4 1.5zm7.3-.1c.4 1 .1 1.3-.9.9-.9-.3-1.4.2-1.4 1.5 0 1.2-.4 2.4-1 2.7-1.3.8-1.3-.6 0-3.9 1.1-2.9 2.5-3.4 3.3-1.2zm88.7-.4c0 .5-.2 1-.4 1-.3 0-.8-.5-1.1-1-.3-.6-.1-1 .4-1 .6 0 1.1.4 1.1 1zm6 8.4c0 .3-.4.8-1 1.1-.5.3-1 .1-1-.4 0-.6.5-1.1 1-1.1.6 0 1 .2 1 .4zM204 158c0 .5-.5 1-1.1 1-.5 0-.7-.5-.4-1 .3-.6.8-1 1.1-1 .2 0 .4.4.4 1zm-4.6 24.5c-.3.7-1.2 1.1-1.9.8-1.1-.4-1.2-.8-.2-1.8 1.5-1.6 2.8-1 2.1 1zm9.6 5.5c0 1.1-.4 2-.8 2s-.8-.9-.9-2c-.1-1.1.2-2 .8-2 .5 0 .9.9.9 2zm36.5 12.8c-.3.3-1.1 0-1.8-.7-.9-1-.8-1.1.6-.5 1 .3 1.5.9 1.2 1.2zm34 .2c-.3.5-1.2 1-1.8 1-.7 0-.6-.4.3-1 1.9-1.2 2.3-1.2 1.5 0zm-41.1 1.6c.5 1.4.4 1.5-.9.4-1.7-1.4-1.9-2-.6-2 .5 0 1.2.7 1.5 1.6zm-2.4.9c1.1 1.3 1 1.4-.4.9-.9-.3-1.6-1-1.6-1.5 0-1.3.6-1.1 2 .6zm37 .5c0 .5-.4 1-1 1-.5 0-1-.5-1-1 0-.6.5-1 1-1 .6 0 1 .4 1 1zm-21 4c0 .5-.5 1-1.1 1-.5 0-.7-.5-.4-1 .3-.6.8-1 1.1-1 .2 0 .4.4.4 1zm-28 8c0 .5-.4 1-1 1-.5 0-1-.5-1-1 0-.6.5-1 1-1 .6 0 1 .4 1 1zm14.4 11.6c4 3.6 2.8 3.8-1.8.3-2.2-1.6-3.3-2.9-2.5-2.9.8 0 2.7 1.2 4.3 2.6zM252 230c-1.8 1.1-2.2.7-1.4-1.4.5-1.3 1-1.4 1.8-.6.8.8.7 1.3-.4 2z"/><path d="M273 98c0 .5.5 1 1 1 .6 0 1-.5 1-1 0-.6-.4-1-1-1-.5 0-1 .4-1 1zM271.8 86.7c1 .4 1 .8.1 1.9-1.5 1.8-.2 1.8 1.6 0 1.6-1.5 1-2.6-1.4-2.5-1.1 0-1.2.2-.3.6zM161 94c-.9.6-1 1-.3 1 .6 0 1.5-.5 1.8-1 .8-1.2.4-1.2-1.5 0zM264 94.4c.7.7 1.4.6 2.1-.1.9-.9.7-1.2-.9-1-1.4.1-1.8.5-1.2 1.1zM151 95c0 .5.7.7 1.5.4.8-.4 1.5-.8 1.5-1 0-.2-.7-.4-1.5-.4s-1.5.4-1.5 1zM260 96.1c0 .5.5.7 1 .4.6-.3 1-.8 1-1.1 0-.2-.4-.4-1-.4-.5 0-1 .5-1 1.1zM302 95.8c0 .5.7 1.5 1.5 2.2.8.7 1.5.8 1.5.2 0-.5-.7-1.5-1.5-2.2-.8-.7-1.5-.8-1.5-.2zM246 97.1c0 .5.5.7 1 .4.6-.3 1-.8 1-1.1 0-.2-.4-.4-1-.4-.5 0-1 .5-1 1.1zM224.8 98.7c-2.9 3.4-3.2 4.6-1 3.2 1.2-.7 2.3-2.1 2.5-3.1.6-2.2.4-2.3-1.5-.1zM254 99.9c-.8.6-1.8.7-2.2.5-.4-.3-.8 0-.8.5 0 1.6 2.6 1.3 4-.4 1.4-1.7 1.1-1.9-1-.6zM157.4 103.2l-1.9 2.3 2.3-1.9c2.1-1.8 2.7-2.6 1.9-2.6-.2 0-1.2 1-2.3 2.2zM143.4 103.5c-1 .7-1.5 1.7-1.1 2.1.4.5 1.1.4 1.5-.2.4-.6 1.4-1.3 2.2-1.6.9-.3 1-.7.3-1.1-.5-.3-1.9 0-2.9.8zM251.5 104c-.3.5-.1 1 .4 1 .6 0 1.1-.5 1.1-1 0-.6-.2-1-.4-1-.3 0-.8.4-1.1 1zM237.4 105.5c-1 .8-1.4 1.5-.8 1.5.6 0 1.7-.7 2.4-1.5 1.6-1.9.9-1.9-1.6 0zM150 109.9c-5 5.8-5.2 6.3-1.3 3.1 3.9-3.3 5.2-5.1 3.6-4.9-.5 0-1.5.8-2.3 1.8zM122 110c0 .5.7 1 1.6 1 .8 0 1.2-.5.9-1-.3-.6-1-1-1.6-1-.5 0-.9.4-.9 1zM118.5 111c.4.6 1.1.8 1.6.5 1.4-.9 1.1-1.5-.7-1.5-.8 0-1.2.5-.9 1zM129.1 113.6c-1.9 1.9-3 3.4-2.6 3.4 1.3 0 7.5-5.9 6.7-6.4-.4-.2-2.3 1.1-4.1 3zM110.5 112c.3.5 1.1 1 1.6 1 .6 0 .7-.5.4-1-.3-.6-1.1-1-1.6-1-.6 0-.7.4-.4 1zM124.6 112.5c-1 1-2.4 1.4-3.3 1-1-.3-1.4-.3-1 .1 1.1 1.1-4.3 6.3-5.9 5.7-.8-.3-1.4-.1-1.4.4s-1.8 1.9-4 3.2c-5.2 2.9-5.2 3.8 0 1.1 3.7-1.9 4-1.9 4.9-.2.6.9 1.1 1.2 1.1.5 0-.6-.5-1.5-1-1.8-.6-.4-.8-1.1-.4-1.6.3-.5 1-.7 1.5-.3.5.3 3.3-1.4 6.2-3.7 2.8-2.4 5.4-4.4 5.6-4.6.2-.2.2-.5-.1-.8-.3-.3-1.3.1-2.2 1zM213.2 113.7c-3.7 5.3-9.2 17.2-8.2 17.8.6.3 1 .1 1-.5 0-1.7 7.1-16 8-16 .4 0 1-.9 1.3-2 .7-2.7.2-2.5-2.1.7zM230.7 112.1c-.9.6-1.5 1.4-1.2 2 .4.5 1.3.2 2.2-.6 1.9-2 1.4-2.7-1-1.4zM225 113.1c0 .5.5.7 1 .4.6-.3 1-.8 1-1.1 0-.2-.4-.4-1-.4-.5 0-1 .5-1 1.1z"/><path d="M116.3 115.5c-2.1 2.4-1.4 4 .7 1.7 1.1-1.2 2-2.4 2-2.7 0-1-1.5-.4-2.7 1zM223.5 116.1c-4.6 2.3-8.3 12.1-5.3 14 1.7 1.1 3.7-.8 3.1-2.9-.2-.9.4-2.6 1.5-3.7 1-1.1 1.7-2.5 1.5-3.1-.2-.5.6-2 1.7-3.2 2.2-2.3 1-2.8-2.5-1.1zM214.3 117.9c-1 1.5-.9 2 .2 2.5.8.3 1.7.1 2-.4.4-.6.1-1-.6-1-.8 0-.8-.4.1-1.5.7-.8.8-1.5.4-1.5-.5 0-1.5.9-2.1 1.9zM213.7 123.4c-.3.8.1 2 .9 2.6 1 .9 1.4.9 1.4.1 0-.6-.4-1.1-1-1.1-.5 0-.7-.7-.4-1.5.4-.8.4-1.5.1-1.5-.3 0-.7.6-1 1.4zM104.8 129.8c.3.9.1 1.3-.5.9s-1.6 0-2.3.8c-.9 1-.9 1.5-.1 1.5.6 0 1.1-.5 1.1-1.1 0-.5.4-.8.9-.4.6.3 1.4-.3 2-1.3.7-1.4.6-1.9-.4-1.9-.7 0-1.1.7-.7 1.5zM94.7 160c-.9 1.1-1.3 2-.7 2 .5 0 1.4-.9 2-2 .6-1.1.9-2 .8-2-.2 0-1.1.9-2.1 2zM194.1 172c.6 1.6 1.5 2.7 2 2.4 1.3-.8 1.1-2.3-.5-4-2.2-2.1-2.6-1.7-1.5 1.6zM103.5 171.1c-.4.6-.5 1.2-.2 1.5.2.3.7-.2 1-1.1.7-1.7.1-2-.8-.4zM305.5 184c-.3.5-.1 1 .4 1 .6 0 1.1-.5 1.1-1 0-.6-.2-1-.4-1-.3 0-.8.4-1.1 1zM83.9 185.7c-1.3 1.6-1.2 1.7.4.4.9-.7 1.7-1.5 1.7-1.7 0-.8-.8-.3-2.1 1.3zM198.3 192.9c.4 5.5 1.7 6.5 1.7 1.3 0-2.2-.5-4.4-1-4.7-.7-.4-.9.9-.7 3.4zM83.5 195c-.3.5-.1 1 .4 1 .6 0 1.1-.5 1.1-1 0-.6-.2-1-.4-1-.3 0-.8.4-1.1 1zM221.5 196.2c-1.1.6-2.4 1.7-2.8 2.5-.4.7-1.4 1.3-2.2 1.3-.8 0-1.7.5-2.1 1.2-.5.7-.3.8.6.3.7-.4 1.6-.2 2.1.6.6 1 .9 1.1.9.1 0-1.4 3.6-5.2 5-5.2.6 0 1-.5 1-1 0-1.2 0-1.2-2.5.2zM228.5 200c.4.6 1.1.8 1.6.5 1.4-.9 1.1-1.5-.7-1.5-.8 0-1.2.5-.9 1zM199.6 203.5c-.3.9-.2 1.3.4 1 .9-.5 1.3.3 1.2 2.5 0 .3 1.4 1.8 3.1 3.5l3 3-2.2-2.9c-1.1-1.6-2.1-3.4-2.1-4 0-.6-.7-1.9-1.4-2.9-1.2-1.6-1.4-1.6-2-.2zM219 203.1c0 .5.5.7 1 .4.6-.3 1-.8 1-1.1 0-.2-.4-.4-1-.4-.5 0-1 .5-1 1.1zM226.5 203c-.3.6-.1 1 .5 1s.8.4.5 1c-.3.5.3 1 1.4 1 2.6 0 2.7-1.2.1-2.7-1.2-.8-2.1-.9-2.5-.3zM343 203c0 .5.5 1 1.1 1 .8 0 .8.5-.1 1.5-.7.8-.8 1.5-.4 1.5.5 0 1.5-.9 2.2-2.1.8-1.2.9-1.8.3-1.4-.6.3-1.1.1-1.1-.4 0-.6-.4-1.1-1-1.1-.5 0-1 .4-1 1zM70.6 204.6c-.4.9-.4 1.9-.1 2.2.3.3.5 0 .5-.6 0-.7.3-1.1.8-1 .4.2.8-.1 1-.7.6-1.7-1.5-1.6-2.2.1zM75.1 205.9c-.7.5-1.1 1.3-.7 1.9.3.6.1 1.4-.5 1.7-.5.4-.8 1.4-.5 2.2.5 1.1.1 1.3-1.7.8-1.6-.5-1.8-.4-.8.4 1.2.7 1.3 1.5.4 3.4-.7 1.5-.8 2.9-.2 3.8.8 1.2 1.2 1.1 2.5-.6.9-1.2 1.1-2.1.4-2.3-.6-.2-.4-1.5.5-3.3.9-1.6 1.5-3.1 1.5-3.4-.1-2.6.1-2.9.9-1.6.6 1 1 1 1.6.1 1-1.7-1.7-4.1-3.4-3.1zM221.5 207.4c-1.1.8-1.4 1.5-.8 1.9.6.4 1.6 0 2.3-.8 1.7-2.1.8-2.8-1.5-1.1zM346 207c0 .5.5 1 1 1 .6 0 1-.5 1-1 0-.6-.4-1-1-1-.5 0-1 .4-1 1zM339.5 208.1c-.4.6-.5 1.3-.2 1.6.7.7 2.7-.6 2.7-1.8 0-1.2-1.7-1.2-2.5.2zM270 213c-.9.6-1 1-.3 1 .6 0 1.5-.5 1.8-1 .8-1.2.4-1.2-1.5 0zM259 218c-1.2.7-1 .9.7.7 1.2 0 1.9-.5 1.7-.9-.6-1-.6-1-2.4.2zM256 221c0 1.3 1.8 2.2 2.4 1.1.3-.5-.1-1.1-.9-1.5-.8-.3-1.5-.1-1.5.4zM227 227.5c0 .9 4.4 2.3 5.4 1.7.5-.3.1-.9-1-1.3-2.3-.9-4.4-1.1-4.4-.4zM75.5 243.9c-.3.5-.1 1.2.5 1.6.5.3 1-.1 1-.9 0-1.8-.6-2.1-1.5-.7zM237.1 249.6c0 1.1.3 1.4.6.6.3-.7.2-1.6-.1-1.9-.3-.4-.6.2-.5 1.3zM295.8 250.1c-1 .5-1.8 1.6-1.8 2.3 0 1.4-3 2.6-6.5 2.6-1.2 0-2.7.6-3.3 1.2-.7.7-2.3 1.4-3.5 1.4-3.2.2-12.6 4-14.8 6-1 .9-1.6 2.1-1.2 2.7.3.6.1.7-.5.3-.7-.4-1.2-.4-1.2.1 0 1.4-5.8 4.3-6.3 3-.2-.6-1.3-.1-2.6 1.2-2.6 2.6-2.2 3.8.7 2.2 1.3-.7 2.2-.7 3 .1.9.9 1.2.8 1.2-.5 0-.9.5-1.7 1.1-1.7.5 0 .7.5.3 1.2-.4.7-.3.8.5.4.6-.4.9-1.2.6-1.7-.4-.5.3-.9 1.5-.9 1.1 0 2.8-.9 3.8-2.1 2.6-3.1 6.7-4.9 10.1-4.5 1.7.2 3.9-.3 4.8-1 1-.7 1.3-1.4.6-1.4-.6 0-1.5.5-1.8 1-.4.7-1.2.7-2.5 0-1-.5-2.7-.7-3.7-.3-1 .3-1.5.2-1-.2.4-.5 2.4-1 4.5-1.2 6.3-.5 7.1-.7 6.6-1.4-.2-.4 3.9-2.2 9.2-4 5.2-1.8 10.3-3.9 11.2-4.6.9-.7-.7-.4-3.6.7-6.1 2.3-6.2 2.3-6.2 1 0-.6.6-1 1.4-1 .8 0 1.8-.5 2.1-1 .8-1.3-.5-1.2-2.7.1zm-14.8 8.3c0 .2-.7.7-1.6 1-.8.3-1.2.2-.9-.4.6-1 2.5-1.4 2.5-.6zM277.5 256c-.3.6.1.7.9.4 1.8-.7 2.1-1.4.7-1.4-.6 0-1.3.4-1.6 1zM76.5 259c-.3.5.1 1 .9 1 .9 0 1.6-.5 1.6-1 0-.6-.4-1-.9-1-.6 0-1.3.4-1.6 1z"/><path d="M270.4 265.9c-.5.3-1 1.4-1 2.4-.2 1.7 0 1.7 1.5.3 1-.9 2.3-1.6 2.9-1.6.6 0 1.3-.3 1.5-.8.6-.9-3.7-1.2-4.9-.3zM89.4 306.2c.3 1.8 1.2 5.3 2.1 7.8.9 2.5 1.8 5 1.9 5.7.1.7.6 1.6 1.1 2 .4.4.5-.3.1-1.7s-1.2-4.3-1.7-6.5-1.1-4.7-1.3-5.5c-.3-.8-.5-2.3-.5-3.3-.1-.9-.6-1.7-1.2-1.7s-.8 1.3-.5 3.2zM85.3 327.5c0 .8.4 1.2.9.9.4-.3.8-.9.8-1.5 0-.5-.4-.9-.8-.9-.5 0-.9.7-.9 1.5zM90.2 328.7c1.9 4.4 2.8 5 1.6 1-.6-2.1-1.5-3.7-1.9-3.7-.5 0-.3 1.2.3 2.7zM92.5 345.9c-.3.5-.2 1.2.3 1.5.5.3.9-.1.9-.9 0-1.7-.3-1.9-1.2-.6zM176 397c0 .5.5 1 1.1 1 .5 0 .7-.5.4-1-.3-.6-.8-1-1.1-1-.2 0-.4.4-.4 1zM120 105.1c0 .5.5.7 1 .4.6-.3 1-.8 1-1.1 0-.2-.4-.4-1-.4-.5 0-1 .5-1 1.1zM277 369.5c0 1.4.4 2.5.8 2.5s.8-1.1.8-2.5-.4-2.5-.8-2.5-.8 1.1-.8 2.5zM279.5 396.1c.4.5 1.6.9 2.7.9 2.6 0 1.9-.9-1.1-1.5-1.2-.2-1.9 0-1.6.6zM320.5 412c-.3.6.1.7.9.4 1.8-.7 2.1-1.4.7-1.4-.6 0-1.3.4-1.6 1zM185.7 405.9c-1.8 1.1-2.5 2.1-2.1 3.1.4.8.9 2.8 1.2 4.5.4 2.6.6 2.7 1.2 1 .4-1.1.3-2.8-.2-3.9-.7-1.3-.6-2.3.7-3.5 1.5-1.5 1.6-1.4.9 1.3-.5 2.1-.4 2.8.6 2.4 1.4-.4 2.1-4.1 1.1-5.6-.3-.5-1.8-.1-3.4.7zM181.3 413.2c-.2 1.8 0 2 .7.8 1.2-1.8 1.3-3 .2-3-.4 0-.9 1-.9 2.2zM187.3 415.9c.3 1.3-.1 2.1-1.2 2.4-1.4.4-1.4.5.1.6 1.1.1 1.8 1.2 2.1 3.3.2 2 .4 1.1.5-2.5.1-3.6-.2-5.7-.9-5.7-.6 0-.9.9-.6 1.9zM205 481c0 .5.5 1 1.1 1 .5 0 .7-.5.4-1-.3-.6-.8-1-1.1-1-.2 0-.4.4-.4 1zM305.5 12c-.8 1.3.5 1.3 2.5 0 1.3-.8 1.3-1-.2-1-.9 0-2 .4-2.3 1zM234.5 13l-2 .9h2c1.1 0 2.7-.4 3.5-.9 1.3-.9 1.3-1 0-.9-.8 0-2.4.4-3.5.9zM313.7 12.7c-1.2 1.2-.7 2 2.1 3.2 2.5 1 2.6 1 .8-.4-2.5-1.9-1.4-3 1.4-1.5 1.2.6 2.4.9 2.7.6.3-.3-.6-1-2.1-1.6-3.2-1.2-4-1.2-4.9-.3zM283 15c-.9.6-1 1-.3 1 .6 0 1.5-.5 1.8-1 .8-1.2.4-1.2-1.5 0zM333 22.9c0 .5.5 1.3 1 1.6.6.3 1 .2 1-.4 0-.5-.4-1.3-1-1.6-.5-.3-1-.2-1 .4zM345.6 28.8c-.3.5 1.7 2.1 4.4 3.5 5 2.6 7 2.4 2.8-.2-1.3-.8-3.3-2-4.5-2.8-1.2-.8-2.4-1-2.7-.5zM152.6 38.6c-1.1.8-1.6 1.4-1 1.4 1.3 0 3.9-1.8 3.4-2.4-.3-.2-1.4.2-2.4 1zM149 48c-.8.5-1.1 1.2-.7 1.6.4.4 1.5 0 2.4-.9 1.8-1.8.8-2.3-1.7-.7zM142.5 51c-.3.5-.2 1 .4 1 .5 0 1.3-.5 1.6-1 .3-.6.2-1-.4-1-.5 0-1.3.4-1.6 1zM137.4 53.5c-1 .8-1.4 1.4-.9 1.5 1.5 0 4-1.8 3.4-2.4-.3-.3-1.4.1-2.5.9zM121 53.7c-.8.3-2.6 1-3.9 1.5-1.3.5-2.2 1.1-1.9 1.3.3.3 2.5-.3 4.9-1.4 4-1.8 4.6-2.8.9-1.4zM120 56.6l-2.5 1.5 2.5-.7c1.4-.3 2.9-1 3.5-1.5 1.5-1.4-.7-1-3.5.7zM131.5 57.2c-8.2 2.9-10 3.9-8.5 4.8.9.5 1.9.5 2.7-.2.8-.6 1.6-.8 2-.5.3.4 1.8-.2 3.3-1.3 1.6-1.1 3.3-2 3.9-2 .6 0 1.1-.5 1.1-1 0-1.2-.6-1.2-4.5.2zM109.9 59.1l-2.4 2 2.8-1.7c1.5-.9 2.7-1.8 2.7-2 0-.8-.8-.4-3.1 1.7zM104.6 63.6c-1.7 1.2-1.7 1.4-.4 1.4.9 0 2-.5 2.3-1.1 1.1-1.7.2-1.8-1.9-.3zM118 63.4c.7.7 1.3.7 2 0 .6-.6.3-1-1-1s-1.6.4-1 1zM98.5 80c-.3.5-.1 1 .4 1 .6 0 1.1-.5 1.1-1 0-.6-.2-1-.4-1-.3 0-.8.4-1.1 1zM90.6 87.6c-.5 1.4-.4 1.5.9.4 1.7-1.4 1.9-2 .6-2-.5 0-1.2.7-1.5 1.6zM70.5 101c.4.6 1.1.8 1.6.5 1.4-.9 1.1-1.5-.7-1.5-.8 0-1.2.5-.9 1zM49.7 123.7c-.4.3-.7 1.1-.7 1.7 0 .6.5.5 1.2-.2.6-.6.9-1.4.7-1.7-.3-.3-.9-.2-1.2.2zM39.7 127.7c-.4.3-.7 1.1-.7 1.7 0 .6.5.5 1.2-.2.6-.6.9-1.4.7-1.7-.3-.3-.9-.2-1.2.2zM46.7 130.7c-.4.3-.7 1.1-.7 1.7 0 .6.5.5 1.2-.2.6-.6.9-1.4.7-1.7-.3-.3-.9-.2-1.2.2zM45 136.2c0 .4.9.8 2 .8s2-.4 2-.9c0-.6-.9-.9-2-.8-1.1.1-2 .5-2 .9zM36 140.6c0 .8.5 1.2 1 .9.6-.3 1-1 1-1.6 0-.5-.4-.9-1-.9-.5 0-1 .7-1 1.6zM31.5 151c-.3.6.1.7.9.4 1.8-.7 2.1-1.4.7-1.4-.6 0-1.3.4-1.6 1zM35.1 152.6c0 1.1.3 1.4.6.6.3-.7.2-1.6-.1-1.9-.3-.4-.6.2-.5 1.3zM39.7 152.7c-.4.3-.7 1.1-.7 1.7 0 .6.5.5 1.2-.2.6-.6.9-1.4.7-1.7-.3-.3-.9-.2-1.2.2zM30 164c-.6 1.1-.7 2-.3 2 .5 0 1.4-.9 2.1-2 .7-1.1.8-2 .2-2-.5 0-1.4.9-2 2zM30 168.2c-.2.5-.3 1.1-.4 1.5-.1.5-.5 1.4-1 2.1-.4.7-.6 1.6-.3 1.9.8.8 2.9-3.7 2.3-5-.2-.7-.5-.9-.6-.5zM22 183.9c0 .6.4 1.3 1 1.6.6.3.7-.1.4-.9-.7-1.8-1.4-2.1-1.4-.7zM18.6 207.3c.3 1 .9 1.5 1.2 1.2.3-.3 0-1.1-.7-1.8-1-.9-1.1-.8-.5.6zM21.6 223.5c-.3.8-.1 1.5.4 1.5.6 0 1-.7 1-1.5s-.2-1.5-.4-1.5-.6.7-1 1.5zM19.5 225.2c.3 1.7.1 2.8-.6 2.8s-.5 1 .6 2.6c.9 1.5 1.2 2.3.6 2-.7-.5-1 .2-.9 1.8.3 3.5 1.4 3.3 2.7-.5 1.4-4.2 1.4-5.5-.2-7.1-.8-.7-1.7-2-2-2.8-.4-.8-.5-.3-.2 1.2zM22 229c0 .5-.5 1-1.1 1-.5 0-.7-.5-.4-1 .3-.6.8-1 1.1-1 .2 0 .4.4.4 1zM25 227.9c0 .6.4 1.2.8 1.5.5.3.9-.1.9-.9s-.4-1.5-.9-1.5c-.4 0-.8.4-.8.9zM17 243.5c0 1.7-.6 3.7-1.2 4.5-1.1 1.2-1 1.2.4.2 1.3-1 1.7-1 2.1 0 .3.7.6-.1.6-1.7 0-1.7-.4-3.7-.9-4.5-.7-1.1-1-.8-1 1.5zM23.5 242c-.3.5-.1 1 .4 1 .6 0 1.1-.5 1.1-1 0-.6-.2-1-.4-1-.3 0-.8.4-1.1 1zM17.4 252.4c-.3.8-.2 2.1.2 2.8 1.2 1.8 1.3 6.8.3 6.8-.5 0-.9 1.2-.9 2.6 0 1.4.4 2.3 1 1.9.6-.4.8-1.1.5-1.6-.4-.5.2-.6 1.2-.2 1.6.6 1.6.5.4-1-1.2-1.5-.9-2.1 1.1-1.8 1 .1-.3-3.2-1.6-4.1-.7-.5-.6-.8.4-.8 1.2-.1 1.1-.3-.2-1.1-1-.5-1.8-1.5-1.8-2.1 0-.7.5-.6 1.5.2 2 1.6 1.9.3 0-1.6-1.3-1.4-1.6-1.4-2.1 0zM19 267c0 .5.5 1 1 1 .6 0 1-.5 1-1 0-.6-.4-1-1-1-.5 0-1 .4-1 1z"/><path d="M22.1 267.2c-.1 1.6-1.8 2.3-4.3 1.9-.5 0-.8.9-.8 2.1.1 2 .2 2.1 1.3.7.7-.9 1.8-1.4 2.4-1.2 1.5.5 2.7-2 2-3.9-.4-.8-.6-.6-.6.4zM20.4 274.2c.3 1.3.5 2.4.7 2.5.1.2.2.7.3 1.2 0 .5.5 1.3 1 1.8s.6.2.1-.6c-.6-1-.4-1.2.4-.7.9.6.9 1.2-.3 2.4-1.1 1.3-1.2 2.2-.4 3.6.6 1.2.7 2.1.1 2.5-1.4.9-2.5 6.1-1.3 6.1.5 0 1-.9 1-2s.5-2 1.1-2c.5 0 .8.4.4.9-.3.5 0 1.3.6 1.7.9.5 1-.1.5-2s-.3-2.6.9-2.6c.8 0 1.4.3 1.3.7-.2.5 0 .9.5 1 1.8.7 1.9.2.4-1.5-1.6-1.7-2.9-6.5-3-11-.1-2.5-1.7-3.1-1.7-.5 0 .9-.3 1.3-.7.9-1.1-1.1-1-3 .2-3.8.6-.5.3-.8-.7-.8-1.3 0-1.7.6-1.4 2.2zm4.2 11.1c-.2.7-.5.4-.5-.6-.1-.9-.6-1.7-1.2-1.7-.5 0-.7-.5-.3-1.1.9-1.5 2.8 1.6 2 3.4zM17 278c0 .5.5 1 1.1 1 .5 0 .7-.5.4-1-.3-.6-.8-1-1.1-1-.2 0-.4.4-.4 1z"/><path d="M19 285c0 .5.5 1 1.1 1 .5 0 .7-.5.4-1-.3-.6-.8-1-1.1-1-.2 0-.4.4-.4 1zM13 292c0 .5.5 1 1.1 1 .5 0 .7-.5.4-1-.3-.6-.8-1-1.1-1-.2 0-.4.4-.4 1zM27.5 293c.3.5.8 1 1.1 1 .2 0 .4-.5.4-1 0-.6-.5-1-1.1-1-.5 0-.7.4-.4 1zM24.4 295c0 1.1.4 2 .8 2s.8-.9.8-2-.4-2-.8-2-.8.9-.8 2zM14 294.9c0 .6.4 1.3 1 1.6.6.3.7-.1.4-.9-.7-1.8-1.4-2.1-1.4-.7zM29.6 295.8c-.4.7-.3 1.9.3 2.6.6.7.9 1.5.7 1.7-.2.2.2 1 1 1.7 1.7 1.5 1.7.9 0-3.7-.8-2.3-1.5-3.1-2-2.3zM20 297.4c0 .2.7.6 1.5 1 .8.3 1.5.1 1.5-.4 0-.6-.7-1-1.5-1s-1.5.2-1.5.4zM34.5 300c.3.5.8 1 1.1 1 .2 0 .4-.5.4-1 0-.6-.5-1-1.1-1-.5 0-.7.4-.4 1zM6.3 303.6c.1 2.1.5 3 1.3 2.7.7-.2 1.4.6 1.7 1.9.4 2.1.4 2 .6-.5.1-1.7-.4-2.7-1.3-2.7-.8 0-1.7-1-1.9-2.3-.3-1.4-.4-1.1-.4.9zM21.1 303.6c0 1.1.3 1.4.6.6.3-.7.2-1.6-.1-1.9-.3-.4-.6.2-.5 1.3zM36.9 302.2c-.6 1.2-.5 4.8.1 4.8.4 0 .7-1.1.6-2.5-.1-2.2-.3-3-.7-2.3zM30.9 304.4c.6.7.7 1.7.3 2.1-.4.5-.2.5.5.2.6-.4 1.9.6 3.1 2.4 1.5 2.4 2 2.7 2.5 1.5.4-.9.2-1.6-.4-1.6-.5 0-1.4-1.1-2-2.4-.6-1.3-2-2.7-3.1-2.9-1.5-.4-1.7-.2-.9.7zM22.5 306c-.3.5.1 1 1 1s1.3-.5 1-1c-.3-.6-.8-1-1-1-.2 0-.7.4-1 1zM23.6 314.7c-.6 1.4-.5 1.5.5.6.7-.7 1-1.5.7-1.8-.3-.3-.9.2-1.2 1.2zM37 313.4c0 .2.7.9 1.5 1.6 1.3 1.1 1.4 1 .9-.4-.5-1.4-2.4-2.3-2.4-1.2zM40 318c0 .5.5 1 1.1 1 .5 0 .7-.5.4-1-.3-.6-.8-1-1.1-1-.2 0-.4.4-.4 1zM39.6 323.3c.3 1 .9 1.5 1.2 1.2.3-.3 0-1.1-.7-1.8-1-.9-1.1-.8-.5.6zM17.1 325c0 .8.4 2.2.9 3 1.2 1.8 1.2.2 0-2.5-.6-1.3-.9-1.5-.9-.5zM15.1 332.5c-.1 2 3.4 8.5 4.5 8.5.4 0 .1-.6-.5-1.4-.6-.7-1.7-3.1-2.5-5.2-.9-2.4-1.5-3.1-1.5-1.9zM26 334.4c1.2 1.4 2 3.2 1.7 4-.4.9-.2 1.8.3 2.1.4.3 1.1-.1 1.3-.7.3-.7.6-.3.6.8.1 2.3 5.1 5.1 7 3.9.7-.4.8 0 .4 1.1-.6 1.5-.4 1.5 1.4-.2 2.1-2.1 2-3.4-.3-3.4-2 0-9.4-4.8-9.4-6.2 0-1.2-2.9-3.7-4.4-3.8-.5 0 .1 1.1 1.4 2.4zM23.6 335.3c.3 1 .9 1.5 1.2 1.2.3-.3 0-1.1-.7-1.8-1-.9-1.1-.8-.5.6zM34.1 335.6c0 1.1.3 1.4.6.6.3-.7.2-1.6-.1-1.9-.3-.4-.6.2-.5 1.3zM37.3 335.7c1.4 1.4 1.9 1.5 2.9.4.9-.9.9-1.2.1-.7-.6.3-1.4.2-1.8-.4-.3-.5-1.1-1-1.8-1-.6 0-.4.7.6 1.7zM20 336c0 .5.5 1 1 1 .6 0 1-.5 1-1 0-.6-.4-1-1-1-.5 0-1 .4-1 1zM41.7 341.3c1.1 1.5 2.4 2.2 3.6 1.9 1.5-.4 1.3-.8-1.3-2.3-4-2.5-4.5-2.4-2.3.4zM25 344.5c2.5 2.7 1.2 3.5-1.4.9-1.6-1.6-2.2-.8-.8 1.2.7 1.2 12.3 7.8 12.5 7.2.1-.2.8-1.4 1.5-2.6 1.6-2.9.8-4-1.8-2.5-1.4 1-2.1.9-3-.2-.7-.8-1.7-1.5-2.2-1.5-.5 0-1.9-1.1-3.2-2.5-1.3-1.4-2.7-2.5-3.1-2.5-.5 0 .2 1.1 1.5 2.5zM487.5 347c-.3.5-.1 1 .4 1 .6 0 1.1-.5 1.1-1 0-.6-.2-1-.4-1-.3 0-.8.4-1.1 1zM27 353.4c0 .2.7.7 1.6 1 .8.3 1.2.2.9-.4-.6-1-2.5-1.4-2.5-.6zM63 366c0 .5.7 1 1.6 1 .8 0 1.2-.5.9-1-.3-.6-1-1-1.6-1-.5 0-.9.4-.9 1zM58 368c0 .5.5 1 1.1 1 .5 0 .7-.5.4-1-.3-.6-.8-1-1.1-1-.2 0-.4.4-.4 1zM66 370c0 .5.5 1 1.1 1 .5 0 .7-.5.4-1-.3-.6-.8-1-1.1-1-.2 0-.4.4-.4 1zM91 415.4c0 .1.9.9 2 1.9 1.5 1.3 2 1.4 2 .3 0-.7-.9-1.6-2-1.9-1.1-.3-2-.4-2-.3zM96.4 415.9c.4.6 1.4 1.1 2.3 1.1.9 0 3.1 1.1 4.9 2.5 2.7 2 3.3 2.2 3.8.9.4-1 0-1.4-1.1-1.2-1 .2-1.8-.3-1.8-1.1s-.9-1.5-2-1.6c-1.1-.1-3.1-.5-4.4-.9-1.6-.6-2.1-.5-1.7.3zM98.1 419.7c-1.2 1.3-1.1 1.4.7.9 1.2-.4 2.4-.2 2.9.6.4.7 1.7 2 2.8 2.8 1.1.8.4-.3-1.4-2.3-1.9-2-3.5-3.7-3.5-3.7-.1.1-.7.8-1.5 1.7zM106.6 428.6c-.3.8-.2 1.3.3.9.5-.3 1.5.1 2.3.8.7.8 1.9 1.2 2.6.9.9-.3.6-1-.9-2.3-2.7-2.3-3.5-2.4-4.3-.3zM114.5 434c.3.5.8 1 1.1 1 .2 0 .4-.5.4-1 0-.6-.5-1-1.1-1-.5 0-.7.4-.4 1zM410 435.5c-.7.9-.8 1.5-.2 1.5.5 0 1.2-.7 1.6-1.5.3-.8.4-1.5.2-1.5s-.9.7-1.6 1.5zM165.5 466c.3.5.8 1 1.1 1 .2 0 .4-.5.4-1 0-.6-.5-1-1.1-1-.5 0-.7.4-.4 1zM168.6 470.2c.7 1.1 3.2 1 3.9-.2.3-.6-.4-.9-1.9-.8-1.3.1-2.2.6-2 1zM174.8 473.7c.7.3 1.6.2 1.9-.1.4-.3-.2-.6-1.3-.5-1.1 0-1.4.3-.6.6z"/></svg>