<?xml version="1.0" encoding="utf-8"?>
<!-- Generator: Adobe Illustrator 22.0.1, SVG Export Plug-In . SVG Version: 6.00 Build 0)  -->
<svg version="1.1" id="Layer_1" xmlns="http://www.w3.org/2000/svg" xmlns:xlink="http://www.w3.org/1999/xlink" x="0px" y="0px"
	 viewBox="0 0 512 512" enable-background="new 0 0 512 512" xml:space="preserve">
<path fill="#ff0000" d="M446.15,252.99c-14.46-21.52-34.52-38.02-50.9-57.81c-12.93-15.62-22.56-32.25-18.58-53.31
	c3.59-18.98,16.72-29.09,34.57-34.32c10.65-3.12,17.8-9.99,16.58-21.82c-1.28-12.39-10.04-18.86-23.55-18.88
	c-11.74-0.02-22.34,3.71-31.84,10.4c-37.83,26.65-58.17,84.64-15.95,135.89c15.62,18.96,34.48,34.91,49.06,54.81
	c28.67,39.11,35.45,80.13,11.81,124.09c-3.63,6.75-8.15,12.82-16.93,17.14c4.74-17.97,4.54-34.82,2.74-51.71
	c-3.97-37.21-16.74-70.47-43.21-97.83c-21.89-22.63-49.64-33.62-79.28-41.22c-16.25-4.16-29.87-11.71-35.5-28.94
	c-0.54-1.65-1.55-3.2-0.27-5.18c6.85-10.64,11.83-13.03,21.41-8.88c-7.11-4.82-7.94-11.8-1.27-20.55c5.86-7.68,12.3,2.35,18.84,0.68
	c-3.29-1.3-6.52-3.19-9.98-3.81c-6.4-1.13-7.43-4.45-5.93-10.17c2.84-10.86,3.11-22.17-0.46-32.6c-4.13-12.07-2.47-22.91,0.85-34.76
	c5.57-19.91,7.09-40.3,1.01-60.68c-1.85-6.19-4.53-8.01-11.18-5.87c-20.02,6.43-34.53,19.77-47.02,35.83
	c-2.55,3.28-4.83,4.02-8.87,2.89c-18.77-5.23-37.9-6.35-56.86-1.84c-6.37,1.52-8.94,0.07-12.14-5.1
	c-8.65-13.99-19.09-26.49-32.86-35.95c-8.29-5.69-13.77-4.66-18.02,5.07c-7.88,18.08-11.27,36.95-7.68,56.13
	c2.33,12.47,1.06,23.31-4.11,34.58c-3.89,8.47-5.77,17.76-5.51,27.25c0.13,4.79-1.66,7-6.75,6.76c-6.69-0.31-13.4-0.08-20.11-0.08
	c7.16,1.56,14.38,0.96,21.45,1.71c9.26,0.97,4.93,9.46,6.62,14.44c1.51,4.43-3.48,3.3-5.73,3.91c-7,1.89-14.1,3.38-21.17,5.03
	c6.78-0.34,13.54-0.8,19.79-2.85c9.41-3.08,11.58,3.39,13.18,9.53c1.53,5.84-5.16,4.51-7.86,6.74c-2.1,1.73-4.86,2.65-7.18,3.86
	c7,0.8,12.95-10.39,19.98-2.73c4.96,5.41,12.53,9.21,13.7,17.79c1.37,9.99,2.4,20.09-0.46,29.82c-12.56,42.7-7.4,83.46,10.93,123.59
	c13.6,29.77,19.95,61.42,18.83,94.34c-0.37,10.96-0.82,20.41-15.08,24.5c-14.92,4.28-19.04,24.44-8.11,31.88
	c10.29,7,22.24,4.76,33.65,5.15c1.97,0.07,3.65-1.67,3.47-4.15c-0.97-13.41,5.84-22.07,17.12-27.93c2.27-1.18,3.6-2.82,4.22-5.23
	c7.44-28.85,8.01-57.96,3.28-87.27c-2.62-16.22-12.83-29.63-16.63-45.44c-3.55-14.78,1.01-25.93,13.64-31.65
	c1.43-0.65,3.92-3,4.33,1.03c1.4,14.01-1.71,26.91-11.25,40.65c2.51-7.6,1.72-13.01,0.78-19.15c-0.99,1.44-1.89,2.35-2.35,3.44
	c-3.52,8.4,1.46,15.23,4.76,22.02c18.44,38.02,17.52,77.29,8.25,117.18c-0.74,3.17-1.51,6.98-4.85,8.38
	c-11.08,4.66-17.38,12.08-17.33,24.77c0.04,11.63,9.09,10.89,16.22,13.49c12.91,4.72,38.17,1.71,43.11-17.2
	c8.29-31.75,17.12-63.35,25.32-95.12c2.92-11.29,4.69-22.87,6.99-34.32c1.8,14.71-1.1,28.8-3.92,42.9
	c-4.14,20.64-11.17,40.46-17.16,60.58c-1.09,3.67-0.26,9.18,4.14,6.52c14.09-8.52,28.67-14.45,47.48-14.45
	c-16.63-13.19-25.56-28.01-23.1-47.75c3.59,11.98,7.78,23.59,16.11,33.41c8.16,9.62,19.16,15.17,29.83,21.53
	c-10.28-1.9-20.37-2.68-30.5-2.05c-13.84,0.87-26.96,4.06-35.86,15.83c-7.9,10.45-4.84,24.85,5.84,26.81
	c14.64,2.69,29.49,4.17,44.23-0.4c4.74-1.47,9.71-2.38,14.64-2.96c20.87-2.46,42.22,1.32,62.8-3.7
	c28.95-7.06,49.21-30.06,75.26-42.69c6.04-2.93,11.03-8.68,15.59-13.93C482.31,388.89,486.47,312.99,446.15,252.99z M150.5,503.45
	c-6.73-6.4-3.82-18.51,6.22-23.73C151.17,487.56,149.69,494.89,150.5,503.45z M226.35,502.56c-3.68-2.04-3.98-5.16-4.27-7.8
	c-0.67-6.04,3.9-12.61,10.32-14.76C225.59,491.98,225.59,491.98,226.35,502.56z M243.04,504.49c-5.13-1.9-5.9-5.46-5.5-9.14
	c0.62-5.74,3.39-10.12,11.2-13.09C243.02,489.8,240.56,496.38,243.04,504.49z M380.87,320.95c2.3,8.19,0.56,16.4-1.34,24.19
	c-1.2,4.89-7.4,8.87-11.73,6.89c-3.55-1.62,1.65-7.51,0.81-11.71c-0.1-0.51,0.47-1.16,0.7-1.67c-4.76,0.4-5.22,5.42-8.96,8.28
	c0.24-2.34,0.41-3.9,0.67-6.39c-0.89,1.64-1.39,2.56-2.3,4.23c-0.43-1.82-0.71-3.04-1.04-4.47c-0.67,2.5-1.28,4.81-2.77,10.4
	c-1.55-13-1.04-23.37,8.14-27.39c4.55-1.99,9.99-3.83,15.05-5.71C380.11,316.86,380.45,319.46,380.87,320.95z M353.17,386.59
	c-2.19,0.08-6.76-0.03-6.48-2.79c0.21-2.05,1.92-4.48,3.97-5.1c-1.11,0-2.58,0-4.44,0c2.08-1.23,3.22-1.9,4.48-2.64
	c-1-0.16-1.91-0.31-3.64-0.59c1.91-1.41,3.24-2.39,4.94-3.65c-2.14,0.42-3.86,0.76-7.26,1.43c2.18-1.89,3.15-2.73,4.36-3.78
	c-1.45,0.27-2.73,0.5-5.39,0.99c2-1.91,3.01-2.87,4.05-3.86c-2.5-0.18-6.01,3.66-7.49-0.07c-1.35-3.41,3.02-4.48,5.29-5.96
	c5.36-3.52,11.38-4.49,17.7-3.53c8.47,1.29,12.19,11.84,11.39,19.76C372.89,394.1,361.42,386.28,353.17,386.59z M371.93,417.18
	c-1.65-7.78-5.06-11.84-7.33-16.55C370.75,403.19,374.1,407.37,371.93,417.18z M336.64,458.69c-4.27-7.35-2.8-15.13,2.31-22.65
	c0.37-0.55,1.76-1.15,1.95-0.97c2.41,2.33,2.24,5.58,2.07,8.43c-0.23,4-1.37,7.95-2.12,11.92
	C335.31,453.57,341.66,459.99,336.64,458.69z M333.99,423.63c-7.82-7.51-7.02-17.72-3.64-30.05c1.23,3.94,1.7,5.44,2.37,7.57
	c0.69-1.72,1.17-2.92,2.2-5.48c1.08,4.15,1.81,6.94,3.29,12.65c-0.9-6.03-1.35-9.1-2.27-15.27c2.51,4.52,3.49,6.26,4.59,8.24
	c0.62-2.52-2.41-4.79-0.14-6.63c1.11-0.9,3.23-0.61,5.31,2.77c-1.64-4.26-2.54-6.6-4.09-10.62c8.99,3.85,14.67,9.19,17.55,17.21
	c1.67,4.62,3.97,10.48-1.42,13.63C350.54,421.84,343.75,433.01,333.99,423.63z M243.04,306c5.54-2.32,10.09,1.2,15.23,1.77
	c-2.84-1.21-5.68-2.42-8.63-3.68c5.86-2.94,17.84,1.81,19.78,7.68c1.12,3.39-1.44,3.53-3.54,3.88c-10.73,1.8-20.12-2.33-29.94-6.62
	c5.1-3.82,9.91-0.9,18.28-0.32C248.18,307.24,245.61,306.62,243.04,306z M228.07,311.53c-11.66,10.63-19.4,23.38-21.08,40.12
	c-3.67-6.04-1.12-18.03,5.56-28.69c8.63-13.77,20.84-22.18,36.71-26.39c14.96-3.97,29.06,1.41,46.54,2.45
	c-4.12-1.42-5.42-2.23-6.73-2.25c-3.44-0.05-7.92-0.71-7.26-4.29c0.62-3.39,5.38-3.38,9.06-2.95c8.86,1.03,11.47,9.25,18.02,14.16
	c-10.73,3.37-19.72,4.61-28.94-2.04C269.65,294.23,240.24,300.45,228.07,311.53z M189.67,400.54c4.08-8.5,6.26-16.85,3.17-26.61
	c-1.56-4.94,0.06-15.03,4.12-14.65c5.38,0.51,6.15,9.77,4.46,14.97c-4.31,13.3-5.56,28.17-17.28,37.98
	C185.99,408.33,187.81,404.42,189.67,400.54z M178.98,379.5c0.66-3.99,3.3-0.98,4.13,0.1c3.68,4.78,4.81,10.29,3.96,16.92
	C178.73,392.81,177.84,386.32,178.98,379.5z M197.18,294.9c-3.8,3.4-6.34,6.42-9.54,8.31c-2.85,1.68-7.36,4.26-7.02-3.03
	c0.04-0.75-0.78-1.89-1.5-2.27c-2.1-1.08-6.97,0.93-5.54-3.98c2.13-7.34,7.47-12.41,14.76-14.36c2.57-0.69,6.07,1.27,5.98,5.54
	c-0.01,0.57,1.7,1.81,2.16,1.62c0.92-0.37,1.52-1.52,2.22-2.3c1.89,5.8,6.82-2.1,9.54-2.25c-0.56-0.93-1.24-2.08-2.07-3.48
	c8.83,5.42,13.81,10.74,13.56,19.55c-0.09,2.99-0.31,6.18-3.8,7.43C206.02,309.22,198.06,308.84,197.18,294.9z M167.22,268.24
	c6.03-0.81,7.5-8.68,12.95-9.21c7.23-0.7,12.27,3.29,14.4,11.3c-2.02-0.68-3.61-1.21-3.49-1.17c-7.15,1.46,0.57,9.16-6.19,10.25
	c-7.99,1.3-13.96-1.99-17.53-9.33C167.1,269.54,167.18,268.24,167.22,268.24z M164.1,229.36c5.52,7.35,10.27,9.45,14.95,0.7
	c2.38,3.97,0.9,7.09-0.87,9.92c-1.57,2.51-4.39,3.28-7.04,2.22C166.29,240.26,164.72,236.01,164.1,229.36z M228.56,248.81
	c-7.15-6.45-4.19-14.77-6.95-21.34C229.05,232.53,230.55,239.48,228.56,248.81z M198.05,164.26c14.68,0.8,28.29,4.68,39.84,14.25
	C224.61,173.75,211.33,169.01,198.05,164.26z M210.11,275.67c4.2,0.76,6.8,1.23,11.02,1.99c-5.3-1.43-3.81-9.72-11.13-5.72
	c5.63-7.65,18.51-9.57,24.09-3.54c3.84,4.16,1.93,11.46,0.53,15.24c-2.07,5.59-18.15,2.33-24.42-4.5c1.44,0,2.63,0,4.06,0
	C213.17,278.24,212.32,277.53,210.11,275.67z M219.2,253.05c-1.19,6.91-4.21,12.45-11.44,14.54c-1.67-1.79,2.65-2.79,0.21-4.24
	c-0.65-0.39-1.93,0.29-3.32,0.55c0.07-0.74,0.14-1.45,0.16-1.7c-0.01,0.14-0.04,0.43-0.09,0.93c0.02,1.23-6.66,0.93-6.17,7.38
	c-4.8-6.69-3.95-12.18-0.68-16.91c2.34-3.39,4.65-9.44,11.02-4.81c0.32,0.23,1.4-0.33,1.97-0.73c1.6-1.13,1.33-5.43,4.78-3.27
	C218.51,246.57,219.79,249.64,219.2,253.05z M205.16,273.85c-0.27,1.99-1.19,3.55-3.37,3.49c-2-0.06-3.52-1.26-3.44-3.4
	c0.07-1.72,1.01-3.17,3.06-3.21c0.26-0.01,0.51,0.01,0.75,0.03c1.19,0.14,2.04,0.71,2.55,1.69
	C204.92,272.86,205.07,273.32,205.16,273.85z M198.05,233.72c-5.55,2.54-7.69-2.29-10.35-6.56c9.83,2.43,9.83,2.43,13.3-4.78
	C203.2,227.32,202.45,231.71,198.05,233.72z M277.17,252.42c1.4-3.35,4.36-3.99,7.49-3.57c8.39,1.11,17.29,0.87,25.31,10.07
	c-4.76-2.02-7.25-3.24-9.86-4.15c-4.2-1.46-8.18-4.17-12.2,1.41c-2.01,2.79-6.45,1.9-9.78,0.15
	C276.38,255.4,276.58,253.83,277.17,252.42z M292.75,267.04c8.95-9.45,18.33-5.26,27.46-1.9c17.67,6.5,30.25,26.9,29.65,50.72
	c-2.8-8.52-4.59-14.44-6.68-20.25c-3.25-9.03-7.01-17.96-15.74-23.02c-3.73-2.16-6.45-7.37-13.38-1.74
	C308.89,275.05,299.78,271.35,292.75,267.04z M343.2,306.02c-5.07-1.67-8.72-5.03-12.39-8.73
	C337.63,294.5,343.78,298.83,343.2,306.02z M312.14,280.04c0.95-3.06,5.39-3.01,7.59-3.19c6.64-0.22,10.88,2.56,15.01,5.8
	c2.34,1.83,1.21,3.56,0.54,5.6c-0.92,2.82-2.73,1.05-4.05,0.91c-4.62-0.49-9.29-1.03-13.15-4.02
	C315.93,283.47,311.34,282.6,312.14,280.04z M322.57,329.07c4.89-3.16,20.81-0.06,23.92,4.65c4.72,7.15-1.22,25.52-10.79,31.1
	c2.5-3.4-0.59-5.79,0.86-10.99c-1.6,3.75-2.19,5.16-3.73,8.76c0-6.83,0-11.12,0-15.16c-0.51,3.68-1.06,7.63-1.64,11.74
	c-2.92-0.91-1.74-2.96-2.25-4.37c-0.04-0.01-0.13-0.03-0.23-0.05c-0.26,2.84-0.75,4.85-3.51-0.31c1.6,4.16-1.18,5.51-2.23,7.86
	C315.04,351.09,314.93,334,322.57,329.07z M330.81,374.53c-1.98,0.3-3.19-1.19-3.29-2.97c-0.13-2.38,1.46-3.6,3.75-3.79
	c1.98-0.16,3.08,0.89,3.43,2.62C334.45,372.97,332.88,374.21,330.81,374.53z M331.87,378.58c-0.02,1.45-0.52,2.58-1.84,2.97
	c-0.19,0.06-0.39,0.1-0.62,0.12c-1.97,0.21-2.56-1.12-2.62-2.76c-0.06-1.63,0.5-3.03,2.34-3.13c0.22-0.01,0.43,0,0.62,0.02
	c0.58,0.08,1.03,0.32,1.37,0.69C331.57,377,331.81,377.72,331.87,378.58z M325.73,372.7c-0.06,1.8-0.72,3.27-2.38,3.58
	c-0.24,0.04-0.49,0.06-0.77,0.06c-2.03-0.04-3.38-1.46-3.56-3.49c-0.22-2.47,1.66-3.04,3.58-3.1c0.28-0.01,0.55,0.01,0.8,0.04
	c0.28,0.04,0.54,0.1,0.78,0.19C325.17,370.36,325.79,371.2,325.73,372.7z M317.12,359.37c0.75,1.49,3.21,3.04,1.24,5.04
	c-1.82,1.84-3.89,4.16-7.11,1.94c1.21,0.79,2.42,1.58,3.63,2.37c-0.29,0.45-0.58,0.89-0.87,1.34c-2.68-0.91-5.36-1.83-10.47-3.57
	c4.62,2.52,6.99,3.82,12.12,6.61c-4.53-0.63-6-0.83-8.34-1.16c1.98,1.05,3.27,1.74,4.93,2.63c-3.11,2.64-6.16-0.11-10.46,0.82
	c4.88,1.04,8.39,1.79,15.47,3.3c-14.24,2.17-24.43,2.6-33.01-5.25c-4.47-4.09-1.19-16.51,2.29-21.59c4.15-6.05,7.77-8.88,15-6.92
	C309.4,347.06,313.74,352.68,317.12,359.37z M315.29,383.76c-3.09,2.05-5.29,3.5-8.45,5.59c3.27-1.15,5.51-1.94,10.39-3.66
	c-3.37,2.87-4.58,3.9-6.16,5.25c1.74-0.57,3.07-1.01,6.27-2.06c-2.52,2.8-3.78,4.19-5.87,6.51c2.58-1.52,4.18-2.46,6.94-4.08
	c-1.25,2.48-1.93,3.8-2.76,5.44c1.37-1.06,2.48-1.93,5.69-4.43c-2.33,4.4-3.48,6.57-4.63,8.74c2.02-2.97,4.78-4.82,8.72-5.49
	c0.64,11.67-10.33,28.37-18.37,28.3c-5.77-0.05-19.22-13.49-19.12-19.1C288.15,393.48,300.75,383.28,315.29,383.76z M322.82,385.39
	c-2.29-0.08-2.9-1.85-2.87-3.84c0.02-1.68,0.8-3.05,2.56-3c2.09,0.06,3.17,1.48,3.25,3.27C325.65,384.04,324.8,385.46,322.82,385.39
	z M326.14,385.24c0.62-0.89,1.27-1.34,1.93-1.49c1.43-0.34,2.9,0.72,4.3,1.72c0-0.01,0.01-0.03,0.01-0.04
	c0.02,0.01,0.03,0.02,0.05,0.03c-0.62-2.49-0.1-4.41,1.99-5.56c0.3-0.17,0.63-0.31,1-0.45c-0.01,0-0.02-0.01-0.02-0.01
	c0.01,0,0.01,0,0.02,0c0,0,0,0,0,0l0,0c-0.22-0.24-0.41-0.49-0.59-0.74c-0.36-0.51-0.63-1.02-0.79-1.54
	c-0.41-1.3-0.16-2.62,1.09-3.84c0.78-0.76,2.72-1.28,3.5-0.83c1.01,0.59,2.03,2.34,1.89,3.45c-0.16,1.38-0.81,2.26-1.74,2.79
	c-0.92,0.53-2.11,0.71-3.37,0.71c0,0,0.01,0.01,0.01,0.01l0,0c0,0,0,0,0,0c0.15,0.07,0.29,0.14,0.43,0.22c0,0,0,0,0,0
	c0.56,0.3,1.09,0.63,1.53,1c0.15,0.12,0.29,0.25,0.43,0.38c0.13,0.14,0.25,0.28,0.36,0.42c0.15,0.2,0.28,0.4,0.39,0.62
	c0.42,0.87,0.41,1.91-0.27,3.14c-1.51,2.74-3.83,1.7-5.86,0.24c0,0.02,0.01,0.04,0.01,0.05l0,0c-0.02-0.02-0.04-0.03-0.06-0.05
	c-0.39,2.86-1.81,4.75-4.89,3.88C325.64,388.82,325.14,386.67,326.14,385.24z M368.09,296.23c-6.2,7.41-10.4,12.44-15.95,19.08
	C352.4,304.42,357.03,299.69,368.09,296.23z M347.68,279.89c0.88-3,3.24-5.57,5.04-8.27c0.1-0.14,1.5,0.2,1.57,0.49
	c0.84,3.58,1.2,7.23-0.73,10.57c-1.56,2.7-3.44,5.22-6.74,10.17C347.13,286.87,346.71,283.18,347.68,279.89z M335.21,257.2
	c0.56-1.27,1.73-2.27,2.62-3.39c0.86,0.96,1.97,1.79,2.54,2.9c3.52,6.76,3.22,13.56,0.09,20.96
	C335.58,271,331.79,264.9,335.21,257.2z M319.26,241.61c3.58-0.7,8.64,9.67,8.46,17.04c-1.07,1.6,0.95,6.59-2.3,5.42
	c-6.57-2.36-8.88-8.82-9.33-15.52C315.91,245.89,315.87,242.27,319.26,241.61z M276.17,235.21c1.94-1.35,4.77-1.95,5.87,0.07
	c2.95,5.4,8.91,5.07,13.17,7.84c-0.34-0.36-0.67-0.73-1.01-1.08c-2.64-2.76-5.5-5.49-3.48-9.81c0.19-0.4,2-0.64,2.42-0.25
	c0.86,0.79,1.6,1.62,2.18,2.48c1.74,2.59,2.08,5.52,0.23,8.88c1.97,1.16,3.96,2.32,6,3.68c1.84,1.23,3.72,2.63,5.68,4.37
	c0.63,0.56,1.26,1.16,1.91,1.79c0.58,0.57,1.17,1.17,1.77,1.81c0.8,0.86,1.61,1.79,2.44,2.79c-7.77-4.8-12.35-7.78-17.08-10.5
	c-5.02-2.88-9.96-6.1-16.36-3.98c-2.22,0.74-4.24-0.59-5.24-2.83C273.73,238.35,274.32,236.5,276.17,235.21z M274.85,280.53
	c-3.35,4.85-3.17,14.92-14.27,8.4c-2.71-1.59-8.93,2.4-13.35,4.25c-2.66,1.11-4.97,3.05-9.12,5.69
	c8.04-16.11,22.64-16.9,35.25-21.09C275.87,276.93,275.68,279.32,274.85,280.53z M257.44,242.82c-8.01,5.35-15.38,10.28-23.98,13.29
	C237,243.58,246.8,237.87,257.44,242.82z M243.75,232.38c-6.79,10.18-9.65,22.9-20.01,30.82c6.75-10.07,10.32-20.64,9.44-32.97
	c-0.38-5.28,3.28-10.03,7.61-13.51c0.35-0.28,1.99,0.29,2.36,0.89C246.11,222.39,246.62,228.08,243.75,232.38z M188.79,155.72
	c21.35-1.77,41.86,1.07,61.01,11.39C230.08,159.91,209.03,160.06,188.79,155.72z M197.04,117.67c0.94,5.3,3.04,11.15,9.43,10.18
	c7.76-1.19,9.61-7.78,9.29-14.94c-0.08-1.85-1.79-5.44-0.19-5.22c4.12,0.57,8.1,2.68,11.95,4.55c2.14,1.04,0.76,2.89,0.1,4.36
	c-5.34,11.83-17.1,17.49-30.25,14.06c-4.58-1.19-12.67-1.14-12.67-5.3c0-6.68,6.39-11.4,13.26-16.01
	C197.49,113.14,196.66,115.51,197.04,117.67z M202.97,112.4c0.05-1.88,0.73-4.05,2.81-3.99c2.43,0.07,2.68,2.44,2.77,3.82
	c-0.01,2.64-0.52,4.52-2.9,4.27C203.5,116.26,202.92,114.29,202.97,112.4z M191.56,149.76c22.76-5.35,45.41-7.03,67.94,0.45
	C236.84,148.49,214.17,149.42,191.56,149.76z M232.18,137.19c8.73-1.69,16.61-4.35,23.05-12.23
	C252.83,135.77,239.53,142.38,232.18,137.19z M221.46,53.91c8.26-15.31,19.3-27.69,37.2-34.91c-5.86,5.93-10.59,10.71-16.72,16.9
	c5.36-0.98,8.61-1.58,14.7-2.7c-7.46,5.35-13.58,7.86-18.08,14.24c4.38,0,7.86,0,14.49,0c-6.54,3.14-10.2,4.89-15.59,7.48
	c5.9,0.68,9.99,0.66,13.64,4.62c-4.1,0.52-7.47,0.95-14.22,1.81c11.96,3.46,6.15,12.24,10.03,17.61
	c-8.09-8.17-15.88-16.39-25.29-22.8C221.22,55.89,221.15,54.49,221.46,53.91z M216.21,96.91c7.56,1.19,12.99,8.37,21.94,7.34
	c-2.54,4.18-6.13,6.33-9.44,4.43c-19.45-11.12-34.66-6.56-46.84,11.99c1.09-8.65,5.65-14.6,11.93-19.31
	C200.5,96.33,208.25,95.66,216.21,96.91z M204.19,71.19c1.36-0.23,2.68-0.26,3.9-0.02c-4.54,3.35-9.31,6.3-13.36,10.03
	c-4.09,3.76-7.45,8.31-11.13,12.51c0-0.01,0-0.01,0-0.02c0,0-0.01,0.01-0.01,0.01C182.86,84.94,194.66,72.83,204.19,71.19z
	 M197.06,64.88c-6.13,6.74-12.7,12.14-16.09,20.45C178.27,78.13,187.21,66.62,197.06,64.88z M186.3,59.84
	c-4.6,9.53-8.1,16.81-11.61,24.09C175.02,75.07,177.11,67.08,186.3,59.84z M170.55,146.31c-7.67,4.31-12.45,10.32-7.57,18.65
	c5.04,8.58,13.13,6.62,20.74,2.91c0.38-0.18,0.93-0.02,1.46-0.02c-3.17,7.39-14.71,10.12-21.58,4.06
	c-4.91-4.33-7.84-3.82-12.91-0.65c-7.65,4.78-16.46,1.26-17.84-6.98c7.04,5.39,13.86,6.96,19.58,0.09
	c5.65-6.79,4.04-13.08-3.12-18.31c-3.03-2.21-2.02-5.86,0.59-7.15c6.99-3.44,14.49-4.09,21.24,0.62
	C173.63,141.26,173.33,144.75,170.55,146.31z M110.36,97.17c-5.92,2.24-10.98,0.82-15.28-5.18c36.45-3.78,49.05,2.64,49.86,26.67
	c-2.57-4.57-4.35-7.67-6.08-10.81C132.42,96.11,123.09,92.35,110.36,97.17z M128.32,108.89c-0.07,2.05-0.7,3.95-2.83,3.94
	c-0.85,0-2.48-2.04-2.34-2.94c0.23-1.54,1.3-3.79,2.5-4.16C127.58,105.15,127.97,107.37,128.32,108.89z M104.15,101.51
	c4.64-1.15,9.44-2.66,14.07-2.36c1.95,0.13-1.04,3.39-1.31,5.37c-0.33,2.45-1.41,4.82-1.53,7.26c-0.26,5.33,0.91,10.47,7,11.62
	c6.59,1.25,8.96-3.89,10.77-8.91c0.71-1.97,0.69-4.21,1.24-7.95c4.68,5.68,6.73,10.98,8.16,16.59c0.42,1.63-0.39,2.39-1.86,2.95
	c-17.18,6.62-33.87-2.39-37.59-20.33C102.78,104.16,101.91,102.07,104.15,101.51z M169.42,57.74c4.05,8.84,2.19,17.25-2.05,25.41
	C168.05,74.68,168.74,66.21,169.42,57.74z M162.21,83.83c-0.5-8.99-2.53-15.85-6.29-23.18C163.63,64.7,166.62,74.98,162.21,83.83z
	 M158.11,85.79c-4.03-8-7.47-14.86-11.91-23.67C154.8,68.74,159.42,75.07,158.11,85.79z M150.42,92.1
	c-2.4-10.99-9.37-17.1-18.86-23.22C144.95,70.07,154.52,81.86,150.42,92.1z M92.61,58.89c4.02-1.83,6.93-3.16,10.99-5.01
	c-4.4-1.2-7.85-2.14-13.19-3.6c5.36-1.39,8.9-2.31,13.65-3.54c-4.26-2.32-7.5-4.08-13.82-7.53c6.98,0.75,10.64,1.15,16.01,1.73
	c-5.68-4.2-10.13-7.49-14.86-10.99c4.88-1.57,8.4,1.75,13.87,3.01c-4.55-6.3-8.41-11.65-12.39-17.17
	c9.39,2.26,28.13,24.36,28.59,33.56c0.04,0.8-0.47,2.06-1.11,2.4c-4.98,2.65-10.3,4.74-15.01,7.78c-4.64,2.99-8.69,6.89-15.66,12.56
	c2.99-4.69,3.86-6.91,5.44-8.33C97.95,61.21,96.25,60.21,92.61,58.89z M100.44,130.39c-12,2.56-21.77-3.59-22.7-14.06
	C83.33,124.43,90.96,127.44,100.44,130.39z M124.53,146.43c-18.23,0.5-35.39-4.63-52.51-10.1
	C90.11,136.57,107.34,141.4,124.53,146.43z M70.37,154.48c18.98-7.17,37.93-4.23,56.89,0C108.29,154.48,89.33,154.48,70.37,154.48z
	 M81.05,168.12c12.36-6.01,25.24-8.6,38.93-5.88C107,164.2,94.02,166.16,81.05,168.12z M138.4,327.09
	c-9.87-5.73-11.42-19.17-3.89-25.27C140.7,309.44,132.85,318.66,138.4,327.09z M134.7,281.24c-0.58,1.21-1.77,2.14-2.67,3.19
	c-0.73-1.39-2.13-2.8-2.08-4.15c0.25-6.54,0.88-13.06,1.52-21.4C137.25,266.95,138.23,273.86,134.7,281.24z M127.62,239.27
	c-2.04,0.78-4.53,0.72-5.79-1.52c-2.1-3.74-1.5-7.52,1.02-13.44c0.91,13.87,5.55,11.36,11.73,3.81
	C133.64,234.13,131.85,237.65,127.62,239.27z M124.2,257.8c4.84,13.66,1.82,24.01-5.32,33.57c-2.04,2.73-3.32,0.91-4.21-1.14
	c-5-11.44-3.77-22.48,2.69-34.84c0,8.78,0,15.92,0,26.91C120.16,272.27,121.93,265.92,124.2,257.8z M104.35,231.23
	c-5.53-1.34-2.51-6.37-2.66-13.32c4.24,13.71,9.37,6.44,15.7,3.41C113.97,227.93,110.61,232.74,104.35,231.23z M101.54,268.02
	c-1.11-0.42-2.27,2.43-3.51-0.31c-2.36-5.23,1.19-15.69,9.19-22.51c-1.52,5.5-2.63,9.53-4.21,15.22c2.83-3.49,4.57-5.63,7.77-9.57
	c-1.54,11.45-2.81,20.85-4.16,30.9C101.72,277.8,101.47,273.05,101.54,268.02z M109.56,316.05c-1.38-3.88-6.58-9.18-3.74-11.1
	c3.48-2.35,8.89,1.84,12.93,4.51c9.15,6.04,14.55,15.05,21.11,26.75c-9.77-7.37-12.61-17.86-22.23-21.9
	c2.03,2.72,3.87,5.18,5.7,7.64c-0.63,0.38-1.27,0.75-1.9,1.13c2,1.15,4,2.3,8.19,4.72C118.63,327.75,112.46,324.25,109.56,316.05z
	 M101.33,487.88c-2.56-11.25,0.79-16.08,7.7-19.16C105.62,473.49,103.15,478.7,101.33,487.88z M117.08,493.26
	c-6.45-6.8-2.69-18.1,7.25-22.03C118.91,478.04,116.44,484.61,117.08,493.26z M125.99,392.77c0.74-8.01,1.31-14.11,2.21-23.77
	C131.05,378.94,131.44,385.21,125.99,392.77z M130.3,400.48c2.73-8.31,4.59-13.96,6.45-19.61
	C138.17,387.63,137.42,393.69,130.3,400.48z M143,386.91c1.31,8.89-1.33,13.41-8.01,19.24C138.02,398.88,140,394.12,143,386.91z
	 M139.73,437.56c-3.28,0.44-5.27-1.78-6.72-5.42c4.81,0.69,8.95,0.6,13.38-1.64C145.79,435.43,142.98,437.13,139.73,437.56z
	 M140.73,422.63c-3.45,0.51-5.98-1.24-7.6-5.07c4.59-0.25,8.87-0.49,13.34-0.73C146.37,420.77,143.71,422.19,140.73,422.63z
	 M140.33,406.78c3.92-5.52,5.66-7.98,7.41-10.44C148.13,400.41,147.02,403.45,140.33,406.78z M150.56,354.99
	c-0.12,0.1-0.25,0.17-0.37,0.23c-0.13,0.05-0.26,0.08-0.39,0.1c-1.31,0.14-2.78-1.45-3.74-0.88c-0.37,0.22-0.67,0.78-0.85,1.88
	c-0.2-0.08-0.39-0.16-0.59-0.24c0.19,0.11,0.38,0.22,0.57,0.34c0,0,0.08-0.07,0.08-0.07c2.24,2.65,4.48,5.29,7.17,8.47
	c-9.88,0.35-16.78-4.21-22.32-11.15c-2.18-2.73-8.42-4.97-6.59-7.27c3.29-4.15,9.39-4.31,14.78-2.11
	C143.66,346.46,147.73,350.01,150.56,354.99z M141.64,278.56c-0.48-6.38-0.96-12.69-1.45-19.21
	C146.91,264.3,147.61,274.63,141.64,278.56z M150.08,270.26c0.36-4.86,0.61-8.08,1.02-13.58
	C153.23,262.29,154.77,265.6,150.08,270.26z M147.12,242.18c-6.07-0.48-5.17-6.42-4.85-11.6c4.22,9.86,8.34,5.73,14.02-2.63
	C154.09,236.34,153.83,242.71,147.12,242.18z M104.86,190.29c39.62,20.62,78.03,19.06,117.39,4.21
	C202.32,217.59,123.91,215.61,104.86,190.29z M162.68,363.45c4.72-7.22,2.9-15.73,4.01-23.54c-0.43,1.89-1,3.77-1.28,5.68
	c-0.57,3.88-1.51,3.09-2.98,2.27c-0.01,0.2-0.12,2.39-0.25,4.91c-7.51-8.19-0.2-25.6,12.45-30.77c1.07-0.44,2.2-0.78,3.34-1.03
	c3.05-0.66,6.97-2.47,8.92,0.31c1.85,2.63-2.33,4.51-3.59,6.87c-2.81,5.26-5.88,10.37-9.27,16.27c3.23-0.22,5.51-0.38,8.53-0.59
	C178.14,353.49,169.07,357.03,162.68,363.45z M166.17,505.32c-6.53-5.3-3.27-17.35,6.91-21.83
	C167.21,490.81,166.09,497.72,166.17,505.32z M184.61,453.31c-4.44-0.68-7.01-3.39-8.19-8.16c6.36,1.32,12.39,2.57,19.02,3.95
	C192.48,453.26,188.75,453.94,184.61,453.31z M190.11,436.04c-4.98,0.13-8.85-1.57-11.51-6.75c6.87,0.55,13.13,1.05,19.72,1.57
	C196.87,435.14,193.74,435.94,190.11,436.04z M187.6,417.73c4.45-6.18,9.54-9.51,17.22-10C201.42,415.45,196.16,418.48,187.6,417.73
	z M214.58,381.03c-1.54,7.9-7.94,10.38-15.27,13.27c2.54-7.34,5.41-13.23,12.08-16.17c0.96-0.42,2.18-0.25,3.28-0.35
	C214.65,378.86,214.78,379.98,214.58,381.03z M214.84,341.9c3.67-2.73,5.93-4.4,8.48-6.3c-1.32,0.2-2.27,0.34-3.81,0.57
	c2.99-5.96,9.33-5.55,15.59-9.47c-3.83,0.28-5.53,0.4-7.59,0.55c1.53-4.16,4.76-4.84,8.07-4.71c3.78,0.15,7.1,1.79,9.51,4.81
	c0.29,0.37-0.04,1.89-0.38,2C235.07,332.68,227.38,340.52,214.84,341.9z M277.77,324.88c11.91-6.7,24.55-9.1,38.11-4.53
	c-41.33,1.75-63.66,25.65-74.87,63.01C242.81,357.21,255.08,337.64,277.77,324.88z M275.08,415.16c-1.75-2.67-3.76-5.2-5.19-8.03
	c-4.09-8.09-4.28-17.55-9.14-25.51c-2.09-3.42,0-7.44,2.23-10.67c0.36-0.52,2.05-0.88,2.4-0.55c2.76,2.59,5.04,5.88,4.25,9.65
	C267.01,392.47,270.43,403.55,275.08,415.16z M273.49,401.1c-1.59-7.87,0.04-13.62,8.11-16.82
	C283.55,392.44,278.38,396.4,273.49,401.1z M253.15,401.12c-0.11-0.44,1.04-1.74,1.55-1.71c6.98,0.41,10.34,5.47,14.06,10.94
	C260.9,410.56,255.09,408.81,253.15,401.12z M268,433.11c-2.18-2.39-8.2-3.62-6.26-6.77c2.2-3.56,7.86-3.11,12.48-2.69
	c7.51,0.68,11.18,8.39,18.66,10.49c-0.28-3.07-0.48-5.22-0.68-7.37c4.52,10.32,12.3,16.98,21.87,22.2
	c-14.34-4.39-25.04-15.8-40.03-18.41c4.84,1.65,9.19,4.21,13.06,8.14C279.38,441.79,273.16,438.76,268,433.11z M278.65,448.51
	c-3.2-1.39-3.29-2.92-0.79-4.96c7.21-5.92,14.19-3.46,21.08,1.02c-1.71-0.15-3.42-0.29-8.09-0.69c5.73,1.75,9.88,0.96,10.68,5.54
	C293.79,451.64,286.2,451.8,278.65,448.51z M301.57,467c-1.76-0.55-0.69-1.83-0.09-2.81c5.23-8.6,18.23-9.63,25.62-1.85
	c-1.85,0.5-4.1,0.28-4.37,2.85c3-1.29,4.02,2.48,7.5,2.65C319.71,475.56,310.68,469.87,301.57,467z M323.64,453.59
	c-4.79-9.18-7.11-18.79-0.85-28.68c-1.18,21.3,6.23,37.25,27.92,45.39C341.26,471.9,329.3,464.43,323.64,453.59z M347.91,459.49
	c-2.5-4.5-0.74-10.88,4.46-16.82c7.83-8.95,18.35-15.62,22.4-27.75c2.23-6.69,3.77-13.41,4.48-20.41
	c0.69-6.74,5.13-10.99,10.7-14.18c0.54-0.31,2.07-0.07,2.15,0.2c1.6,5.5,0.4,11.08-2.65,15.27c-11.54,15.81-15.96,36.52-33.6,48.22
	C351,447.24,349.85,453.65,347.91,459.49z M356.78,448.39c3.24-5.16,7.96-4.57,12.44-8.16c-4.23,1.39-6.53,2.14-9.23,3.02
	c5.98-9.08,19.6-9.05,26.14,0.35C376.51,445.17,367.3,446.67,356.78,448.39z M378.41,419.36c1.4-6.19,4.49-9.23,10.29-8.6
	c1.06,0.12,2.79,0.51,2,2.05C388.24,417.64,383.71,418.8,378.41,419.36z M389.21,466.43c4.93-11.79,9.49-22.68,14.44-34.51
	C406.02,441.24,397.61,461.24,389.21,466.43z M448.14,307.08c0.14-5.62,1.07-9.39,5.46-10.69c2.53-0.75,2.69,1.71,2.31,3.22
	c-1.01,3.97-0.05,9.37-5.02,10.9C448.68,311.19,448.1,307.82,448.14,307.08z M441.22,377.97c-1.01,1.54,1.2,4.79-2.08,4.57
	c-2.32-0.16-3.07-2.81-2.83-5.09c0.21-2.05,0.29-5.32,2.59-5.16C441.93,372.48,440.52,375.96,441.22,377.97z M441.92,355.37
	c4.46,1.53,5.55,5.62,6.17,9.63c-0.43,1.84,0.07,5.23-1.93,4.43c-4.64-1.84-5.14-6.8-5.77-11.21
	C440.21,357.03,440.12,354.75,441.92,355.37z M449.88,338.6c9.1,10.54-0.14,47.93-12.44,54.68
	C450.08,376.72,452.16,359.23,449.88,338.6z M449.22,324.14c-0.45-3.11,1.56-3.06,3.43-2.99c4.75,0.19,6.22,3.48,6.84,7.54
	c-0.63,1.69,0.19,4.86-2.79,4.22C452.31,331.97,449.89,328.74,449.22,324.14z M449.3,312.63c1.05,0.17,1.95,1.29,3.6,2.47
	c-1.7,1.35-2.67,2.65-3.84,2.85c-0.64,0.11-2.09-1.53-2.29-2.56C446.47,313.84,447.47,312.33,449.3,312.63z M447.31,321.4
	c-0.33,3.85-2.38,6.91-6.41,7.91c-2.49,0.62-2.54-1.35-2.67-3.46c0.47-3.69,2.27-6.94,6.37-8.07
	C445.18,317.61,447.41,320.21,447.31,321.4z M441.4,314.88c-3.93-0.85-6.32-2.95-6.49-6.96c-0.12-2.79,2.1-2.93,4.37-2.86
	c3.43,0.77,6.1,2.71,5.98,6.57C445.22,313.17,444.44,315.54,441.4,314.88z M444.2,270.16c1.38,5.48,1.05,9.38-2.24,14.48
	C439.15,278.89,440.94,275.13,444.2,270.16z M437.71,256.45c2.11,5.48,2.18,9.63-1.99,14.97
	C435.15,265.6,434.48,261.39,437.71,256.45z M397.51,217.05c2.69-0.42,4.46,1.58,5.1,3.84c0.1,0.34,0.23,0.7,0.38,1.06
	c0.2,0.48,0.43,0.98,0.64,1.48c0.07,0.17,0.14,0.35,0.21,0.52c0.74,1.91,0.96,3.83-2.04,5.35c0.05,0.06,0.1,0.11,0.15,0.17
	c0.57,0.62,1.41,1.13,1.98,1.75c0.15,0.16,0.28,0.34,0.38,0.52c0.01,0.02,0.02,0.03,0.03,0.05c0.01,0.03,0.02,0.06,0.04,0.09
	c0.08,0.17,0.14,0.35,0.16,0.54c0.05,0.45-0.08,0.98-0.47,1.62c-0.35,0.56-1.94,1.04-2.43,0.72c-2.85-1.8-0.51-3.72,0.09-5.6
	c-5.22-0.58-5.51-4.53-5.56-8.43C396.17,219.45,396.86,217.15,397.51,217.05z M383.15,194.47c2.36,4.96,3.23,9.26,0.6,13.65
	c-0.08,0.13-1.9-0.31-2.21-0.86C379.21,203.02,379.02,198.9,383.15,194.47z M365.2,126.69c-1.5-0.52-2.34-1.59-1.05-2.97
	c3.56-3.8,7.79-4.22,13.06-2.35C373.84,125.66,370.57,128.56,365.2,126.69z M356.35,151.81c0.8-4.31,3.13-7.98,7.19-9.43
	c2.63-0.94,1.97,2.19,2.36,3.84c-0.21,4.47-2.44,7.49-6.88,8.37C357.54,154.89,356.01,153.66,356.35,151.81z M356.91,158.01
	c-1.02,0.95-1.6,1.95-2.31,2.05c-1.56,0.21-2.46-0.93-2.25-2.38c0.1-0.67,1.28-1.76,1.75-1.66
	C355.01,156.22,355.76,157.13,356.91,158.01z M362.02,157.64c4.4,0.14,7.02,2.88,7.56,6.63c0.4,2.74-2.88,1.78-4.91,2.26
	c-2.46-0.95-5.96-0.22-6.21-4.95C358.29,158.4,359.16,157.55,362.02,157.64z M382.49,111c-0.88,3.32-3.93,4.65-8.07,4.29
	c-1.22-0.24-4.67,0.1-4.15-1.91c0.93-3.61,4.61-4.84,8.32-4.71C380.26,108.72,383.16,108.49,382.49,111z M391.1,101.53
	c-2.74-0.23-6.26,0.14-6.16-2.54c0.13-3.42,3.89-3.35,6.68-3.45c2.82-0.09,7.39-0.02,7.2,2.58
	C398.51,102.17,393.52,100.44,391.1,101.53z M387.44,81.96c0.65-0.33,2.73,0.57,2.71,0.77c-0.41,4.54-3.19,7.41-7.59,10.12
	C381.39,87.28,383.32,84.01,387.44,81.96z M357.11,105.06c1.25,1.09,2.2,2.22,2.9,3.39c0.35,0.59,0.65,1.19,0.88,1.79
	c0.12,0.3,0.23,0.61,0.32,0.92c0.11,0.37,0.2,0.74,0.28,1.11c0.5,2.41,0.34,4.95-0.08,7.58c0.02,0,0.04,0.01,0.06,0.02
	c1.73-2.3,2.05-4.76,1.97-7.27c0-0.02,0-0.04,0-0.06c-0.04-1.26-0.19-2.53-0.3-3.79c-0.11-1.28-0.2-2.56-0.11-3.82
	c0.23-3.53,0-7.13,3.3-9.45c0.48-0.34,2.14,0.05,2.43,0.57c1.96,3.46,1.48,7.03,0.03,10.55c-0.38,0.91-0.86,1.79-1.07,2.93
	c7.02-11.6,17.79-18,30.18-22.09c2.49-0.82,5.18-1.42,7.77-1.41c1.98,0.01,5.09,0.28,5.06,2.96c-0.03,2.88-3.04,3.43-5.33,3.2
	c-25.01-2.54-34.19,15.33-43.23,33.39c-0.89,1.78-1.44,3.73-2.19,5.58c-0.17,0.43-0.54,0.77-2.18,0.8
	c1.23-4.03,2.46-8.06,3.69-12.09c0,0-0.09,0.11-0.09,0.11c0,0,0,0,0,0l0,0c0,0,0,0,0,0c0.01-0.04,0.01-0.08,0.02-0.13
	C356.82,118.9,354.85,112.9,357.11,105.06z M348.8,139.28c4.35,0.76,5.28,4.93,5.93,8.79c0.53,3.15-2.86,5.5-3.83,5.1
	c-3.62-1.48-4.56-5.23-4.94-8.73C346.44,142.18,346.1,138.81,348.8,139.28z M339.54,158.22c0.06-2.87,3.24-3.38,5.77-3.48
	c3.07-0.12,5.55,1.5,5.46,4.48c-0.08,2.72-3.04,2.98-5.48,3.27C342.76,161.9,339.48,161.31,339.54,158.22z M349.17,169.75
	c-0.03-2.64,0.33-6.22,3.38-6.35c4.23-0.18,2.95,4.36,4.17,6.68c-0.31,3.03-1.65,6.13-4.36,6.02
	C349.23,175.97,349.2,172.32,349.17,169.75z M351.6,189.19c6.76-1.7,10.71,1.87,14.31,5.89c1.2,1.34-0.18,2-1.47,2.2
	C358.16,198.26,354.4,195.11,351.6,189.19z M371.26,210.6c-3.88-0.28-7.74-1.22-8.85-5.2c-0.64-2.3,2.38-1.65,3.78-1.6
	c3.82,0.14,7.79,1.47,9.1,4.97C376.21,211.26,372.67,209.93,371.26,210.6z M361.74,175.41c6.46,8.15,4.98,19.41,12.78,25.75
	c0.01-0.03,0.02-0.05,0.03-0.08c-0.84-2.95-2.04-5.86-2.36-8.87c-0.29-2.73-0.76-7.42,2.62-7.24c3.09,0.17,3.5,4.9,2.87,8.02
	c-0.07,0.35-0.16,0.7-0.25,1.05c-0.67,2.4-1.93,4.69-2.88,7.04c0.01,0.05,0.03,0.1,0.05,0.15l-0.08-0.06
	c1.6,1.84,3.21,3.69,4.9,5.64c1.08,1.25,2.2,2.53,3.38,3.89c1.01,1.16,2.06,2.37,3.18,3.65
	C374.78,210.21,360.16,186.43,361.74,175.41z M392.6,238.51c-2.48-0.91-6.34-0.84-5.98-4.16c0.38-3.53,3.9-4.65,7.32-4.53
	c2.24,0.08,4.9-0.26,4.79,3.41C398.61,237.39,395.37,237.58,392.6,238.51z M400.74,248.3c-2.32,0.17-2.69-3.3-2.6-5.64
	c0.11-3.01,1.08-5.71,4.57-5.98c3.52-0.26,1.58,2.82,2.42,4.03C404.49,244.04,404.47,248.04,400.74,248.3z M404.78,228.13
	c0.89-3.93,3.88-6.03,7.52-7.21c0.16-0.05,0.31-0.09,0.46-0.11c0.15-0.02,0.29-0.03,0.43-0.03c0.83,0.03,1.39,0.61,1.2,1.89
	c-0.96,4.06-3.34,6.9-7.39,7.93C406.47,230.74,404.63,228.8,404.78,228.13z M414.8,241.77c-3.72-0.38-7-1.5-8.11-8.17
	c0.04,0.09,0.46-1,2.89-0.83c4.41,0.29,7.04,2.83,8.16,6.8C418.35,241.74,416.23,241.91,414.8,241.77z M421.03,253.49
	c2.26-1.8,5.45,1.49,6.59,3.87c5.44,11.33,11.84,22.28,15.56,35.82c-4.3-3.08-5.11-6.75-6.39-10.08
	c-3.17-8.23-5.86-16.63-13.54-22.21C420.97,259.24,418.15,255.78,421.03,253.49z M420.43,271.94c6.06-0.56,9.52,1.67,13.06,5.9
	C426.93,279.74,423.4,277.42,420.43,271.94z M428.73,286.1c-0.22-0.25,0.28-1.76,0.66-1.85c3.17-0.82,5.22,0.93,7.57,3.61
	C433.2,289.33,430.75,288.35,428.73,286.1z M427.33,397.98c0.45,0.02,0.87,0.08,1.24,0.19c2.65,0.79,3.57,3.79,3.4,6.88
	c0.07,1.21-0.1,2.43-0.5,3.46c-0.59,1.55-1.69,2.69-3.23,2.76c-0.17,0.01-0.35,0-0.53-0.02c-3.41-0.36-3.05-4.61-3.2-7.33
	C424.39,401.72,424.32,397.88,427.33,397.98z M413.28,413.32c-0.29-2.8,3.37-3.06,5.74-3.07c3.09-0.02,6.48,0.86,6.91,4.29
	c0.46,3.66-3.32,2.64-4.83,3.37C417.03,417.99,413.62,416.62,413.28,413.32z M427.84,423.31c-0.39,4.05-1.82,7.66-6.1,8.53
	c-2.4,0.48-1.3-2.4-1.96-3.67c0.5-3.48,0.62-7.23,5.16-7.84C426.77,420.09,428.05,421.12,427.84,423.31z M429.24,418.3
	c-0.77-0.12-1.7-1.28-1.9-2.13c-0.13-0.56,0.87-1.92,1.46-1.97c0.78-0.07,1.65,0.77,5.06,2.62
	C431.31,417.71,430.2,418.46,429.24,418.3z M437.08,429.8c-3.95-0.46-6.13-3.02-6.8-6.73c-0.39-2.12,0.33-4.2,2.98-4.08
	c4.49,0.2,5.99,3.42,6.6,6.85C439.97,428.27,439.69,430.11,437.08,429.8z M445.54,407.98c-1,4.48-4.54,7.22-9.19,7.81
	c-3.93,0.5-0.77-4.27-3.36-4.94c1.67-3.61,4.66-4.88,8.62-4.75C442.92,406.62,446.15,405.26,445.54,407.98z M447.78,389.16
	c-0.37,0.05-1.43-1.42-1.28-1.93c1.18-4.04,4.33-5.66,8.24-6.08c1.2-0.13,2.36,0.1,2.24,1.8
	C454.8,386.42,451.83,388.66,447.78,389.16z M452.3,374.07c1.22-6.46,3.65-10.53,8.58-12.75c0.4-0.18,1.97,0.92,1.93,1.32
	C462.21,368.51,458.2,371.37,452.3,374.07z M458.21,319.81c-1.35-0.85-4.15,1.24-4.04-3.28c0.12-4.93,3.05-4.32,5.71-4.49
	c2.58-0.17,6.46,0.09,6.27,3.1C465.92,318.99,461.81,319.44,458.21,319.81z"/>
<g>
</g>
<g>
</g>
<g>
</g>
<g>
</g>
<g>
</g>
<g>
</g>
</svg>
