<?xml version="1.0" encoding="utf-8"?>
<!-- Generator: Adobe Illustrator 22.0.1, SVG Export Plug-In . SVG Version: 6.00 Build 0)  -->
<svg version="1.1" id="Layer_1" xmlns="http://www.w3.org/2000/svg" xmlns:xlink="http://www.w3.org/1999/xlink" x="0px" y="0px"
	 viewBox="0 0 512 512" enable-background="new 0 0 512 512" xml:space="preserve">
<g id="Objects">
	<path fill="#ff0000" d="M145.39,253.19c0.01-0.11,0.02-0.23,0.03-0.34c-3.7-1.12-7.4-2.26-11.1-3.36
		c-0.36-0.11-0.77-0.05-1.15-0.06c-0.02,0.14-0.03,0.27-0.05,0.4C136.9,252.07,141.07,252.88,145.39,253.19L145.39,253.19z
		 M352.16,219.51c-0.02-1.13-1.05-2.23-2.05-2.19c-1.16,0.05-2.55,1.58-2.5,2.75c0.04,0.95,1.21,1.79,2.44,1.76
		C351.41,221.8,352.19,220.95,352.16,219.51L352.16,219.51z M416.83,155.11c1.55,0.87,2.91,0.99,4.3,0.78
		c0.35-0.05,0.73-0.25,1-0.49c1.39-1.28,2.08-4.4,1.36-6.6C422.43,152.14,419.6,153.41,416.83,155.11L416.83,155.11z M222.82,292.09
		c-1.23-0.09-2.57,1.05-2.69,2.3c-0.12,1.28,0.95,2.45,2.35,2.57c1.31,0.12,2.45-0.92,2.56-2.34
		C225.15,293.41,224.07,292.18,222.82,292.09L222.82,292.09z M264.16,19.77c0.03-1.25-1.04-2.24-2.43-2.26
		c-1.27-0.02-2.64,1.28-2.66,2.51c-0.02,1.14,1.18,2.31,2.43,2.38C262.86,22.48,264.13,21.21,264.16,19.77L264.16,19.77z
		 M355.18,218.98c2.03,0.79,3.81,0.81,5.61,0.44c1.62-0.34,2.01-0.93,1.75-2.6c-0.2-1.22-0.57-1.52-1.71-1.07
		c-1.42,0.56-2.8,1.23-4.15,1.93C356.18,217.93,355.82,218.41,355.18,218.98L355.18,218.98z M333.74,342.86
		c0.73-0.66,0.87-0.85,1.24-2.02c0.55-1.73,1.11-3.45,1.57-5.2c0.36-1.38,0.63-2.79,0.84-4.2c0.22-1.41,0.03-2.64-0.48-3.78
		C335.43,332.74,334.2,337.75,333.74,342.86L333.74,342.86z M412.16,127.73c1.32,0,2.58-1.33,2.6-2.73c0.02-1.3-1.25-2.49-2.63-2.46
		c-1.26,0.02-2.55,1.35-2.54,2.61C409.61,126.46,410.88,127.73,412.16,127.73L412.16,127.73z M423.84,141.9
		c0.1,0.04,0.2,0.08,0.3,0.12c0.59-1.01,1.27-1.98,1.75-3.05c0.28-0.62,0.41-1.4,0.34-2.08c-0.23-2.28-2.22-3.22-4.2-1.97
		C422.63,137.23,423.23,139.57,423.84,141.9L423.84,141.9z M373.77,250.66c0.23-1.42-1.34-2.45-2.51-2.56
		c-1.45-0.14-2.56,1.75-2.63,2.91c-0.07,1.1,1.17,2.31,2.41,2.41C372.34,253.52,373.7,252.15,373.77,250.66L373.77,250.66z
		 M259.29,228.87c1.36-0.01,2.66-1.44,2.62-2.88c-0.04-1.3-1.18-2.41-2.51-2.44c-1.47-0.03-2.76,1.36-2.7,2.92
		C256.75,227.69,258.03,228.87,259.29,228.87L259.29,228.87z M245.04,224.4c-1.23-0.04-2.71,1.36-2.76,2.63
		c-0.06,1.23,1.38,2.8,2.58,2.81c1.27,0.01,2.74-1.5,2.75-2.83C247.63,225.74,246.35,224.44,245.04,224.4L245.04,224.4z
		 M106.21,306.8c3.48,5.71,6.97,11.42,10.45,17.13C115.01,317.11,111.32,311.52,106.21,306.8L106.21,306.8z M340.15,319.73
		c-1.49-0.11-2.92,1.27-3.06,2.97c-0.09,1.06,1.32,2.22,2.8,2.3c1.4,0.08,2.61-1.03,2.77-2.54
		C342.8,321.09,341.66,319.84,340.15,319.73L340.15,319.73z M132.45,244.07c3.4-1.13,6.68-2.12,8.5-5.73
		c-0.49-0.06-0.89-0.2-1.24-0.12c-1.01,0.23-1.98,0.6-2.99,0.83c-1.4,0.32-2.56,1.02-3.52,2.06
		C132.48,241.87,132.17,242.77,132.45,244.07L132.45,244.07z M412.74,150.4c1.24,1.5,4.33,2.58,6.11,2
		c0.51-0.17,1.02-0.55,1.39-0.95c0.99-1.08,1.27-2.46,1.51-3.81C418.69,148.58,415.74,149.49,412.74,150.4L412.74,150.4z
		 M145.67,259.96c-1.1-2.03-10.36-7.8-12.33-7.76c0.1,0.18,0.17,0.36,0.28,0.51c0.14,0.2,0.28,0.39,0.45,0.56
		c2.36,2.43,5.05,4.41,8,6.05C143.12,259.9,144.31,260.1,145.67,259.96L145.67,259.96z M77.58,237.92c0.04-1.56-1.22-2.91-2.74-2.94
		c-1.56-0.03-2.97,1.31-3.02,2.88c-0.05,1.46,1.29,2.87,2.78,2.94C76.13,240.87,77.54,239.5,77.58,237.92L77.58,237.92z
		 M392.39,183.05c0,1.53,1.31,2.94,2.73,2.93c1.5-0.01,2.98-1.51,3.04-3.06c0.05-1.5-1.38-2.89-2.94-2.86
		C393.65,180.08,392.39,181.42,392.39,183.05L392.39,183.05z M301.98,235.86c1.44,0.03,2.83-1.42,2.88-3.01
		c0.05-1.45-1.49-2.93-3.1-2.99c-1.5-0.05-2.62,1.17-2.69,2.91C299.01,234.4,300.34,235.82,301.98,235.86L301.98,235.86z
		 M352.55,224.96c0.06,2.9,4.74,9.62,6.94,9.99c0.31-1.09-0.46-3.61-1.93-5.91C356.36,227.15,355.04,225.34,352.55,224.96
		L352.55,224.96z M63.09,397.3c0.01-1.51-1.43-2.89-3.01-2.89c-1.54,0-3.05,1.52-3.04,3.07c0.01,1.55,1.37,2.92,2.94,2.95
		C61.57,400.47,63.08,398.95,63.09,397.3L63.09,397.3z M320.7,394.34c-1.48,0-2.96,1.58-2.94,3.13c0.02,1.49,1.56,2.94,3.13,2.95
		c1.59,0.01,2.92-1.42,2.9-3.1C323.77,395.82,322.24,394.34,320.7,394.34L320.7,394.34z M358.38,205.51
		c-2.13,1.97-3.58,4.1-5.01,6.26c-0.75,1.13-0.92,2.4-0.68,3.72c0.1,0.58,0.29,1.11,0.92,1.37c0.13-0.09,0.29-0.14,0.35-0.24
		c1.5-2.51,2.92-5.06,4.98-7.18c0.58-0.59,0.36-1.11-0.25-1.57c-0.48,0.24-0.94,0.47-1.6,0.8
		C357.56,207.54,357.91,206.66,358.38,205.51L358.38,205.51z M272.47,255.95c-1.58,0.01-2.96,1.36-2.97,2.9
		c0,1.49,1.23,3.3,2.81,3.22c1.68-0.09,3.3-1.7,3.26-3.38C275.54,257.18,274.14,255.94,272.47,255.95L272.47,255.95z M288.52,270.32
		c1.51,0.03,3.07-1.56,3.1-3.16c0.03-1.46-1.43-3.02-2.86-3.06c-1.68-0.05-3.37,1.68-3.35,3.44
		C285.41,268.91,286.95,270.29,288.52,270.32L288.52,270.32z M253.32,260.4c1.56,0.03,3.09-1.49,3.15-3.13
		c0.06-1.49-1.58-3.17-3.12-3.19c-1.5-0.02-3.12,1.62-3.14,3.18C250.18,258.88,251.66,260.37,253.32,260.4L253.32,260.4z
		 M286.22,230.12c1.83,0.03,3.26-1.42,3.26-3.28c0-1.67-1.34-3.04-2.98-3.04c-1.67-0.01-3.35,1.55-3.37,3.12
		C283.11,228.47,284.68,230.09,286.22,230.12L286.22,230.12z M340.3,328.37c-0.1,0.02-0.2,0.03-0.3,0.05
		c-0.1,0.6-0.15,1.22-0.31,1.8c-1.08,3.77,0.21,7.14,1.75,10.47c0.25,0.54,0.59,1.09,1.49,1.17
		C343.61,337,342.39,332.6,340.3,328.37L340.3,328.37z M121.48,253.73c-0.26,0.51-0.56,0.99-0.77,1.51
		c-0.68,1.68-1.51,3.33-1.94,5.08c-0.46,1.84-0.59,3.77-0.74,5.68c-0.09,1.1-0.15,2.23,0.18,3.35c0.32-0.29,0.52-0.59,0.69-0.91
		c1.68-3.17,2.33-6.66,3.16-10.1C122.43,256.75,122.56,255.22,121.48,253.73L121.48,253.73z M67.91,370.61
		c-3.64-0.58-6.97,1.4-8.36,4.66c-0.35,0.82-0.47,1.66-0.2,2.52c0.25,0.81,0.91,1.27,1.65,1.45c0.74,0.18,1.04-0.52,1.34-1.07
		c0.27-0.5,0.57-1,0.81-1.52C64.22,374.31,65.75,372.33,67.91,370.61L67.91,370.61z M317.36,377.81c1.06-1.02,2.08-1.95,3.04-2.94
		c1.63-1.7,3.29-3.35,5.53-4.26c0.09-0.04,0.14-0.19,0.27-0.38c-1.28-0.17-2.46-0.39-3.65-0.46c-2.03-0.12-3.73,0.62-5.08,2.18
		C316.36,373.21,315.71,376.2,317.36,377.81L317.36,377.81z M395,211.73c0.4-0.87,0.69-1.8,1.2-2.58c0.95-1.46,0.62-2.69-0.37-3.93
		c-1.47-1.84-3.19-3.53-3.78-6.25C390.53,204.03,391.43,208.17,395,211.73L395,211.73z M445.27,123.06c0.1-0.04,0.19-0.09,0.29-0.13
		c-0.1-1.57-0.3-3.13-0.93-4.61c-1.34-3.14-3.9-4.74-7.07-5.55c-2.81-0.72-5.69-0.7-8.57-0.62c-0.28,0-0.56,0.08-0.84,0.12
		c1.77,0.71,3.52,1.19,5.28,1.65c2.26,0.6,4.53,1.16,6.63,2.28c2.08,1.12,3.56,2.71,4.41,4.91
		C444.71,121.77,445,122.41,445.27,123.06L445.27,123.06z M248.06,293.99c-0.02-1.63-1.83-3.2-3.64-3.15
		c-1.66,0.05-3.2,1.72-3.18,3.45c0.03,1.73,1.72,3.4,3.45,3.39C246.3,297.68,248.07,295.73,248.06,293.99L248.06,293.99z
		 M159.51,335.68c1.85,0.01,3.32-1.5,3.32-3.42c-0.01-1.66-1.77-3.43-3.44-3.45c-1.76-0.02-3.22,1.45-3.27,3.31
		C156.07,333.98,157.68,335.67,159.51,335.68L159.51,335.68z M316.81,439.19c1.63-1.59,2.76-3.49,3.23-5.73
		c0.16-0.74,0.24-1.52,0.18-2.27c-0.16-2.07-1.98-3.65-3.97-3.52c-1.15,0.08-1.94,0.94-2.22,2.43c-0.2,1.06,0.04,1.39,1.37,1.96
		c1.93,0.81,2.48,1.74,2.13,3.8C317.35,436.98,317.05,438.08,316.81,439.19L316.81,439.19z M58.24,372.95
		c3.56-3.11,7.96-3.92,12.56-4.73c-2.71-2.15-5.46-3.09-8.46-1.67C59.76,367.76,58.34,369.97,58.24,372.95L58.24,372.95z
		 M127.41,270.6c0.16-0.02,0.32-0.04,0.48-0.07c0.17-0.57,0.42-1.13,0.5-1.71c0.44-3.06,0.16-6.11-0.48-9.11
		c-0.28-1.34-0.85-2.62-1.32-3.92c-0.09-0.26-0.33-0.48-0.59-0.84c-0.16,0.76-0.27,1.31-0.39,1.87c-0.96,4.33-0.38,8.54,1.06,12.66
		C126.81,269.9,127.16,270.23,127.41,270.6L127.41,270.6z M296.3,15.13c0.69-0.84,1.27-1.47,1.76-2.16
		c1.54-2.15,2.62-4.47,2.28-7.22c-0.35-2.83-1.03-2.65-3.29-2.54c-0.05,0-0.09,0.01-0.14,0.02c-0.84,0.18-1.11,0.45-0.96,1.28
		c0.6,3.33,0.64,6.67,0.22,10.01C296.15,14.62,296.21,14.71,296.3,15.13L296.3,15.13z M344.65,222.53
		c-1.19-0.17-2.65-0.07-3.41,0.33c-2.03,1.07-4.04,2.16-6.03,3.3c-0.98,0.56-1.61,1.45-1.97,2.55c0.7,0.8,1.59,0.74,2.42,0.66
		c3.08-0.32,5.43-1.96,7.34-4.29C343.61,224.32,344.07,223.43,344.65,222.53L344.65,222.53z M421.7,142.1
		c0-0.83,0.06-1.54-0.01-2.24c-0.16-1.53-0.46-3.02-1.3-4.34c-0.67-1.05-1.55-1.67-2.86-1.43c-1.28,0.24-2.42,0.73-2.89,2.04
		c-0.46,1.28,0.33,2.2,1.12,3.04C417.36,140.86,419.55,141.38,421.7,142.1L421.7,142.1z M309.38,233.8c0.92-1.37,1.49-2.67,1.72-4.1
		c0.23-1.37-0.12-2.6-1.21-3.48c-1-0.81-2.07-1.53-3.15-2.22c-1.2-0.75-2.47-1.42-3.65-2.09c0.05,0.46,0.1,1.02,0.16,1.59
		c0.14,1.42,0.65,2.68,1.6,3.76C306.57,229.24,308.42,231.12,309.38,233.8L309.38,233.8z M124.88,250.85
		c2.14,0.01,3.82-1.48,3.85-3.43c0.03-2.04-1.71-3.97-3.55-3.99c-1.78-0.02-3.85,1.87-3.78,3.43
		C121.5,249.07,122.94,250.84,124.88,250.85L124.88,250.85z M311.49,215.25c-0.68,1.71-0.96,3.46-0.92,5.22
		c0.02,0.81,0.27,1.74,0.73,2.4c1.17,1.67,2.51,3.22,3.86,4.91c0.66-1.35,1.3-2.56,1.86-3.81c0.74-1.63,0.56-2.47-0.83-3.66
		c-0.87-0.74-1.8-1.42-2.75-2.06C312.37,217.53,311.52,216.69,311.49,215.25L311.49,215.25z M51.85,440.76
		c1.46-1.78,2.8-3.55,3.44-5.73c0.38-1.3,0.43-2.64,0.04-3.97c-0.42-1.44-1.22-2.6-2.61-3.25c-1.81-0.84-2.87-0.43-3.68,1.39
		c-0.16,0.35-0.27,0.72-0.36,1.09c-0.29,1.17-0.23,1.26,0.93,1.58c2.36,0.63,3.24,1.88,2.95,4.31
		C52.38,437.67,52.1,439.16,51.85,440.76L51.85,440.76z M79.59,381.29c1.95,0.12,4.36-2.33,3.61-4.58c-0.47-1.4-1.34-2.54-2.71-3.2
		c-2.17-1.04-4.67,0.63-4.45,3.06c0.17,1.92,1.29,3.36,2.83,4.46C79.08,381.2,79.4,381.23,79.59,381.29L79.59,381.29z
		 M332.31,375.46c-1.1-0.64-1.13-0.69-2.05-0.13c-2.71,1.65-4.61,3.96-5.54,7.02c-0.36,1.18-0.09,2.28,0.5,3.3
		c0.7,1.24,1.62,1.36,2.69,0.38c0.8-0.73,1.28-1.67,1.52-2.71C330.03,380.61,330.89,377.99,332.31,375.46L332.31,375.46z
		 M412.38,137.94c-0.27,0.34-0.51,0.64-0.75,0.94c-2,2.5-1.37,5.55,1.37,7.2c1.81,1.09,5.94,0.77,7.4-0.72
		c-1.36-1.11-2.78-2.16-4.06-3.34C415.01,140.79,413.82,139.43,412.38,137.94L412.38,137.94z M334.75,375.37
		c-1.69,1.78-2.96,3.82-3.51,6.24c-0.29,1.25,0.42,2.85,1.56,3.43c0.47,0.24,1.12,0.35,1.62,0.23c1.86-0.43,2.97-1.69,3.33-3.53
		C338.22,379.31,337.02,376.81,334.75,375.37L334.75,375.37z M399.92,206.71c0.52-0.83,0.94-1.51,1.37-2.19
		c0.97-1.57,1.01-3.14-0.04-4.7c-0.74-1.11-1.46-2.24-2.21-3.35c-0.86-1.26-1.4-2.6-1.14-4.17c0-0.03-0.12-0.09-0.22-0.16
		c-0.51,0.96-1.12,1.89-1.52,2.9c-0.9,2.28-1.05,4.54,0.44,6.7C397.69,203.3,398.72,204.9,399.92,206.71L399.92,206.71z
		 M70.35,372.65c-0.1-0.07-0.19-0.13-0.29-0.2c-0.79,0.32-1.58,0.64-2.36,0.98c-1.04,0.45-1.83,1.19-2.4,2.17
		c-1.19,2.02-1.57,4.28-1.96,6.54c-0.04,0.23,0.01,0.48,0.06,0.71c0.21,0.94,0.97,1.54,2.09,1.66c1,0.11,1.72-0.21,2.1-1.12
		c0.31-0.74,0.45-1.55,0.65-2.34c0.59-2.31,1.16-4.62,1.74-6.94C70.1,373.63,70.23,373.14,70.35,372.65L70.35,372.65z
		 M329.36,372.49c-0.07-0.06-0.13-0.14-0.2-0.17c-0.13-0.05-0.28-0.11-0.41-0.1c-2.21,0.17-4.41,0.43-6.04,2.15
		c-1.36,1.43-2.48,3.04-3,4.97c-0.2,0.73-0.32,1.5-0.34,2.25c-0.03,0.9,0.36,1.35,1.13,1.62c0.81,0.28,1.49,0.1,2.02-0.62
		c0.31-0.42,0.56-0.89,0.81-1.35c1.69-3.1,3.37-6.21,6.04-8.62C329.37,372.61,329.36,372.54,329.36,372.49L329.36,372.49z
		 M72.51,373.69c-0.13,0.02-0.26,0.03-0.39,0.05c-1.3,2.14-2.14,4.41-2.23,6.97c-0.07,2.16,2.01,4.45,3.93,4.91
		c1.96,0.46,3.99-1.02,4.05-3.02c0.01-0.3-0.16-0.64-0.34-0.89c-0.22-0.3-0.52-0.55-0.82-0.8c-1.86-1.55-3.11-3.46-3.67-5.83
		C72.93,374.6,72.69,374.15,72.51,373.69L72.51,373.69z M85.77,252.38c-1.17-1.43-2.39-2.48-3.81-3.39c-2.43-1.56-6.3-0.29-7.3,2.94
		c-0.91,2.92,1.47,6.12,4.3,5.75c1.61-0.21,3.01-0.97,4.46-1.82c-3.6-1.6-3.8-1.75-4.41-3.29
		C81.25,252.83,83.42,253.01,85.77,252.38L85.77,252.38z M170.33,266.52c0.87,1.04,1.44,1.86,2.16,2.54c1.75,1.67,4,1.46,5.49-0.44
		c2.11-2.69,1.14-6.61-1.98-7.98c-3.11-1.36-6.77-0.18-8.64,2.87c1.18,0.1,2.32,0.16,3.46,0.3c0.8,0.1,1.61,0.25,2.39,0.45
		c0.55,0.15,0.91,0.56,0.85,1.17c-0.06,0.63-0.59,0.66-1.07,0.73C172.23,266.27,171.48,266.37,170.33,266.52L170.33,266.52z
		 M311.91,240.4c-0.1,0.46-0.26,0.91-0.3,1.38c-0.29,2.83,0.48,5.3,2.54,7.33c1.33,1.31,2.68,2.62,3.9,4.02
		c2.5,2.87,3.86,6.15,3.27,10.05c-0.03,0.23,0.07,0.48,0.14,0.89c1.98-2.68,2.71-5.46,2.14-8.56c-0.54-2.92-1.89-5.29-4.48-6.88
		c-1.14-0.7-2.22-1.5-3.35-2.23C313.57,245.01,312.08,243.2,311.91,240.4L311.91,240.4z M159.95,210.18
		c0.1-2.04-0.04-3.76-1.23-5.21c-2.07-2.53-6.22-2.53-8.67,0.02c-1.26,1.31-1.88,2.91-1.46,4.74c0.79,3.44,4.13,5.18,7.63,3.96
		c-0.33-0.77-1.07-1.05-1.65-1.51c-0.97-0.76-1.19-1.48-0.75-2.49c0.42-0.97,1.22-1.44,2.34-1.17c0.87,0.21,1.69,0.63,2.52,0.99
		C159.05,209.67,159.39,209.88,159.95,210.18L159.95,210.18z M78.93,292.28c0.04,0.09,0.07,0.19,0.13,0.25
		c2.86,3.33,6.27,6.03,9.82,8.56c1.48,1.06,3,2.06,4.44,3.16c4.79,3.68,8.72,8.17,12.28,13.01c0.22,0.3,0.47,0.57,0.92,1.11
		c-1.84-6.39-6.87-14.28-14.13-18.41C87.92,297.43,83.44,294.85,78.93,292.28L78.93,292.28z M326.27,260.29
		c1.14-1.37,1.87-2.64,2.51-3.95c0.44-0.89,0.79-1.86,0.94-2.83c0.47-2.92-0.51-5.38-2.69-7.35c-1.49-1.35-3.04-2.63-4.56-3.95
		c-2.34-2.04-3.44-4.54-2.88-7.67c0.04-0.21,0.01-0.43,0.01-0.93c-0.77,1.2-1.21,2.24-1.43,3.36c-0.71,3.51,0.34,6.49,2.66,9.14
		c1.29,1.47,2.58,2.97,3.68,4.58c1.72,2.54,2.56,5.34,1.83,8.45C326.27,259.41,326.3,259.69,326.27,260.29L326.27,260.29z
		 M219.21,228.71c1.25,1.89,2.73,3.38,4.8,4.2c2.78,1.09,5.8-0.71,6.21-3.66c0.6-4.33-3.11-7.68-6.57-7.54
		c-1.85,0.07-3.48,0.59-4.92,1.71c-1.09,0.85-2.16,1.74-3.22,2.63c-0.26,0.22-0.47,0.49-0.89,0.95c0.8-0.21,1.3-0.38,1.81-0.47
		c1.79-0.3,3.58-0.61,5.37-0.84c0.51-0.07,1.05,0.11,1.88,0.21C222.38,227.52,220.55,227.67,219.21,228.71L219.21,228.71z
		 M179.08,231.41c1.52-0.39,2.67-0.81,3.63-1.6c1.11-0.92,1.79-2.1,1.81-3.6c0.05-3.41-3.06-6.05-6.43-5.44
		c-1.64,0.3-3.13,0.95-4.34,2.1c-1.77,1.68-3.5,3.4-5.19,5.16c-1.08,1.12-1.95,2.45-3.7,3.23c0.47,0.1,0.64,0.17,0.8,0.17
		c2.69-0.1,5.33-0.49,7.93-1.23c1.37-0.39,2.24-1.23,2.62-2.59c0.09-0.32,0.19-0.64,0.29-0.96c0.19-0.61,0.61-0.99,1.23-1.05
		c1.09-0.11,2.16,0.07,2.88,0.95c0.7,0.85,0.39,1.83-0.02,2.72c-0.18,0.38-0.49,0.7-0.74,1.05
		C179.67,230.59,179.48,230.85,179.08,231.41L179.08,231.41z M345.14,369.72c0.06-0.05,0.12-0.09,0.18-0.14
		c-0.62-1.23-1.18-2.48-1.86-3.67c-1.9-3.35-4.78-5.09-8.64-4.81c-3.44,0.25-6.78-0.11-10.12-0.84c-2.5-0.54-4.96-0.23-7.3,0.84
		c-0.27,0.12-0.51,0.33-0.76,0.51c1.77,0.6,3.45,1.11,5.1,1.73c1.07,0.4,2.09,0.96,3.14,1.42c2.55,1.12,5.19,1.61,7.98,1.28
		c1.14-0.13,2.3-0.19,3.44-0.12c2.99,0.18,5.73,1.06,7.98,3.16C344.55,369.32,344.85,369.51,345.14,369.72L345.14,369.72z
		 M421.58,109.94c0.09,0.47,0.14,0.7,0.18,0.94c1.12,5.2,3.14,9.94,6.87,13.83c2.59,2.7,5.78,4.02,9.47,4.17
		c2.97,0.13,5.79-0.59,8.56-1.58c0.28-0.1,0.54-0.25,0.83-0.39c-1.33-0.71-2.61-1.25-3.73-2.03c-1.28-0.88-2.34-1.12-3.73-0.14
		c-1.98,1.4-6.44,0.43-8.08-1.8c-0.93-1.27-1.15-2.71-1.22-4.2c-0.03-0.61,0-1.21,0-1.76C426.61,115.82,425.13,114.67,421.58,109.94
		L421.58,109.94z M400.25,142.9c-2.43,17.22,14.69,30,30.53,24.26c-0.62-0.05-1.02-0.1-1.43-0.12c-3.02-0.18-5.98-0.57-8.85-1.64
		c-5-1.86-9.57-4.35-13.24-8.33c-3.04-3.29-5.4-6.95-6.42-11.37C400.63,144.77,400.45,143.83,400.25,142.9L400.25,142.9z
		 M166.74,224.39c0.09,0.06,0.18,0.12,0.26,0.18c1.16-1.81,2.38-3.57,3.45-5.43c1.26-2.17,2.22-4.46,2.11-7.07
		c-0.02-0.47,0.08-0.96,0.21-1.42c0.25-0.9,1.2-1.51,2.09-1.42c0.76,0.08,1.18,0.58,1.32,1.64c0.06,0.47,0,0.96,0.07,1.43
		c0.05,0.38,0.22,0.75,0.39,1.29c0.81-0.61,1.45-1.03,2.01-1.54c2.38-2.17,1.99-5.36-0.82-6.95c-1.43-0.81-2.98-1.01-4.59-0.92
		c-3.35,0.18-6.06,2.64-6.62,5.95c-0.3,1.73-0.11,3.44,0.14,5.15C167.21,218.32,167.65,221.36,166.74,224.39L166.74,224.39z
		 M387.21,144.52c-0.1-0.1-0.21-0.19-0.31-0.29c-0.47,0.36-0.98,0.69-1.41,1.1c-3.81,3.54-7.06,7.55-9.79,11.97
		c-5.97,9.65-7.63,20.09-5.51,31.18c0.12,0.64,0.29,1.27,0.44,1.9c0.47-2.52,0.72-5.02,1.13-7.49c0.65-3.96,1.18-7.97,2.18-11.85
		c2.05-8,5.8-15.27,10.36-22.13C385.25,147.44,386.23,145.98,387.21,144.52L387.21,144.52z M221.89,322.83
		c-5.73-0.53-13.14,2.37-15.82,8.81c-2.92,7.02-0.93,14.58,4.02,18.94C206.73,338.31,211.7,329.48,221.89,322.83L221.89,322.83z
		 M355.93,216.06c0.07,0.08,0.14,0.16,0.21,0.24c0.38-0.25,0.79-0.45,1.12-0.74c1.18-1.05,2.33-2.13,3.5-3.19
		c0.42-0.38,0.82-0.85,1.33-1.08c1.7-0.78,3.48-1.36,5.36-1.53c0.28-0.03,0.58,0.09,1.02,0.17c-1.74,2.03-4.04,3.08-5.81,4.82
		c0.57,0.15,1.08,0.2,1.58,0.14c1.85-0.25,3.68-0.6,5.54-0.79c3.39-0.36,5.49-4.33,3.06-7.67c-0.59-0.81-1.1-1.67-1.59-2.54
		c-0.87-1.54-2.08-2.62-3.85-2.96c-2.91-0.57-5.38,0.38-7.53,2.28c-0.44,0.39-0.68,0.98-1.16,1.69c1.06-0.19,1.86-0.84,2.7-0.13
		c0.12,1.06-0.67,1.49-1.42,1.99c0.21,0.69,0.42,1.36,0.65,2.12c0.92-0.38,1.71-0.72,2.51-1.04c0.78-0.31,1.51-0.95,2.58-0.32
		c-0.16,0.26-0.43,0.38-0.65,0.54c-1.62,1.18-3.25,2.35-4.85,3.56c-0.76,0.58-1.49,1.21-2.18,1.86
		C357.21,214.24,356.53,215.12,355.93,216.06L355.93,216.06z M195.17,252.95c-0.82-0.2-1.49-0.07-2.14,0.33
		c-1.22,0.76-2.47,1.46-3.69,2.22c-1.04,0.64-2.12,0.92-3.28,0.45c-1.83-0.73-3.3-1.93-4.31-3.63c-0.17-0.29-0.19-0.67-0.32-1.16
		c0.6,0.07,1.02,0.13,1.44,0.17c1.48,0.14,2.95,0.34,4.43,0.38c1.5,0.04,2.19-0.93,1.77-2.36c-0.31-1.04-0.87-1.96-1.83-2.49
		c-0.91-0.5-1.89-0.98-2.9-1.2c-2.89-0.61-5.81-0.45-8.7,0.15c-0.94,0.2-1.86,0.44-3,0.71c0.41,0.33,0.59,0.49,0.79,0.62
		c2.14,1.41,3.97,3.16,5.59,5.13c0.88,1.07,1.74,2.17,2.68,3.19c1.7,1.87,3.67,3.36,6.15,4.07c1.56,0.44,3.1,0.53,4.66-0.03
		C195.27,258.52,196.43,255.72,195.17,252.95L195.17,252.95z M350.48,225.51c-0.12,1.81-0.19,3.56-0.37,5.3
		c-0.33,3.08,0.23,6.01,1.37,8.85c0.28,0.71,0.61,1.41,0.84,2.14c0.19,0.58-0.28,1.06-0.86,0.92c-0.27-0.07-0.56-0.21-0.75-0.4
		c-0.76-0.75-1.49-1.54-2.35-2.44c0.1,1.13,0.21,2.19,0.27,3.26c0.07,1.25,0.62,2.29,1.3,3.29c1.94,2.83,7.25,2.94,8.89,0.24
		c0.55-0.9,1.24-1.03,2.18-0.83c1.38,0.29,2.48-0.25,3.2-1.41c0.42-0.68,0.8-1.44,0.96-2.21c0.53-2.49-0.55-5.2-4.08-7.04
		c0.34,1.99-0.31,3.55-1.95,4.89c-1.23-1.1-2.37-2.12-3.78-3.37c0,1.39,0.03,2.44-0.01,3.48c-0.03,1.1-0.31,1.35-1.38,1.32
		c-0.93-0.02-1.14-0.26-1.17-1.37c-0.01-0.57,0.07-1.15,0.06-1.72c0-1.43,0.18-2.91-0.08-4.29c-0.53-2.81-1.3-5.58-1.98-8.37
		C350.76,225.68,350.65,225.64,350.48,225.51L350.48,225.51z M145.67,294.67c1.36,0.32,2.77,0.58,4.14,0.97
		c4.27,1.23,8.21,3.14,11.85,5.7c3.06,2.15,6.08,4.35,8.51,7.24c3.26,3.87,5.73,8.14,6.37,13.27c0.02,0.16,0.16,0.3,0.33,0.62
		c0.07-0.88,0.13-1.55,0.18-2.21c0.03-0.33,0.05-0.67,0.06-1c0.31-8.63-3.09-15.51-10.13-20.41
		C160.55,294.37,153.3,293.26,145.67,294.67L145.67,294.67z M331.31,219.83c0.31-0.09,0.53-0.18,0.76-0.21
		c2.39-0.3,4.77-0.38,7.16,0.01c1.27,0.21,2.55,0.4,3.83,0.56c0.44,0.06,0.97,0.23,1.28-0.32c-0.09-0.59-0.56-0.59-0.98-0.65
		c-0.9-0.12-1.82-0.16-2.71-0.33c-2.87-0.54-5.73-1.12-8.59-1.71c-0.39-0.08-0.89-0.1-0.9-0.74c1.22-0.73,2.56-0.85,3.88-0.56
		c2.24,0.48,4.45,1.1,6.66,1.68c0.51,0.13,0.99,0.42,1.57,0.17c-0.47-0.35-0.96-0.61-1.48-0.79c-1.26-0.44-2.55-0.84-3.81-1.28
		c-1.81-0.64-3.27-1.84-4.79-3.06c0.53-0.27,1.02-0.4,1.52-0.45c0.54-0.05,1.08-0.01,1.8-0.01c-0.42-0.47-0.72-0.84-1.06-1.16
		c-2.66-2.5-6.92-2.66-9.43-0.34c-1.26,1.16-1.83,2.6-1.35,4.28c0.3,1.04,0.21,1.95-0.27,2.9c-1.24,2.45,0.3,5.08,1.89,6.39
		c1.55,1.27,4.22,1.21,6.05-0.04c0.9-0.62,1.89-1.1,2.85-1.64c0.32-0.18,0.63-0.36,0.95-0.54c-1.05-0.35-2.07-0.45-3.09-0.54
		C331.75,221.36,331.74,221.35,331.31,219.83L331.31,219.83z M346.16,224.53c-2.06,2.4-3.96,4.72-5.98,6.94
		c-0.89,0.98-1.92,1.89-3.03,2.61c-2.05,1.33-3.63,0.85-4.88-1.28c0.8-1.12,0.81-1.41,0.09-2.47c-1.05,0.43-2.4,1.59-3.05,2.87
		c-1.91,3.76-1.02,6.01,1.31,7.96c0.94,0.79,1.96,0.9,3.13,0.77c0.2,0.42,0.41,0.79,0.55,1.19c0.62,1.78,1.96,2.52,3.75,2.57
		c3.48,0.1,6.71-2.61,7.26-6.12c0.15-0.95,0.68-2.02-0.72-2.57c0.56-0.86,1.06-1.62,1.56-2.38c1.61-2.48,2.47-5.17,2.26-8.15
		c-0.04-0.53-0.21-1.05-0.32-1.62c-0.25,0.13-0.38,0.15-0.41,0.22c-0.93,1.94-1.86,3.88-2.78,5.83c-0.94,1.99-1.53,4.02-0.62,6.33
		c-1.74,0.49-2.27,2.64-4.35,2.82c-0.41-2.13,0.73-3.91,1.04-6.13c-0.65,0.64-1.02,1.07-1.46,1.43c-0.88,0.73-1.77,1.45-2.7,2.13
		c-0.21,0.15-0.56,0.11-1,0.19c0.33-1.14,0.88-1.92,1.54-2.61c1.96-2.04,3.97-4.02,5.92-6.07
		C344.46,227.72,345.49,226.31,346.16,224.53L346.16,224.53z M448.44,168.45c-0.03-0.06-0.05-0.12-0.08-0.19
		c-1.27,0.35-2.54,0.7-3.81,1.05c-6.45,1.77-12.99,2.88-19.7,2.72c-4.55-0.11-8.83-1.26-12.79-3.42c-4.13-2.26-7.49-5.46-10.28-9.25
		c-0.27-0.36-0.53-0.73-0.88-1.2c-0.06,0.3-0.12,0.4-0.09,0.48c1.93,6.02,5.52,10.85,10.87,14.17c4.77,2.96,10.11,4.08,15.7,3.62
		c7.42-0.61,14.13-3.25,20.3-7.36C447.96,168.89,448.19,168.66,448.44,168.45L448.44,168.45z M355.23,222.03
		c-0.09,0.08-0.19,0.17-0.28,0.25c0.29,0.41,0.55,0.84,0.88,1.22c1.36,1.6,3.02,2.78,5.03,3.45c2.22,0.74,4.12,2.01,5.94,3.43
		c0.33,0.26,0.84,0.55,0.53,1.02c-0.2,0.29-0.7,0.49-1.08,0.52c-0.51,0.03-1.07-0.05-1.54-0.26c-1.04-0.47-2.04-1.04-3.04-1.59
		c-0.38-0.2-0.74-0.44-1.1-0.67c1.25,1.65,2.49,3.23,3.91,4.64c0.68,0.67,1.66,1.21,2.59,1.43c1.58,0.38,3.22,0.35,4.83-0.13
		c2.88-0.86,4.57-4.25,3.4-7c-0.34-0.81-0.28-1.41,0.16-2.13c0.37-0.6,0.75-1.31,0.76-1.97c0.04-3.01-1.78-5.19-4.53-5.25
		c-1.9-0.04-3.82,0.1-5.73,0.21c-0.54,0.03-1.07,0.22-1.61,0.34c-0.01,0.1-0.02,0.19-0.03,0.28c0.48,0.17,0.96,0.34,1.44,0.51
		c0.85,0.31,1.73,0.58,2.55,0.95c1.03,0.46,1.2,0.98,0.83,2.26c-1.77-0.41-3.55-0.83-5.33-1.24c0.77,0.58,1.61,0.91,2.44,1.27
		c0.83,0.36,1.78,0.56,2.3,1.78c-3.39-1.13-6.62-1.98-9.67-3.37c-1.3-0.59-1.3-0.6-2.55-0.56c2.68,1.73,5.45,3.09,8.51,3.84
		c1.02,0.25,2.04,0.53,3.03,0.86c0.3,0.1,0.55,0.39,0.96,0.7c-0.42,0.23-0.61,0.38-0.82,0.43c-1.72,0.45-3.45,0.45-5.06-0.33
		c-1.67-0.81-3.3-1.74-4.88-2.72C357.05,223.58,356.17,222.76,355.23,222.03L355.23,222.03z M322.35,421.18
		c-0.06,0.41-0.11,0.51-0.08,0.58c0.15,0.35,0.33,0.69,0.48,1.04c1.08,2.47,1.97,4.98,2.1,7.71c0.13,2.77-0.88,5.07-3.01,6.82
		c-0.92,0.76-1.89,1.5-2.94,2.06c-3.51,1.85-6,4.75-8.15,7.93c-1.9,2.81-3.58,5.77-5.28,8.71c-0.9,1.55-1.64,3.19-2.45,4.79
		c0.3,0,0.46-0.09,0.59-0.21c4.36-3.88,8.76-7.72,13.07-11.67c2.47-2.26,4.93-4.56,7.11-7.09c5.18-6.03,4.52-14.17-0.29-19.55
		C323.19,421.95,322.84,421.65,322.35,421.18L322.35,421.18z M38.8,460.57c0.14-0.1,0.28-0.2,0.41-0.31
		c3.46-2.8,6.96-5.56,10.38-8.4c2.76-2.29,5.47-4.65,8.14-7.05c1.55-1.39,2.68-3.1,3.5-5.03c2.89-6.79,0.57-14.87-4.01-19.57
		c-0.07-0.08-0.21-0.08-0.47-0.18c0.21,0.58,0.39,1.01,0.54,1.45c0.73,2.22,1.67,4.41,2.14,6.69c1.31,6.27-0.19,8.76-4.47,11.76
		c-1.25,0.88-2.49,1.79-3.66,2.78C45.59,447.54,42.19,454.04,38.8,460.57L38.8,460.57z M140.07,437.65c0.33,0.01,0.6,0.06,0.88,0.03
		c1.93-0.15,3.48,0.54,4.59,2.12c0.47,0.66,0.93,1.35,1.24,2.09c1.13,2.75,1.58,5.65,1.31,8.59c-0.53,5.86-2.47,11.28-5.48,16.33
		c-0.05,0.09-0.01,0.24-0.01,0.5c0.4-0.29,0.73-0.48,1-0.72c3.61-3.25,6.47-7.06,8.31-11.57c1.52-3.72,2.4-7.59,2.22-11.63
		c-0.16-3.47-0.99-6.81-2.15-10.08c-1.48-4.15-4.16-7.29-7.89-9.56c-2.03-1.24-4.31-1.61-6.7-1.67c0.03,0.22,0.02,0.29,0.04,0.31
		c0.38,0.19,0.76,0.39,1.16,0.55c3.59,1.45,6.59,3.71,8.94,6.78c2.38,3.1,3.75,6.58,3.27,10.57c-0.24,1.94-0.64,3.87-1.01,5.8
		c-0.06,0.34-0.28,0.64-0.55,1.21c-0.29-1.32-0.46-2.35-0.75-3.36c-0.66-2.3-1.34-4.59-2.08-6.86c-0.39-1.21-1.17-2.19-2.17-2.98
		c-0.86-0.68-1.85-1.01-2.92-1.05c-0.73-0.03-1.24,0.25-1.45,1.07C139.57,435.31,139.65,436.45,140.07,437.65L140.07,437.65z
		 M135.37,384.99c7.9-4.24,13.92-10.39,18.72-17.82c4.66-7.21,8.77-19.24,8.29-24.5c-0.89,1.34-1.72,2.68-2.63,3.97
		c-4.93,6.97-9.25,14.31-13.19,21.88c-2.93,5.62-6.22,11.01-10.56,15.69C135.77,384.45,135.58,384.73,135.37,384.99L135.37,384.99z
		 M350.1,214.33c0.13,0.01,0.26,0.02,0.4,0.03c0.16-0.22,0.38-0.41,0.48-0.65c0.79-2,1.52-4.03,2.34-6.02
		c0.5-1.23,0.93-2.56,1.7-3.61c1.46-1.98,1.38-4.02,0.62-6.13c-0.8-2.24-3.2-4.4-6.6-2.86c-0.17,0.08-0.36,0.14-0.52,0.24
		c-0.7,0.43-1.39,0.46-2.17,0.16c-1.38-0.54-2.53-0.16-3.4,1.05c-0.36,0.5-0.75,1-1.13,1.49c-0.4,0.51-0.88,0.77-1.59,0.77
		c-1.81,0-3.16,1.07-3.61,2.88c-0.62,2.49-0.34,4.77,1.84,6.49c0.34,0.27,0.63,0.58,0.95,0.88c1.52,1.44,1.83,2.9,1.02,4.77
		c1.08,0.78,2.13,1.61,3.27,2.31c1.52,0.95,1.74,0.62,2.59-0.73c0.49-0.79,0.05-1.39-0.48-1.91c-1.67-1.64-3.19-3.45-5.22-4.69
		c-0.56-0.34-0.98-0.79-1.01-1.48c-0.05-1,0.16-1.94,0.98-2.58c0.53-0.42,1.69,0.05,2.52,0.91c0.38,0.4,0.75,0.81,1.23,1.33
		c-0.08-1.79-0.66-3.33-0.47-5.1c1.04,0.38,1.44,1.08,1.66,1.85c0.45,1.51,0.85,3.04,1.19,4.58c0.34,1.54,0.56,3.11,0.87,4.66
		c0.06,0.28,0.24,0.54,0.37,0.81c0.22-0.28,0.3-0.51,0.26-0.72c-0.23-1.27-0.43-2.55-0.75-3.8c-0.63-2.41-0.26-4.76,0.26-7.11
		c0.07-0.29,0.3-0.55,0.45-0.8c0.93,0.24,1.22,0.77,1.21,1.61c-0.01,1.77,0,3.54,0.11,5.31c0.09,1.57,0.31,3.14,0.48,4.71
		C349.97,213.44,350.04,213.89,350.1,214.33L350.1,214.33z M371.21,422.15c4.65,2.5,8.34,5.83,10.38,10.78
		c1.72,4.18,1.12,12-1.23,14.77c-0.12-3.35-0.98-6.49-1.75-9.66c-0.39-1.58-1.07-2.97-2.33-4.04c-1.1-0.94-2.53-1.24-3.45-0.72
		c-0.9,0.51-1.36,1.93-1.09,3.36c0.18,0.95,0.35,1.19,1.31,1.13c2.05-0.13,3.37,0.91,4.31,2.55c0.52,0.91,1.03,1.87,1.29,2.87
		c1.05,3.95,1.27,7.93,0.04,11.91c-1.24,4.03-3.28,7.65-5.61,11.12c-0.39,0.58-0.77,1.16-1.16,1.75c3.9-2.38,7.4-5.11,9.91-8.97
		c1.77-2.71,3.38-5.48,3.98-8.7c1.18-6.31,0.27-12.39-2.2-18.28c-1.13-2.69-2.63-5.1-4.93-6.96
		C376.52,423.3,374.06,422.26,371.21,422.15L371.21,422.15z M410.6,104.78c0.04,0.08,0.08,0.16,0.12,0.23
		c0.43-0.17,0.86-0.33,1.28-0.51c5.64-2.51,11.5-4.18,17.7-4.56c6.86-0.41,12.82,1.59,17.77,6.47c3.42,3.37,5.72,7.41,7.33,11.87
		c0.96,2.66,1.77,5.36,2.67,8.04c0.18,0.53,0.41,1.05,0.62,1.57c0.15-1.28,0.08-2.47-0.09-3.65c-0.55-3.69-0.99-7.41-1.78-11.05
		c-1.23-5.69-4.31-10.31-8.99-13.77c-5.04-3.73-10.75-4.51-16.81-3.5c-6.3,1.04-11.97,3.62-17.28,7.08
		C412.28,103.57,411.45,104.18,410.6,104.78L410.6,104.78z M377.38,117.96c2.28-1.31,4.19-3,6.16-5.18
		c-1.68,0.47-3.05,0.82-4.4,1.22c-2.53,0.75-5.04,1.54-7.56,2.28c-1.09,0.32-2.21,0.25-3.34,0.09c2.32-1.63,4.54-3.28,6.26-5.54
		c-1.27,0.18-2.47,0.48-3.65,0.84c-2.92,0.9-5.9,1.26-8.94,1.09c-0.33-0.02-0.66-0.12-0.98-0.19c2.62-1.02,4.7-2.66,6.81-4.35
		c-5.59,1.47-11.13,2.98-17.2,1.14c0.45,0.54,0.66,0.84,0.93,1.1c5.51,5.33,11.84,9.24,19.33,11.12c3.66,0.92,7.37,1.17,11.11,0.37
		c4.09-0.88,7.28-3.22,10.08-6.24C387.26,117.27,382.41,117.99,377.38,117.96L377.38,117.96z M142.14,290.19
		c2.82-0.7,5.51-1.08,8.25-1.1c3.61-0.03,7.2,0.29,10.68,1.22c9.7,2.61,17.2,7.92,21.08,17.56c-0.05,0.03,0.01,0.01,0.01-0.01
		c0.08-0.81,0.17-1.61,0.22-2.42c0.24-3.93-0.16-7.76-1.88-11.36c-1.58-3.32-3.97-5.82-7.39-7.31c-4.41-1.93-9.04-2.45-13.78-2.15
		c-6.01,0.37-11.4,2.77-16.76,5.24C142.47,289.9,142.38,290.01,142.14,290.19L142.14,290.19z M392.1,134.05
		c-0.08-0.1-0.17-0.19-0.26-0.29c-1.91,1.42-3.84,2.83-5.74,4.27c-5.68,4.27-11.08,8.84-15.49,14.48c-3.14,4.02-6,8.16-7.63,13.07
		c-1.96,5.91-2.24,11.83-0.49,17.8c0.67,2.3,1.65,4.51,2.48,6.76c0.23-0.38,0.24-0.7,0.23-1.02c-0.12-4.65-0.08-9.29,0.77-13.89
		c1.06-5.7,2.96-11.09,5.86-16.12c3.45-5.96,7.85-11.22,12.38-16.36c2.35-2.66,4.79-5.22,7.19-7.83
		C391.66,134.66,391.87,134.34,392.1,134.05L392.1,134.05z M141.91,302.37c0.66,0.36,1.31,0.73,1.98,1.06
		c3.42,1.69,5.58,4.42,6.67,8.04c0.33,1.1,0.71,2.19,1.02,3.29c0.41,1.42,1.27,2.48,2.59,3.1c0.77,0.36,1.6,0.66,2.43,0.83
		c1.64,0.34,3.3,0.58,4.95,0.85c2.82,0.46,5.52,1.2,7.69,3.22c0.03,0.03,0.15-0.04,0.28-0.08c-1.08-4.21-2.58-8.23-5.19-11.73
		c-3.25-4.36-7.48-7.37-12.78-8.75C148.37,301.38,145.18,301.74,141.91,302.37L141.91,302.37z M331.76,327.73
		c-0.07-0.07-0.14-0.14-0.21-0.21c-0.94,0.55-1.83,1.2-2.82,1.64c-3.62,1.61-6.83,3.86-9.92,6.3c-1.91,1.51-2.91,3.54-3.12,5.93
		c-0.23,2.61,1.37,5.24,3.81,6.18c0.78,0.3,1.7,0.45,2.52,0.35c1.06-0.13,1.65,0.2,1.98,1.15c0.05,0.13,0.14,0.25,0.21,0.38
		c1.22,2.18,3.12,3.17,5.59,3.08c3.89-0.13,6.6-2.15,7.8-5.88c0.28-0.89,0.43-1.87,0.4-2.8c-0.04-1.13-0.25-1.23-1.58-1.52
		c-1.47,1.55-3.02,3.08-5.08,4.2c-0.61-1.45-0.41-2.81-0.35-4.11c0.06-1.32,0.42-2.62,0.64-3.93c-0.59,0.35-0.88,0.84-1.25,1.25
		c-0.79,0.89-1.6,1.78-2.46,2.6c-0.56,0.54-1.27,0.74-2.15,0.44c0.24-0.52,0.39-0.98,0.65-1.37c1.42-2.16,2.79-4.35,4.33-6.43
		c1.49-2.01,2.76-4.14,3.82-6.41c0.17-0.36,0.25-0.77,0.37-1.15c-2.94,3.62-4.75,8.11-9,10.69c-0.06-0.25-0.09-0.39-0.12-0.52
		c-0.23-1.16-0.55-1.33-1.49-0.71c-0.55,0.37-1.05,0.83-1.54,1.28c-0.59,0.54-1.22,0.86-2.07,0.61c0-0.4-0.02-0.73,0-1.06
		c0.26-3.3,0.25-3.33,3.33-4.54c2.63-1.03,4.93-2.55,6.93-4.52C331.25,328.4,331.49,328.05,331.76,327.73L331.76,327.73z
		 M353.07,331.27c0.42,0.52,0.67,0.91,1,1.22c0.73,0.69,1.51,1.33,2.25,2.01c0.39,0.36,0.78,0.72,1.07,1.15
		c0.16,0.24,0.25,0.72,0.12,0.91c-0.19,0.26-0.61,0.41-0.96,0.5c-0.2,0.05-0.45-0.14-0.68-0.2c-3.11-0.88-5.53-2.78-7.68-5.11
		c-0.29-0.32-0.62-0.6-0.92-0.9c-0.08,0.08-0.16,0.16-0.24,0.24c1.72,2.17,3.45,4.35,5.18,6.52c0.57,0.71,1.18,1.39,1.73,2.11
		c0.17,0.22,0.19,0.56,0.36,1.13c-0.65-0.3-1.07-0.41-1.38-0.66c-1.41-1.14-2.92-2.2-4.16-3.51c-1.24-1.31-2.25-2.85-3.29-4.34
		c-1-1.44-1.9-2.93-3-4.64c0,0.45-0.05,0.6,0.01,0.71c0.94,1.77,1.79,3.61,2.88,5.3c1.79,2.78,3.72,5.47,4.99,8.55
		c0.15,0.36,0.24,0.75,0.47,1.46c-2.61-0.73-3.79-2.7-5.46-4.44c-0.14,2.41-0.27,4.57-0.4,6.69c-1.45,0.13-2.03-1.07-3.15-1.71
		c1.22,3.69,3.12,6.62,7,7.06c4.49,0.5,7.96-1.29,9.44-5.69c0.81-0.18,1.44-0.23,2-0.45c2.22-0.87,3.66-2.45,3.97-4.86
		c0.35-2.67-0.49-4.93-2.66-6.59c-1.63-1.24-3.61-1.73-5.5-2.42C355.13,330.95,354.26,331.15,353.07,331.27L353.07,331.27z
		 M458.05,161.7c-0.01-0.08,0-0.28-0.06-0.45c-0.96-2.6-1.8-5.26-2.94-7.78c-0.82-1.82-1.88-3.57-3.1-5.15
		c-2.95-3.84-6.73-6.39-11.73-6.63c-3.8-0.18-7.19,0.84-9.86,3.73c-3.54,3.83-3.44,10.59,2.03,13.86c1.67,1,3.5,1.27,5.4,0.96
		c2.22-0.36,3.33-2.39,2.31-4.83c-0.13,0.36-0.16,0.58-0.28,0.72c-1.3,1.55-2.77,1.61-4.14,0.19c-1.88-1.97-1.69-4.63,0.53-6.22
		c0.68-0.49,1.5-0.86,2.32-1.07c2.19-0.57,4.36-0.38,6.47,0.47c3.23,1.3,5.9,3.39,8.14,5.98
		C454.89,157.48,456.44,159.65,458.05,161.7L458.05,161.7z M65.34,254.72c-0.13,0.04-0.26,0.08-0.39,0.11
		c0.29,1.69,0.5,3.4,0.88,5.07c2.26,9.93,7.98,17.71,15.46,24.31c4.03,3.56,8.53,6.49,13.3,8.99c4.55,2.39,8.95,5.05,12.8,8.45
		c6.63,5.86,11.61,12.95,15.18,21.04c0.13,0.29,0.29,0.58,0.44,0.86c-0.43-3.17-1.28-6.19-2.29-9.19c-1.67-4.96-4.48-9.21-7.98-13
		c-4.56-4.94-10-8.76-16-11.77c-4.72-2.37-9.29-4.98-13.56-8.08c-3.46-2.5-6.75-5.22-9.39-8.62c-3.87-4.98-6.63-10.51-8.06-16.68
		C65.62,255.7,65.47,255.21,65.34,254.72L65.34,254.72z M87.46,315.03c-0.96-3.21-2.18-6.05-4.86-8.06c-2.67-2.01-5.66-2.4-8.86-2
		c2.31,1.43,3.59,3.61,4.65,5.94c1.45,3.18,1.32,6.54,0.95,9.89c-0.17,1.51-0.53,3.01-0.87,4.85c2.24-3.02,4.34-5.72,5.06-9.35
		c0.25,0.33,0.38,0.43,0.42,0.56c1.01,3.77,1.3,7.43-1.17,10.86c-1.4,1.95-2.42,4.12-3.12,6.44c-1.14,3.77-0.79,7.28,1.49,10.54
		c0.16,0.23,0.37,0.43,0.56,0.64c0.07-0.48-0.03-0.84-0.11-1.21c-1.52-6.28-0.28-11.78,4.71-16.15c0.93-0.82,2.01-1.47,3.02-2.2
		c0.97-0.7,1.98-1.34,2.93-2.08c1.96-1.53,2.94-3.61,3.27-6.03c0.38-2.78-1.82-6.91-5.21-7.5
		C89.36,311.78,88.41,313.41,87.46,315.03L87.46,315.03z M223.46,338.56c-0.17,0.76-0.34,1.24-0.37,1.72
		c-0.09,1.48-0.21,2.97-0.16,4.45c0.08,2.49,0.88,4.8,2.13,6.94c2.68,4.59,6.57,7.82,11.38,9.96c6.7,2.98,13.73,3.45,20.84,2.15
		c11.28-2.06,19.85-8.19,25.93-17.88c0.16-0.25,0.25-0.54,0.38-0.81c-0.31,0.08-0.49,0.24-0.66,0.4
		c-6.19,6.05-13.42,10.29-21.84,12.45c-4.97,1.27-10,1.81-15.09,0.91c-7.06-1.25-12.87-4.75-17.63-10.06
		c-2.46-2.74-4.11-5.87-4.57-9.57C223.8,339.09,223.69,338.99,223.46,338.56L223.46,338.56z M199.75,227.12
		c0.06,0.05,0.13,0.1,0.19,0.16c1.22-1.34,2.57-2.59,3.64-4.04c0.81-1.09,1.47-2.39,1.85-3.69c1.43-4.94-2.24-9.49-7.38-9.26
		c-3.19,0.14-6.93,3.15-5.26,7.68c0.36,0.99,0.75,1.97,1.04,2.98c1.75,6.11-0.71,12.06-6.24,15.24c-3.55,2.04-7.35,3.31-11.4,3.88
		c3.63,0.23,10.34-0.15,14.19-0.89c4.09-0.79,8.15-1.72,12.25-2.49c1.59-0.3,3.23-0.45,4.84-0.44c1.55,0.01,2.39,0.9,2.58,2.35
		c-2.45,0.68-5.11,0.56-7.38,1.83c0.41,3.42,3.17,5.68,6.26,5.16c2.24-0.38,4-1.53,5.16-3.53c2.57-4.43-0.18-9.3-5.28-9.36
		c-2.09-0.02-4.08,0.48-6.08,0.98c-3.11,0.79-6.21,1.59-9.33,2.33c-0.93,0.22-1.91,0.3-2.86,0.44c-0.05-0.09-0.09-0.18-0.14-0.27
		c0.4-0.52,0.82-1.03,1.21-1.55c1.35-1.8,2.75-3.57,4.01-5.43c1.2-1.77,1.84-3.78,1.93-5.94c0.07-1.77-0.39-3.32-1.75-4.52
		c-0.43-0.38-0.92-0.71-1.28-1.15c-0.24-0.3-0.48-0.77-0.41-1.12c0.23-1.28,1.97-2.01,3.09-1.3c0.39,0.25,0.78,0.6,1.01,1
		c1.6,2.75,2.57,5.67,2.08,8.91C200.16,225.76,199.92,226.44,199.75,227.12L199.75,227.12z M324.91,309.75
		c-0.96-1.37-1.97-2.42-3.19-3.28c-4.73-3.35-11.12,0.68-11.59,5.45c-0.13,1.24,0.06,2.39,0.61,3.48c0.46,0.92,0.53,1.68-0.45,2.33
		c-0.38,0.25-0.67,0.69-0.9,1.1c-1.82,3.27-0.77,7.71,2.47,9.61c2.94,1.73,6.12,2.06,9.39,0.8c1.78-0.68,3.6-1.28,5.42-1.84
		c1.51-0.46,3.05-0.81,4.59-1.18c1.05-0.25,1.69-0.89,2.26-2.09c-0.94,0.23-1.65,0.32-2.3,0.58c-2.09,0.83-4.18,1.64-6.21,2.61
		c-1.44,0.69-2.87,0.55-4.17-0.01c-0.86-0.37-1.67-1.15-2.06-2.23c1.41-1.04,3.04-1.11,4.55-1.43c1.55-0.33,3.14-0.47,4.72-0.69
		c-0.38-0.17-0.76-0.17-1.13-0.24c-2.59-0.47-5.17-0.95-7.75-1.47c-0.52-0.1-1.18-0.2-1.25-0.96c0.82-0.59,0.89-0.71,1.81-0.68
		c1.48,0.03,2.97,0.08,4.42,0.33c2.36,0.41,4.68,1.01,7.02,1.51c0.38,0.08,0.78,0.09,1.18,0.13c0.03-0.11,0.06-0.21,0.09-0.32
		c-0.46-0.19-0.91-0.42-1.39-0.56c-0.73-0.22-1.49-0.37-2.23-0.55c-3.38-0.82-6.49-2.3-9.48-4.04c-0.36-0.21-0.94-0.34-0.84-1.04
		c0.31-0.06,0.58-0.15,0.85-0.16c2.32-0.05,4.56,0.21,6.68,1.3c2.63,1.35,5.33,2.55,7.99,3.81c1.23-1.39,1.33-2.18,0.47-3.62
		c-0.29-0.49-0.6-0.99-0.98-1.42c-1.09-1.24-2.37-2.22-4.19-2.83c0.54,1.16,0.9,2.1,1.39,2.97c0.49,0.86,1.1,1.65,1.69,2.52
		c-4.58-1.08-7.97-3.63-10.81-7.41C322.74,310.08,323.71,309.93,324.91,309.75L324.91,309.75z M136.53,275.6
		c-1-0.44-1.55-1.02-2.03-1.67c-0.91-1.23-1.78-2.49-2.68-3.73c-0.19-0.26-0.44-0.48-0.66-0.72c-0.1,0.05-0.21,0.1-0.31,0.15
		c0.16,2.15,0.33,4.3,0.49,6.45c-0.1,0.05-0.19,0.1-0.28,0.16c-1.71-1.26-3.31-2.65-4.91-4.05c-0.11,0.13-0.21,0.19-0.22,0.27
		c-0.53,3.06,0.1,5.92,1.65,8.55c0.47,0.8,1.2,1.52,1.97,2.05c4.14,2.88,9.98,1.48,12.39-2.96c0.51-0.93,1.08-1.31,2.16-1.12
		c1.23,0.21,2.46,0.1,3.66-0.38c4.36-1.72,5.54-6.72,4.55-9.75c-1.19-3.64-3.33-6.33-7.26-7.23c-0.7-0.16-1.4-0.38-2.39-0.65
		c0.53,1.17,0.94,2.03,1.3,2.91c0.5,1.24,1.02,2.48,1.39,3.76c0.1,0.34-0.21,0.87-0.48,1.21c-0.08,0.1-0.71-0.1-0.97-0.31
		c-2.31-1.94-4.59-3.92-6.88-5.88c-0.25-0.21-0.53-0.39-0.8-0.58c1.77,3.24,2.99,6.6,3.95,10.08c-0.48-0.23-0.84-0.52-1.17-0.85
		c-1.91-1.92-3.39-4.14-4.66-6.52c-1.59-3-3.25-5.97-4.89-8.95c-0.15-0.27-0.39-0.5-0.59-0.76c1.42,3.38,2.93,6.68,4.4,10
		C134.75,268.39,136.02,271.76,136.53,275.6L136.53,275.6z M114.51,251.01c-2.74-0.39-5.06-0.1-7.21,1.15
		c-2.4,1.4-4.75,2.9-7.21,4.17c-5.77,2.98-7.34,10.1-3.29,15.15c1.22,1.52,2.73,2.36,4.69,2.37c0.7,0.01,1.4,0.09,1.99,0.14
		c0.13,0.18,0.17,0.22,0.19,0.26c0.08,0.27,0.18,0.55,0.24,0.83c0.47,2.01,1.69,3.37,3.55,4.24c1.63,0.76,3.33,1.2,5.12,1.3
		c6.59,0.36,11.3-5.98,9-12.12c-2.08,2.02-3.58,4.72-6.76,5.75c-0.05-0.7-0.13-1.21-0.11-1.72c0.07-1.72,0.19-3.45,0.27-5.17
		c0.01-0.29-0.05-0.59-0.11-1.15c-0.39,0.56-0.59,0.87-0.81,1.18c-0.84,1.17-1.64,2.36-2.54,3.48c-0.49,0.61-1.08,1.25-2.08,0.75
		c0.04-0.27,0.04-0.51,0.11-0.74c0.84-2.82,2.05-5.46,3.7-7.91c1.76-2.63,3.46-5.29,5.15-7.96c0.37-0.58,0.58-1.26,0.86-1.89
		c-0.44,0.13-0.67,0.36-0.86,0.62c-1.66,2.29-3.31,4.58-4.95,6.88c-1.99,2.79-4.45,5.01-7.59,6.42c-0.55,0.25-1.1,0.63-1.75-0.03
		c0.26-0.42,0.46-0.87,0.76-1.22c1.27-1.49,2.53-3,3.87-4.43c2.19-2.34,4.52-4.56,6.64-6.96c1-1.13,1.67-2.55,2.45-3.86
		c0.14-0.24,0.12-0.57,0.17-0.86c-1.29,1.29-2.32,2.71-3.46,4.04c-1.4,1.63-2.85,3.23-4.35,4.77c-2.48,2.54-5.84,3.26-9.28,4.43
		c0.37-1.9,1.79-2.72,2.9-3.82c-0.78-0.37-1.45-0.69-2.23-1.06c0.28-0.23,0.41-0.36,0.56-0.46c2.54-1.75,5.29-3.08,8.15-4.21
		C111.69,252.79,113.06,252.14,114.51,251.01L114.51,251.01z M355.86,390.7c0.08,0.08,0.17,0.17,0.25,0.25
		c1.35-1.2,2.79-2.3,4.04-3.6c4.79-4.98,9.28-10.19,12.98-16.06c4.57-7.24,8.54-14.75,11.06-22.97c1.28-4.17,2.46-8.36,3.04-12.69
		c0.81-6.03,0.63-12.05-0.29-18.04c-0.41-2.69-0.98-5.37-1.48-8.05c-0.11,0.01-0.22,0.02-0.33,0.03c0,2.15,0.11,4.31-0.02,6.46
		c-0.41,6.86-1.71,13.58-3.55,20.2c-2.93,10.56-7.1,20.65-12.17,30.34c-3.73,7.12-7.74,14.1-11.65,21.13
		C357.18,388.72,356.5,389.7,355.86,390.7L355.86,390.7z M133.6,247.16c0.39,0.23,0.61,0.42,0.85,0.49
		c1.28,0.41,2.54,0.88,3.84,1.17c2.48,0.54,5.01,0.87,7.46,1.49c1.89,0.48,3.71,1.25,5.54,1.95c0.35,0.14,0.9,0.61,0.85,0.79
		c-0.1,0.39-0.49,0.76-0.85,1c-0.39,0.26-0.88,0.37-1.32,0.54c-1.45,0.56-2.89,1.11-4.51,1.73c1.26,1.05,2.32,2.02,3.48,2.85
		c1,0.73,2.08,1.39,3.41,1.35c3.03-0.07,5.72-0.97,7.93-3.16c2.65-2.63,3.84-7.65,0.9-11.26c-0.21-0.25-0.36-0.55-0.54-0.85
		c0.2-0.26,0.36-0.5,0.55-0.71c1.06-1.22,1.5-2.65,1.45-4.25c-0.1-3.14-1.6-5.6-3.97-7.49c-2.06-1.64-4.47-2.23-7.15-1.95
		c-2.92,0.3-5.26,1.65-7.36,3.56c-0.22,0.2-0.4,0.46-0.76,0.88c0.78,0,1.29-0.03,1.81,0.01c1.1,0.08,2.19,0.17,3.28,0.3
		c0.75,0.09,1.3,0.48,1.55,1.28c-0.26,0.16-0.45,0.31-0.66,0.39c-1.5,0.56-2.75,1.51-4.02,2.46c-1.06,0.79-2.27,1.43-3.48,1.96
		c-2.59,1.12-5.23,2.13-7.84,3.2c-0.26,0.11-0.48,0.33-0.72,0.49c0.56,0.19,1.04,0.22,1.48,0.09c1.68-0.54,3.41-0.99,4.99-1.74
		c3.54-1.67,7.26-2.39,11.14-2.41c0.6,0,1.24-0.01,1.7,0.69c-0.34,0.25-0.6,0.55-0.94,0.67c-2.98,1.03-5.84,2.45-9,2.91
		c-0.95,0.14-1.91,0.19-2.85,0.36c-0.57,0.1-1.12,0.36-1.68,0.54c0.45,0.23,0.83,0.19,1.2,0.18c3.44-0.14,6.89-0.34,10.33-0.4
		c1.03-0.02,2.07,0.32,3.08,0.57c0.24,0.06,0.54,0.48,0.53,0.72c-0.01,0.22-0.37,0.49-0.63,0.62c-0.24,0.12-0.56,0.08-0.85,0.1
		c-1.86,0.11-3.73,0.24-5.59,0.33c-3.52,0.17-6.98-0.2-10.34-1.34C135.22,247.05,134.53,246.87,133.6,247.16L133.6,247.16z
		 M116.68,244.14c0.05-0.08,0.11-0.15,0.17-0.23c-0.47-0.44-0.91-0.93-1.42-1.32c-1.21-0.93-2.44-1.86-3.7-2.73
		c-3.13-2.14-6.14-4.44-8.82-7.14c-0.41-0.41-0.97-0.75-0.91-1.69c2.87,1.18,5.66,2.19,8,4.06c2.77,2.21,5.46,4.52,8.19,6.79
		c0.24,0.2,0.48,0.4,0.73,0.6c0.07-0.06,0.14-0.12,0.21-0.18c-0.7-0.93-1.31-1.95-2.11-2.79c-1.86-1.93-3.77-3.82-5.74-5.64
		c-1.54-1.43-2.65-3.14-3.64-4.95c-0.15-0.27-0.17-0.6-0.33-1.19c2.17,0.81,3,2.96,4.89,3.72c0.49-0.96,0.52-1.88,0.23-2.84
		c-1.71-5.55-7.64-8.9-13.54-5.73c-1.47,0.79-2.86,1.75-4.2,2.75c-2.97,2.23-3.8,4.9-2.69,8.44c0.2,0.65,0.08,1.09-0.43,1.51
		c-0.4,0.33-0.79,0.7-1.1,1.12c-2.25,3.02-2.43,6.27-0.94,9.63c1.9,4.28,6.8,6.94,11.27,6.21c1.11-0.18,2.07-0.62,2.89-1.57
		c-1.72-0.62-3.33-1.22-4.19-2.95c0.31-0.17,0.55-0.35,0.81-0.43c2.91-0.88,5.82-1.01,8.77-0.16c1.69,0.49,3.44,0.81,5.16,1.21
		c0.6,0.14,1.03-0.07,1.31-0.62c0.19-0.37,0.4-0.73,0.69-1.25c-0.74-0.22-1.36-0.54-2-0.58c-2.58-0.17-5.16-0.31-7.74-0.35
		c-2.32-0.03-4.58-0.21-6.76-1.09c-1.66-0.67-1.79-0.78-1.5-2.69c1.36-0.07,2.74-0.11,4.11-0.24c1.36-0.13,2.7-0.36,4.35-0.59
		c-2.56-2.12-5.65-2.65-8.27-4.35c1.11-0.64,2.08-0.42,3.01-0.33c2.99,0.3,5.58,1.58,8.05,3.22c2.03,1.35,4.13,2.6,6.21,3.89
		C116.01,243.86,116.35,243.98,116.68,244.14L116.68,244.14z M126.97,240.09c0.08-0.01,0.16-0.02,0.24-0.02c0-0.33-0.01-0.66,0-1
		c0.1-3.64,0.16-7.28,0.31-10.92c0.11-2.65,0.59-5.23,1.62-7.69c0.29-0.69,0.62-1.38,1.72-1.56c-0.05,4.4-0.66,8.66-0.34,12.95
		c0.28-0.47,0.49-0.95,0.64-1.44c0.52-1.64,1.01-3.3,1.55-4.93c0.5-1.52,1.32-2.87,2.39-4.06c0.2-0.22,0.5-0.35,0.92-0.64
		c0.16,0.72,0.37,1.27,0.37,1.81c0.02,2.33-0.32,4.61-1.4,6.68c-0.51,0.99-1.26,1.95-2.11,2.66c-2.95,2.44-3.72,5.67-3.6,9.27
		c0.01,0.41,0.14,0.84,0.78,0.96c0.26-0.63,0.53-1.23,0.77-1.85c1.22-3.18,2.47-6.33,4.27-9.25c0.84-1.36,2-2.31,3.35-3.06
		c0.97-0.53,1.48-0.29,1.85,0.77c0.39,1.1,0.39,2.16-0.5,3.07c-0.22,0.22-0.37,0.49-0.56,0.74c0.06,0.08,0.11,0.15,0.17,0.23
		c0.48-0.25,0.98-0.46,1.43-0.75c4.03-2.58,5.47-8.87,4.06-12.69c-1.2-3.23-3.14-5.6-6.7-6.2c-1.45-0.24-2.61-0.78-3.5-1.98
		c-1.2-1.62-2.83-2.04-4.72-1.31c-0.54,0.21-1.13,0.37-1.55,0.72c-0.91,0.76-1.83,0.73-2.92,0.48c-3.16-0.72-6.04-0.02-8.38,2.24
		c-4.15,4.01-4.24,10.91-1.55,14.55c0.76,1.04,1.46,2.16,1.97,3.33c1.19,2.72,2.26,5.49,3.38,8.24c0.21,0.52,0.39,1.05,0.59,1.61
		c1.1-0.57,1.35-1.35,0.98-2.34c-0.64-1.65-1.22-3.33-1.98-4.92c-0.76-1.6-1.75-3.08-2.59-4.64c-1-1.86-0.81-3.74-0.07-5.78
		c0.35,0.24,0.64,0.35,0.78,0.56c2.83,4.32,4.73,9.04,5.92,14.07c-0.02-1.02-0.1-2.03-0.35-2.99c-0.84-3.22-1.24-6.5-1.39-9.8
		c-0.07-1.46,0.2-2.95,0.4-4.42c0.08-0.59,0.3-1.21,1.16-1.38c0.19,0.41,0.45,0.77,0.53,1.17c0.42,2.16,0.95,4.31,1.15,6.49
		c0.33,3.53,0.43,7.08,0.65,10.62C126.73,238.52,126.87,239.3,126.97,240.09L126.97,240.09z M200.34,350
		c-0.35-1.28-0.74-2.55-1.05-3.84c-1.92-7.97-0.34-15.2,4.66-21.67c2.13-2.75,4.67-5.09,7.54-7.04c6.91-4.68,14.61-6.57,22.89-6.24
		c4.43,0.17,8.59,1.32,12.41,3.64c1.54,0.94,2.78,2.18,3.82,3.65c1.72,2.43,1.97,5.46-0.53,7.79c-1.16,1.08-1.09,1.8-0.04,2.95
		c0.69,0.76,1.53,1.11,2.56,1.05c1.44-0.08,2.57-0.77,3.48-1.8c1.88-2.12,2.43-4.64,1.89-7.38c-0.91-4.6-3.61-7.99-7.47-10.46
		c-4.94-3.16-10.47-4.41-16.26-4.56c-8.42-0.21-16.37,1.52-23.63,5.96c-6.79,4.15-12.18,9.58-15.38,16.98
		c-1.74,4.03-2,8.14-0.62,12.34C195.72,344.76,197.74,347.54,200.34,350L200.34,350z M392.78,150.23c-0.06-0.04-0.12-0.08-0.18-0.12
		c-0.07,0.06-0.17,0.1-0.22,0.17c-2.88,4.53-5.65,9.12-7.73,14.09c-4.51,10.78-5.21,22.01-3.87,33.46
		c0.77,6.62,2.22,13.13,3.85,19.58c2.04,8.08,4.16,16.13,6.26,24.2c0.09,0.33,0.24,0.64,0.49,1.27c0.24-1.04,0.4-1.74,0.56-2.43
		c0.37-1.62,1.22-2.88,2.73-3.69c1.18-0.63,2.35-1.29,3.49-2c4.9-3.07,7.63-7.4,7.11-13.3c-0.25-2.9-0.99-5.75-1.52-8.62
		c-0.02-0.1-0.15-0.18-0.29-0.32c-1.17,7.21-4.49,13.25-9.2,18.58c-0.79-2.5-1.53-4.87-2.3-7.22c-0.55-1.68-1.12-3.36-1.69-5.04
		c-2.84-8.4-4.44-17.05-4.95-25.89c-0.42-7.26,0.22-14.46,1.54-21.6c1.14-6.19,2.94-12.19,4.94-18.14
		C392.12,152.21,392.45,151.22,392.78,150.23L392.78,150.23z M383.52,266.92c0.05-0.09,0.1-0.18,0.15-0.28
		c0.93,0.36,1.69,0.18,2.08-0.7c1.01-2.28,2.05-4.54,2.16-7.1c0.13-3.08-0.08-6.12-0.83-9.13c-1.13-4.58-3-8.89-4.97-13.15
		c-0.12-0.26-0.3-0.48-0.5-0.82c1.3,9.49-0.42,18.53-2.58,27.7c-1.11-0.69-2.04-1.34-3.03-1.88c-8.11-4.36-16.78-6.11-25.94-5.48
		c-4.97,0.34-9.74,1.51-14.23,3.72c-0.67,0.33-1.32,0.73-1.98,1.1c0.49,0.11,0.9,0.02,1.31-0.07c0.42-0.09,0.84-0.2,1.27-0.26
		c7.87-1.12,15.68-0.65,23.42,1.04c6.89,1.5,13.22,4.37,18.79,8.63c8.42,6.44,14.89,14.58,19.81,23.97
		c0.22,0.42,0.44,0.84,0.66,1.25c-1.52-7.05-3.73-13.83-7.6-19.85c1.35-0.88,2.64-1.55,3.72-2.46c3.39-2.86,5.4-6.53,6.1-10.92
		c0.65-4.06,0.52-8.12,0.17-12.18c-0.08-0.86-0.13-1.72-0.22-2.58c-0.08-0.8-0.19-1.6-0.29-2.4c-0.59,2.92-1.55,5.67-2.81,8.32
		c-2.64,5.54-5.72,10.84-9.01,16.02c-0.41,0.64-0.9,1.22-1.43,1.93C386.27,269.8,384.89,268.36,383.52,266.92L383.52,266.92z
		 M68.98,338.27c-0.32,2.84,0.01,5.63,0.68,8.39c2.6,10.74,9.32,17.67,19.65,21.24c2.42,0.83,4.95,1.23,7.5,1.04
		c7.59-0.57,13.78-3.79,18.26-10.01c2.32-3.22,3.67-6.89,3.75-10.85c0.17-8.69-6.67-16.58-16.63-16.08
		c-5.31,0.27-10.75,3.71-12.15,10.06c-1,4.54,0.61,8.77,4.45,11.44c1.44,1,3,1.43,4.75,1.23c2.27-0.25,3.66-1.55,4-3.82
		c0.06-0.4,0.11-0.79,0.17-1.27c2.79,2.5,2.95,6.05,0.36,8.53c-2.98,2.85-6.54,4.26-10.73,3.87c-2.67-0.24-5.15-1.08-7.55-2.2
		c-4.95-2.31-9.23-5.46-12.3-10.06C70.88,346.3,69.51,342.45,68.98,338.27L68.98,338.27z M76.6,269.68
		c2.64,3.89,6.05,6.95,9.78,9.69c4.04,2.96,8.52,5.16,12.9,7.53c5.46,2.96,10.57,6.38,15.16,10.59
		c6.49,5.96,11.32,13.05,14.16,21.34c3.65,10.64,3.16,21.29-0.86,31.79c-2.5,6.54-6.52,11.91-12.19,16
		c-1.51,1.09-3.16,1.98-4.82,3.02c0.49-0.09,0.9-0.17,1.32-0.24c7.71-1.22,14.59-4.29,20.52-9.36c5.52-4.73,9.16-10.63,10.53-17.84
		c1.5-7.91,0.54-15.58-2.51-22.96c-5.18-12.55-14.11-21.89-25.53-28.93c-5.92-3.65-12.34-6.36-18.67-9.22
		C89.41,277.93,82.34,274.95,76.6,269.68L76.6,269.68z M266.97,298.51c0.78-0.47,1.54-0.74,2.05-1.25c1.85-1.83,2.94-3.99,2.64-6.7
		c-0.47-4.26-1.35-8.42-3.12-12.35c-2.03-4.53-5.55-7.31-10.26-8.75c-8.13-2.49-16.3-2.16-24.43-0.28
		c-8.13,1.88-15.56,5.42-22.2,10.48c-8.88,6.76-15.5,15.32-19.71,25.69c-0.6,1.48-1.14,2.99-1.71,4.49
		c1.29-1.48,2.41-3.03,3.56-4.56c4.87-6.49,10.59-12.13,17.3-16.71c9.08-6.2,19.04-9.08,30.08-7.5c4.48,0.64,8.44,2.41,11.79,5.51
		c1.94,1.8,3.13,4.09,4.39,6.35c1.23,2.22,2.33,4.54,3.82,6.57c3.6,4.9,8.65,6.73,14.54,5.78c8.89-1.42,13.86-9.99,12.9-17.52
		c-0.49-3.87-1.93-7.28-4.6-10.17c-3.15-3.41-7.7-2.99-10.33-0.71c0.83,0.32,1.7,0.56,2.48,0.97c4.61,2.44,7.35,8.93,5.92,13.95
		c-1.34,4.73-5.05,7.27-9.74,7.95C270.48,300.01,268.69,299.52,266.97,298.51L266.97,298.51z M170.41,275.85
		c4.25,0.97,8.52,1.36,12.83,0.68c4.67-0.74,9.1-2.24,13.45-4.05c6.81-2.83,12.95-6.83,19.03-10.94c6.2-4.19,12.51-8.16,19.46-11.05
		c12.66-5.27,25.69-7.2,39.23-4.52c6.07,1.2,11.76,3.44,16.94,6.86c3.39,2.24,6.44,4.91,8.54,8.42c4.24,7.07,4.85,14.52,1.81,22.2
		c-0.93,2.36-2,4.68-3.19,6.91c-2.37,4.44-4.85,8.81-7.32,13.19c-3.6,6.39-7.42,12.65-11.75,18.57c-2.99,4.09-6.46,7.72-10.56,10.7
		c-4.29,3.12-8.96,5.33-14.31,5.9c-6.45,0.68-11.84-2.9-13.23-9.11c-0.83-3.68-0.18-7.07,3.19-9.43c0.03-0.02-0.01-0.16-0.02-0.24
		c-4.22,0.08-7.34,2.25-8.85,6.11c-0.85,2.17-0.98,4.4-0.41,6.63c1.21,4.75,4.22,7.99,8.67,9.88c3.71,1.58,7.63,1.75,11.59,1.32
		c6.32-0.68,11.88-3.29,17.01-6.87c4.35-3.03,8.04-6.82,11.41-10.89c4.14-5,7.53-10.51,10.81-16.09
		c3.86-6.57,7.46-13.29,11.77-19.58c1-1.46,2.03-2.91,3.13-4.3c3.68-4.64,8.39-7.78,14.07-9.48c6.16-1.85,12.41-2.21,18.77-1.42
		c10.76,1.34,19.76,6.08,27.24,13.84c3.45,3.58,6.27,7.62,8.81,11.86c0.24,0.4,0.49,0.8,0.74,1.2c0.1-0.05,0.2-0.11,0.3-0.16
		c-0.51-1.74-1.03-3.47-1.52-5.21c-1.37-4.89-3.4-9.49-6.53-13.5c-4.8-6.16-11.12-10.2-18.49-12.6c-7.23-2.36-14.63-2.88-22.15-1.67
		c-6.68,1.08-12.85,3.38-18.32,7.44c-0.14,0.1-0.33,0.15-0.67,0.3c0.48-2.18,0.24-4.22-0.01-6.24c-0.68-5.6-2.69-10.66-6.2-15.09
		c-3.93-4.96-8.97-8.47-14.64-11.11c-6.95-3.25-14.34-4.8-21.96-5.2c-9.1-0.49-18.07,0.44-26.9,2.86
		c-10.14,2.78-19.49,7.19-27.95,13.43c-3.82,2.81-7.53,5.77-11.32,8.63c-3.87,2.93-7.96,5.49-12.31,7.65
		c-5.72,2.83-11.71,4.47-18.14,4.2C171.79,275.83,171.1,275.85,170.41,275.85L170.41,275.85z M337.98,314.09L337.98,314.09
		c0.01,0.83,0.46,1.46,0.97,2.22c0.1-0.27,0.19-0.39,0.18-0.51c-0.14-2.53-0.35-5.06-0.41-7.59c-0.04-1.76,0.12-3.54,0.23-5.3
		c0.04-0.66,0.23-1.3,1-1.78c0.23,0.43,0.53,0.77,0.61,1.15c0.56,2.72,1.3,5.42,1.26,8.21c-0.02,1.77-0.22,3.53-0.32,5.3
		c-0.02,0.28,0.08,0.56,0.12,0.84c0.81-1.94,1.23-3.89,1.39-5.9c0.15-1.86,0.28-3.73,0.51-5.58c0.18-1.42,0.66-2.75,1.67-4.22
		c0.2,0.86,0.41,1.4,0.44,1.94c0.07,1.24,0.07,2.49,0.09,3.73c0.01,0.84-0.07,1.68,0.45,2.72c0.39-0.64,0.65-1.08,0.92-1.5
		c0.39-0.6,0.74-1.24,1.22-1.77c0.44-0.48,1.08-0.66,1.71-0.4c0.58,0.24,0.62,0.83,0.58,1.36c-0.06,1-0.21,1.94-0.76,2.86
		c-0.7,1.19-1.62,2.08-2.7,2.91c-1.5,1.16-2.69,2.62-3.01,4.57c-0.29,1.8,0.41,2.35,2.09,1.7c2.05-0.79,3.52-2.27,4.71-4.06
		c0.08-0.12,0.01-0.34,0.01-0.57c-0.54-0.04-1.03-0.08-1.58-0.12c0.31-1.02,0.8-1.94-0.16-2.73c0.71-1.02,1.3-2.02,2.03-2.89
		c1.88-2.25,2.65-4.87,2.56-7.73c-0.13-4-3.02-7.68-7.56-7.21c-1.65,0.17-2.94-0.12-4.23-1.05c-1.36-0.99-2.71-0.71-3.98,0.24
		c-0.27,0.2-0.54,0.41-0.76,0.66c-0.77,0.86-1.7,1.09-2.83,0.98c-4.29-0.42-6.59,2.17-7.44,5.65c-0.66,2.73,0.39,5.16,2.7,6.64
		c2.84,1.81,5.48,3.86,7.54,6.58C337.44,313.68,337.74,313.87,337.98,314.09L337.98,314.09z M356.02,323.21
		c-1.01-0.17-2.02-0.35-3.03-0.52c1.23,0.68,1.76,0.73,3.07,0.49c0.31,0.19,0.6,0.43,0.94,0.57c0.84,0.35,1.71,0.63,2.54,1
		c0.61,0.27,1.03,1.14,0.94,1.77c-0.09,0.63-0.59,0.81-1.1,0.98c-0.49,0.16-0.96,0.37-1.41,0.55c-1.05-0.63-2.1-1.2-3.09-1.86
		c-2.29-1.55-4.82-1.51-7.46-1.25c0.26,0.49,0.55,0.96,0.97,1.17c2.19,1.08,4.37,2.18,6.85,2.47c1.19,0.14,2.43,0.16,3.54,0.55
		c2.86,1.01,5.56,0.62,8.23-0.57c4.37-1.94,6.21-7.52,2.7-11.48c-0.58-0.66-0.65-1.26-0.29-2.06c0.57-1.25,0.71-2.59,0.19-3.91
		c-1.37-3.48-3.94-5.62-8-5.04c-1.57,0.22-2.91,0.91-4.07,1.97c-0.99,0.9-1.98,1.8-2.95,2.73c-0.17,0.16-0.23,0.44-0.47,0.92
		c2.36,0,4.49,0,6.8,0c-0.25,0.32-0.32,0.46-0.43,0.53c-1.12,0.81-2.32,1.53-3.36,2.43c-2.88,2.49-5.85,4.79-9.62,5.8
		c-0.42,0.11-0.81,0.39-1.21,0.59c0.03,0.1,0.07,0.21,0.1,0.31c2.87-0.96,5.82-1.09,8.8-1.02c2.3,0.06,4.6,0.17,6.8,0.91
		c0.58,0.19,1.22,0.34,1.35,1.14c-0.16,0.11-0.31,0.28-0.47,0.3C360.6,322.98,358.34,323.42,356.02,323.21L356.02,323.21z
		 M312.08,204.01c-6.92-0.68-13.24-2.76-18.5-7.58c0.31,0,0.61-0.01,0.92,0c12.7,0.34,24.93-1.62,36.34-7.5
		c3.85-1.98,7.36-4.45,10.76-7.17c-7.22,1.84-14.47,3.09-22.26,1.85c0.56-0.31,0.86-0.5,1.18-0.64c8.66-3.59,16.31-8.67,22.83-15.42
		c3.81-3.94,7.11-8.29,10.27-12.76c1.69-2.39,3.38-4.77,5.07-7.15c0.18-0.25,0.33-0.53,0.61-1c-6.85,2.82-13.66,3.67-20.74,1.92
		c5.28-1.96,10.13-4.68,14.71-7.87c4.56-3.17,8.85-6.66,12.72-11.08c-3.34-0.11-6.14-1.22-8.94-2.27
		c-7.6-2.85-14.26-7.15-20.13-12.77c-3.62-3.47-6.75-7.33-9.62-11.41c-0.96-1.36-1.72-2.86-2.63-4.38c0.32-0.12,0.48-0.24,0.65-0.24
		c6.65-0.12,13.13-1.42,19.59-2.86c5.42-1.21,10.83-2.52,16.36-3.18c5.41-0.64,10.82-0.78,16.17,0.42
		c7.32,1.64,13.67,5.16,19.19,10.21c0.27,0.24,0.54,0.48,1.06,0.93c-0.68-5.53-1.74-10.66-3.24-15.81c0.27,0,0.45-0.04,0.6,0
		c8.48,2.77,16.16,1.15,23.13-4.23c4.12-3.18,7.16-7.3,9.87-11.69c0.15-0.24,0.3-0.49,0.59-0.95c1.68,2.72,3.27,5.31,4.92,7.99
		c0.74-1.42,1.49-2.83,2.2-4.27c0.11-0.22,0.08-0.57,0.01-0.82c-0.09-0.32-0.28-0.61-0.46-0.89c-4.25-6.79-8.71-13.43-14.11-19.39
		c-5.94-6.56-12.46-12.47-19.71-17.56c-8.18-5.74-16.75-10.81-25.96-14.72c-8.84-3.76-17.96-6.68-27.5-8.07
		c-10-1.46-20.04-1.85-30.1-0.7c-9.9,1.14-19.5,3.5-28.84,6.96c-2.38,0.88-4.71,1.88-7.04,2.89c-1.07,0.46-2.09,1.06-3.25,1.67
		c0.06-0.31,0.07-0.49,0.12-0.66c1.76-5.98,0.97-11.64-2.16-17c-0.17-0.29-0.36-0.57-0.6-0.81c-0.19-0.19-0.45-0.36-0.71-0.43
		c-0.62-0.17-3.26,0.43-4.06,0.91c0.11,0.33,0.19,0.69,0.34,1.03c2.12,4.85,2.92,9.9,2.26,15.17c-0.13,1-0.23,2-0.28,3
		c-0.04,0.86-0.45,1.41-1.15,1.86c-2.61,1.69-5.25,3.36-7.8,5.14c-3.92,2.75-7.78,5.59-11.68,8.38c-0.14,0.1-0.31,0.14-0.54,0.24
		c1.43-4.88,1.13-9.65-0.15-14.38c-1.01-3.72-2.92-6.98-5.54-9.79c-0.72-0.78-1.63-1.4-2.56-2.18c0.41-0.28,0.88-0.66,1.4-0.95
		c6.24-3.41,12.81-6.07,19.61-8.13c9.85-3,19.92-4.76,30.22-5.26c5.46-0.27,10.91-0.66,16.38-0.52c1.38,0.04,2.75,0.16,4.23,0.25
		c0.39,3.23-0.23,6.31-0.07,9.42c1.85-2.83,3.38-5.72,1.7-9.36c7.03,0.25,13.84,0.66,20.68,1.9c-0.33,3.31-1.19,6.26-2.47,9.22
		c2.63-2.37,4.49-5.1,5.19-8.65c6.28,0.96,12.35,2.36,18.25,4.33c-0.04,2.11-0.71,3.56-3.12,6.91c1.84-0.82,5.07-3.96,6.23-6.1
		c6.63,2.17,12.99,5,19.15,8.14c0.2,1.54-1.25,2.37-1.23,3.83c1.51-0.46,2.13-1.83,3.22-2.6c3.69,1.01,18.55,10.7,21.33,13.93
		c-0.36,0.52-0.73,1.06-1.1,1.59c0.04,0.06,0.08,0.11,0.12,0.17c0.72-0.32,1.44-0.64,2.29-1.02c0.72,0.55,1.54,1.14,2.3,1.77
		c9.26,7.72,17.36,16.5,24.16,26.46c2.6,3.81,4.96,7.76,6.98,11.9c0.71,1.46,1.29,2.99,1.84,4.51c0.22,0.6,0.49,0.95,1.14,1.11
		c5.12,1.31,10.03,3.21,14.83,5.39c3.76,1.71,7.33,3.76,10.59,6.32c2.54,2,4.65,4.38,6.6,7.4c-3.59-0.73-6.89-1.39-10.41-2.11
		c0.76,1.31,1.41,2.36,1.99,3.44c2.44,4.54,4.06,9.4,5.76,14.24c0.9,2.57,1.88,5.13,3.05,7.59c2.04,4.28,5.35,7.6,8.94,10.57
		c3.88,3.2,7.97,6.14,11.94,9.23c1.7,1.32,3.37,2.7,5,4.1c2.26,1.93,3.89,4.35,5.2,6.99c0.76,1.54,0.99,3.18,0.95,4.89
		c-0.02,0.77-0.35,1.27-1.04,1.56c-0.08,0.04-0.17,0.09-0.26,0.12c-2.12,0.94-1.62,0.82-3.04-0.53c-0.73-0.69-1.39-1.46-2.17-2.09
		c-2.59-2.09-6.25-2.92-9.91-2.23c0.63,1.87,1.57,3.5,3.13,4.7c0.91,0.7,1.91,1.28,2.88,1.89c0.61,0.38,1.26,0.7,1.85,1.11
		c1.62,1.13,2.63,2.64,2.76,4.65c0.08,1.32,0.12,2.65,0.18,4.29c2.19-2.44,3.75-4.95,5.42-7.48c-0.23,1.16-0.33,2.36-0.73,3.46
		c-0.72,1.97-1.52,3.93-2.47,5.8c-2.13,4.2-6.83,6.01-11.49,5.09c-4.07-0.81-7.39-2.9-9.96-6.11c-1.16-1.45-2.04-3.12-3.04-4.68
		c-0.12-0.19-0.24-0.37-0.48-0.5c0.55,3.96,2.26,7.31,5.14,10.08c2.95,2.83,6.49,4.13,10.63,3.88c-0.18,1.41-0.74,2.48-1.42,3.45
		c-2.57,3.68-6.1,5.58-10.65,5.41c-1.34-0.05-2.69-0.09-4.02-0.23c-1.53-0.17-2.65,0.43-3.37,1.69c-1.06,1.87-2.16,3.74-3,5.71
		c-1.89,4.44-2.79,9.16-3.4,13.92c-0.68,5.33-1.03,10.69-0.89,16.07c0.18,6.91,0.89,13.77,2.29,20.55c0.1,0.52,0.26,1.02,0.39,1.53
		c0.11,0.45,0.22,0.91,0.19,1.42c-3.81-5.33-6.16-11.35-8.14-17.52c-1.98-6.19-2.93-12.58-3.37-19.13c-0.1,0.48-0.26,0.95-0.31,1.44
		c-0.88,7.51-0.78,15.02,0.22,22.52c1.12,8.4,3.4,16.5,6.4,24.41c0.32,0.85,0.73,1.66,0.96,2.67c-0.28-0.18-0.59-0.33-0.83-0.56
		c-4.39-4.19-8.28-8.78-11.32-14.06c-4.99-8.66-8.19-17.92-9.55-27.82c-0.36-2.64-0.68-5.29-1.08-7.93
		c-0.83,13.72,1.63,26.84,7.38,39.69c-0.42-0.38-0.66-0.55-0.85-0.76c-7.09-8.49-11.88-18.06-13.65-29.04
		c-0.89-5.51-1.1-11.05-0.51-16.62c0.37-3.53,0.93-7.03,1.81-10.47c1.09-4.27,2.86-8.22,5.39-11.83c0.1-0.14,0.17-0.3,0.33-0.61
		c-2.51,0-4.84-0.1-7.15,0.34c-1.61,0.31-2.92,1.16-4.03,2.35c-1.96,2.08-3.35,4.54-4.62,7.07c-2.65,5.28-4.2,10.89-5.13,16.69
		c-1.57,9.76-1.76,19.57-0.93,29.39c0.61,7.25,1.51,14.49,2.27,21.73c0.99,9.45,1.72,18.91,1.18,28.42
		c-0.21,3.77-0.73,7.53-1.11,11.3c-0.02,0.13-0.1,0.25-0.27,0.67c-1.27-6.94-3.21-13.41-5.51-19.77
		c-2.29-6.34-5.16-12.44-8.32-18.42c0.63,2.74,1.22,5.5,1.91,8.23c1.69,6.69,3.57,13.33,5.1,20.05c1.53,6.72,2.84,13.51,3.07,20.44
		c0.3,9.21-0.56,18.29-3.18,27.15c-0.05,0.18-0.1,0.37-0.18,0.55c-0.04,0.08-0.11,0.15-0.35,0.45c-0.12-9.91-1.13-19.47-4.09-28.73
		c0.24,16.17-0.93,32.13-6.18,47.61c-1.27-8.01-3.75-15.7-5.75-23.68c-0.43,2.15-0.82,4.17-1.23,6.19
		c-1.2,5.88-2.94,11.6-5.04,17.22c-2.01,5.38-4.02,10.77-5.91,16.2c-1.57,4.5-2.28,9.2-2.89,13.91c-0.88,6.67-1.2,13.36-0.89,20.08
		c0.28,6.23,0.96,12.43,2.08,18.56c1.11,6.03,2.25,12.06,3.73,18c2.08,8.34,5.15,16.34,9.38,23.87c2.58,4.59,5.75,8.62,10.42,11.23
		c3.28,1.83,5.59,4.53,7.56,7.69c4.93,7.88,10.01,15.67,15.02,23.5c0.17,0.27,0.34,0.56,0.61,1.02c-15.14,0-30.1,0-45.25,0
		c-3.43-8.63-5.55-17.84-8.74-26.82c-2.08,1.67-4.07,3.26-6.73,4.51c1.08-2.72,1.25-5.27,1.63-7.96c-3.13,3.29-6.1,6.43-9.08,9.56
		c2.31-29.2-3.79-56.89-13.99-84.04c-1.58,1.82-3.02,3.47-4.46,5.13c-1.43,1.65-2.85,3.31-4.37,5.07c0-0.29-0.04-0.44,0.01-0.56
		c1.89-4.01,2.92-8.31,4.26-12.5c2.99-9.35,5.96-18.71,9.5-27.87c1.99-5.14,4.17-10.2,6.74-15.08c0.47-0.89,1.05-1.71,1.59-2.56
		c0.27-0.43,0.56-0.85,0.64-1.46c-0.3,0.25-0.6,0.5-0.9,0.76c-5.21,4.41-9.06,9.86-12.15,15.88c-2.69,5.25-4.98,10.68-7.09,16.18
		c-2.42,6.3-4.87,12.6-7.28,18.91c-2.87,7.54-4.93,15.31-6.33,23.26c-1.33,7.5-2.64,15.01-3.06,22.63
		c-0.38,6.82-0.21,13.6,1.05,20.34c0.26,1.4,0.8,2.52,2.01,3.31c0.96,0.63,1.85,1.38,2.84,1.95c2.43,1.38,4.09,3.41,5.36,5.84
		c1.93,3.7,3.89,7.37,5.89,11.03c2.32,4.24,4.7,8.46,7.06,12.68c0.3,0.53,0.58,1.07,0.94,1.74c-14.62,0-29.06,0-43.64,0
		c-2.41-9.32-4.71-18.64-6.24-28.04c-2.24,1.6-4.54,3.25-6.85,4.9c-0.08-0.05-0.16-0.1-0.24-0.15c1.35-3.13,2.31-6.35,2.47-10.06
		c-3.89,4.19-8.27,7.34-13.06,10.06c-0.01-0.17-0.06-0.32-0.01-0.42c1.8-4.12,3.73-8.2,5.39-12.37c4.11-10.34,7.61-20.88,10.23-31.7
		c1.57-6.48,2.64-13.05,3.41-19.67c0.74-6.39,1.12-12.79,0.87-19.23c-0.01-0.37-0.06-0.73-0.12-1.43c-2.69,3.52-6.29,5.61-9.3,8.48
		c0.04-0.23,0.03-0.49,0.13-0.7c2.35-4.96,3.91-10.2,5.18-15.51c1.26-5.26,2.46-10.55,3.3-15.89c1.87-11.9,1.22-23.61-3.52-34.87
		c-1.47-3.49-2.92-6.98-4.39-10.47c-0.15-0.35-0.36-0.66-0.69-0.94c0.58,2.75,1.18,5.49,1.75,8.24c2.43,11.8,2.57,23.59-0.13,35.38
		c-1.44,6.27-3.8,12.15-7.23,17.59c-0.05,0.07-0.14,0.12-0.39,0.31c0-0.5-0.02-0.88,0-1.26c0.42-6.1,0.37-12.17-1-18.16
		c-0.31-1.35-0.71-2.69-1.18-3.99c-0.64-1.75-1.39-3.46-2.14-5.31c-0.39,0.21-0.72,0.35-1.02,0.55c-4.14,2.68-8.2,5.5-12.45,8.02
		c-5.68,3.36-11.73,5.86-18.28,7.03c-0.34,0.06-0.7,0.07-1.16,0.11c2.15-1.92,4.23-3.66,6.17-5.54c1.92-1.86,3.71-3.85,5.68-5.91
		c-0.7-0.2-1.06,0.13-1.44,0.32c-3.6,1.8-7.16,3.69-10.8,5.39c-5.4,2.51-11.01,4.43-16.92,5.42c-3.28,0.55-6.57,0.71-9.88,0.64
		c-0.22-0.01-0.44-0.11-0.91-0.23c5.34-2.64,10.29-5.46,14.63-9.28c-6.17,1.35-12.31,2.72-18.6,3.35
		c-6.24,0.63-12.47,0.73-18.71-0.28c5.69-2.2,11.04-4.93,15.89-8.63c-0.12-0.07-0.19-0.16-0.26-0.16
		c-6.93,0.6-13.39-1.22-19.68-3.87c-3.76-1.58-7.35-3.49-10.76-5.74c-1.75-1.16-3.59-2.2-5.39-3.29c-0.17,0.11-0.33,0.15-0.4,0.26
		c-5.42,8.03-11.45,15.61-17.32,23.31c-3.25,4.27-6.33,8.66-8.93,13.38c-4.11,7.47-5.39,15.46-4.16,23.79
		c2.04,13.83,5.87,27.15,12.53,39.53c3.37,6.26,7.38,12.11,12.14,17.42c2.48,2.76,5.25,5.21,8.58,6.91
		c4.04,2.06,7.02,5.07,9.48,8.92c4.88,7.63,10.12,15.02,15.22,22.51c0.26,0.38,0.51,0.78,0.86,1.34c-15.11,0-30.03,0-45.05,0
		c-3.67-9-6.7-18.29-10.82-27.17c-2.07,2.16-4.05,4.24-6.04,6.31c-0.12-0.05-0.23-0.11-0.35-0.16c1.02-2.76,0.81-5.58,0.69-8.66
		c-2.56,3.81-4.98,7.43-7.41,11.04c-0.75-14.05-4.1-27.48-8.49-40.66c-4.4-13.24-10.25-25.79-18.6-37.44
		c0.76,4.57-0.47,8.78-0.53,13.22c-2.96-2.78-10.87-17.75-13.75-25.86c1.26-0.52,2.52-1.08,3.8-1.57
		c6.97-2.66,13.32-6.35,18.79-11.44c2.21-2.05,4.27-4.27,6.25-6.54c1.77-2.01,3.35-4.19,5.01-6.3c0.11-0.14,0.18-0.3,0.11-0.63
		c-0.67,0.49-1.36,0.96-2.01,1.48c-8.65,6.93-18.12,12.52-28.04,17.4c-7.67,3.78-14.97,8.17-21.84,13.27
		c-0.76,0.56-1.49,1.16-2.4,1.86c4.19-9.59,10.95-16.93,18.11-24.03c-0.97,0.48-1.95,0.94-2.9,1.46c-4.21,2.31-8.28,4.84-11.93,7.98
		c-6.47,5.57-10.68,12.58-13.22,20.67c-1.77,5.65-2.7,11.47-3.4,17.32c-0.76,6.34-1.15,12.7-0.9,19.09
		c0.29,7.54,1.13,14.99,3.39,22.25c0.53,1.71,1.41,3,2.93,3.9c0.95,0.56,1.85,1.2,2.79,1.77c2.15,1.3,3.73,3.1,4.99,5.26
		c4.17,7.16,8.38,14.31,12.58,21.45c0.89,1.52,1.82,3.02,2.87,4.76c-15.02,0-29.83,0-44.89,0c-2.97-9.84-5.99-19.82-9.04-29.93
		c-1.32,1.15-2.45,2.28-3.72,3.23c-1.29,0.97-2.71,1.77-4.29,2.78c0.46-1.2,0.95-2.19,1.21-3.23c0.26-1.06,0.34-2.18,0.4-3.27
		c0.06-1.13,0.01-2.26,0.01-3.65c-3.93,4.34-8.66,7.22-13.97,9.53c0.16-0.38,0.28-0.66,0.4-0.94c0.69-1.58,1.39-3.15,2.07-4.74
		c2.82-6.61,5.43-13.31,7.72-20.12c3.03-9.01,5.27-18.22,6.82-27.59c1.91-11.56,2.7-23.22,2.7-34.94c0-0.14-0.03-0.28-0.07-0.58
		c-0.99,0.77-1.3,1.9-1.94,2.79c-0.71,0.97-1.38,1.96-2.08,2.93c-0.67,0.94-1.36,1.86-2.03,2.79c-0.66,0.92-1.31,1.84-2.06,2.89
		c-0.12-0.3-0.2-0.42-0.2-0.53c0.1-5.41,0.11-10.83,0.34-16.24c0.2-4.83,0.47-9.67,1.39-14.44c0.46-2.37,1.6-4.16,3.66-5.4
		c1.11-0.67,2.18-1.4,3.28-2.08c9.21-5.68,15.54-13.63,19.03-23.9c1.73-5.11,2.76-10.36,3.67-15.65
		c1.78-10.34,2.44-20.75,1.98-31.22c-0.26-6.08-1.06-12.11-2.26-18.13c-0.04,0.47-0.08,0.94-0.11,1.41
		c-0.22,3.58-0.35,7.18-0.69,10.75c-0.4,4.18-1.58,8.17-3.25,12.02c-0.45,1.05-0.89,2.1-1.38,3.26c-0.18-0.22-0.32-0.31-0.32-0.41
		c-0.14-4.58-1.25-9.01-2.11-13.47c-1.05-5.46-2.21-10.9-2.63-16.45c-0.67-8.78-0.74-17.53,1.33-26.17c0.23-0.97,0.53-1.92,0.83-3
		c-1.02,0.59-1.9,1.21-2.87,1.64c-6.31,2.83-12.88,3.54-19.67,2.22c-4.36-0.84-8.45-2.47-12.41-4.44c-0.27-0.13-0.48-0.37-0.99-0.76
		c6.64,0.01,12.83-0.68,18.76-2.91c1.69-0.63,3.34-1.37,5-2.06c-0.02-0.11-0.03-0.22-0.05-0.33c-2.31,0-4.63,0.15-6.93-0.02
		c-10.37-0.77-18.78-5.27-25.17-13.49c-0.7-0.9-1.29-1.9-1.87-2.89c-1.41-2.4-2.21-5.06-3.41-7.85c1.95,1.72,3.58,3.36,5.41,4.73
		c1.83,1.38,3.81,2.57,5.81,3.7c2.04,1.15,4.27,1.88,6.83,2.7c-0.38-0.42-0.49-0.6-0.65-0.71c-7.58-5.58-12.11-13.19-14.63-22.11
		c-2.65-9.36-2.61-18.74-0.01-28.1c0.92-3.3,2.47-6.33,4.1-9.32c0.09-0.16,0.23-0.29,0.54-0.68c0.25,1.5,0.13,2.77,0.23,4.02
		c0.1,1.24,0.17,2.49,0.32,3.72c0.15,1.28,0.35,2.57,0.57,3.84c0.22,1.27,0.48,2.54,0.77,3.8c0.29,1.26,0.6,2.51,0.96,3.76
		c0.34,1.2,0.75,2.37,1.14,3.56c0.39,1.21,0.79,2.41,1.19,3.62c0.09-0.02,0.19-0.03,0.28-0.05c-0.05-0.74-0.08-1.48-0.16-2.21
		c-0.53-4.92-0.66-9.84-0.26-14.78c0.75-9.26,3.32-17.96,7.85-26.08c3.4-6.1,7.7-11.44,13.23-15.74c2.23-1.73,4.64-3.15,7.29-4.26
		c-0.55,0.86-1.14,1.7-1.65,2.59c-2.61,4.52-4.34,9.38-5.63,14.42c-2.42,9.46-3.35,19.06-2.58,28.79
		c0.59,7.49,2.07,14.81,5.26,21.68c2.53,5.46,6.33,9.77,11.72,12.61c2.68,1.41,5.55,2.11,8.51,2.49c6.14,0.79,12.17,0.25,17.96-1.98
		c1.95-0.75,3.75-1.89,5.61-2.87c0.24-0.12,0.42-0.34,0.73-0.6c-7.92-2.95-12.49-9.02-16.04-16.41c0.41,0.29,0.66,0.44,0.89,0.64
		c2.93,2.53,6.4,4,10.03,5.15c4.58,1.46,9.28,1.86,14.06,1.61c5.05-0.26,9.95-1.41,14.91-2.28c0.79-0.14,1.58-0.3,2.57-0.48
		c-5.38-1.62-10.37-3.58-15.1-6.25c10.2-0.71,20.33-0.31,30.6,1.21c-0.29-0.71-0.82-0.82-1.24-1.03c-3.37-1.73-6.76-3.4-10.11-5.16
		c-1.82-0.96-3.58-2.04-5.36-3.07c-0.19-0.11-0.34-0.27-0.67-0.54c13.47-0.56,26.45,1.28,39.35,4.27
		c-4.58-3.63-8.93-7.47-13.03-11.59c0.06-0.09,0.11-0.19,0.17-0.28c0.47,0.19,0.94,0.37,1.41,0.56c9.8,3.88,19.56,7.84,29.67,10.87
		c7.25,2.18,14.5,4.34,21.56,7.09c6.42,2.51,12.77,5.22,19.16,7.8c10.83,4.36,22.03,7.48,33.49,9.67c8.36,1.6,16.79,2.42,25.3,2.27
		c11.5-0.2,22.83-1.69,33.85-5.1c3.77-1.16,7.38-2.68,10.84-4.56C311.95,204.27,311.98,204.16,312.08,204.01L312.08,204.01z"/>
	<path fill="#ff0000" d="M235.49,97.7c0.02-1.18-1.19-2.26-2.52-2.25c-1.2,0.01-2.3,1.21-2.29,2.49c0.01,1.2,1.23,2.41,2.42,2.4
		C234.27,100.34,235.48,99,235.49,97.7L235.49,97.7z M263.49,65.82c-0.02-1.22-1.13-2.26-2.35-2.22c-1.3,0.04-2.45,1.36-2.39,2.74
		c0.05,1.11,1.04,2.08,2.15,2.1C262.07,68.46,263.51,67,263.49,65.82L263.49,65.82z M284.9,49.86c0.01-1.28-1.18-2.41-2.55-2.41
		c-1.41,0-2.7,1.27-2.7,2.65c0.01,1.32,1.17,2.63,2.35,2.66C283.35,52.79,284.89,51.25,284.9,49.86L284.9,49.86z M312.09,35.3
		c-0.05-1.27-1.59-2.56-3.01-2.52c-1.48,0.05-2.75,1.35-2.72,2.79c0.03,1.32,1.55,2.82,2.81,2.78
		C310.59,38.31,312.14,36.68,312.09,35.3L312.09,35.3z M283.89,31.94c0.31,0.3,0.51,0.5,0.72,0.68c6.09,5.18,10.01,11.65,11.61,19.5
		c0.23,1.12,0.22,2.28,0.36,3.43c0.08,0.67-0.19,1.04-0.79,1.34c-4.86,2.45-9.23,5.64-13.41,9.11c-0.84,0.69-1.64,1.44-2.51,2.2
		c-0.59-1.42-1.08-2.76-1.69-4.05c-1.89-4.01-4.54-7.43-7.98-10.23c-1.72-1.41-3.68-2.45-5.8-3.1c-1.78-0.55-3.56-0.3-5.54,0.6
		c0.61,0.49,1.02,0.86,1.46,1.17c3.69,2.61,7.13,5.5,9.96,9.06c2.11,2.66,3.65,5.61,4.64,8.86c0.26,0.86,0.21,1.51-0.52,2.17
		c-4.27,3.87-8.05,8.2-11.6,12.74c-0.14,0.18-0.31,0.35-0.52,0.6c-0.16-0.19-0.3-0.31-0.36-0.46c-0.48-1.14-0.85-2.35-1.45-3.43
		c-1.98-3.59-4.3-6.93-7.67-9.38c-1.23-0.9-2.57-1.65-3.9-2.42c-1.17-0.67-2.4-0.59-3.58,0c-0.68,0.34-1.33,0.73-2.09,1.16
		c0.37,0.27,0.68,0.48,0.97,0.71c2.52,2.06,5.11,4.04,7.54,6.21c3,2.69,5.1,6.07,6.86,9.68c0.51,1.03,0.42,1.75-0.37,2.69
		c-2.5,2.96-4.86,6.05-7.27,9.08c-0.17,0.21-0.36,0.4-0.59,0.65c-0.79-1.63-1.49-3.19-2.3-4.68c-1.43-2.65-3.34-4.89-5.76-6.71
		c-1.65-1.24-3.54-1.65-5.51-1.82c-0.27-0.02-0.54,0.1-0.89,0.16c0.16,0.7,0.72,0.94,1.13,1.29c3.63,3.15,6.62,6.79,8.54,11.23
		c0.42,0.96,0.67,2,1.05,2.98c0.34,0.88,0.1,1.55-0.49,2.22c-1.59,1.79-3.11,3.65-4.74,5.4c-3.47,3.71-7,7.37-10.98,10.56
		c-0.66,0.53-1.28,1.12-2.11,1.84c-0.04-0.47-0.1-0.72-0.07-0.97c0.63-6.95-1.89-12.66-6.94-17.33c-0.57-0.52-1.39-0.8-2.14-1.07
		c-0.93-0.34-1.91-0.55-3.08-0.88c0.6-0.8,1.04-1.47,1.55-2.07c1.32-1.52,2.67-3.01,4.02-4.51c6.46-7.2,11.76-15.24,17.01-23.32
		c3.08-4.74,6.01-9.59,9.27-14.2c4.8-6.79,10.33-12.97,16.74-18.32c4.24-3.53,8.72-6.79,13.64-9.3c7.72-3.95,15.56-7.67,24.11-9.55
		c3.83-0.84,7.69-1.61,11.53-2.43c0.81-0.17,1.36,0.08,1.87,0.7c2.34,2.86,3.88,6.12,5.01,9.63c1.87,5.81,1.57,11.63,0.23,17.46
		c-0.63,2.71-0.11,2.13-2.73,2.71c-5.52,1.22-11,2.57-16.31,4.58c-0.18,0.06-0.36,0.09-0.61,0.15c-0.02-0.23-0.07-0.41-0.06-0.59
		c0.57-9.09-3.05-16.15-10.31-21.5C288.72,30.5,286.45,30.47,283.89,31.94L283.89,31.94z"/>
	<path fill="#ff0000" d="M155.66,95.14c0.87-3.2,0.85-6.32-0.2-9.39c-0.37-1.08-0.96-2.05-1.86-3.04c-0.39,0.79-0.16,1.44-0.1,2.07
		c0.16,1.81,0.41,3.62,0.44,5.43c0.02,1.62-0.23,3.24-0.87,4.74c-16.27-0.08-38.07-8.9-50.55-26.44c0.58-0.14,0.89,0.27,1.23,0.5
		c5.96,4.04,12.39,7.04,19.34,8.95c11.19,3.08,22.37,2.73,33.53-0.13c8.97-2.3,17.15-6.28,24.65-11.69c1.11-0.8,1.16-0.84,2.08,0.29
		c2.87,3.51,4.64,7.49,4.76,12.07c0.09,3.28-0.38,6.49-1.7,9.55c-0.49,1.13-1.27,1.83-2.42,2.28c-6.6,2.58-13.42,4.28-20.49,4.78
		C160.95,95.29,158.36,95.14,155.66,95.14L155.66,95.14z"/>
	<path fill="#ff0000" d="M406.76,47.31c-0.71,2.21-1.32,4.17-1.98,6.12c-1.18,3.48-2.9,6.65-5.27,9.48
		c-3.29,3.95-7.59,6.21-12.45,7.55c-0.6,0.16-1.18,0.36-1.73,0.53c-3.53-3-7.05-5.99-10.63-9.03c2.28-0.76,4.21-2.15,6.06-3.63
		c4.75-3.79,6.85-8.75,6.03-14.81c-0.23-1.7-0.74-3.36-1.13-5.04c-0.34-1.47-1.24-2.33-2.96-2.5c-0.08,0.67-0.22,1.35-0.25,2.03
		c-0.12,2.3-0.12,4.6-0.34,6.89c-0.48,4.98-2.78,8.9-7.1,11.54c-1.34,0.82-2.74,1.55-4.11,2.34c-0.55,0.31-1.05,0.29-1.63,0.02
		c-3.25-1.52-6.52-3-9.78-4.5c-0.12-0.06-0.21-0.18-0.41-0.35c0.31-0.18,0.56-0.37,0.84-0.49c1.42-0.58,2.43-1.66,3.48-2.71
		c3.42-3.43,5.58-7.5,6.39-12.28c0.61-3.61,0.67-7.24,0.37-10.88c-0.04-0.42-0.07-0.84-0.13-1.49c0.62,0.18,1.1,0.29,1.57,0.46
		c6.46,2.33,12.63,5.29,18.44,8.95c4.05,2.55,8.01,5.25,11.94,7.98C403.68,44.65,405.21,46.05,406.76,47.31L406.76,47.31z"/>
	<path fill="#ff0000" d="M338.82,49.24c0.23-0.43,0.39-0.76,0.59-1.06c1.6-2.45,3.16-4.92,4.81-7.32c0.81-1.18,1.73-2.31,2.74-3.32
		c0.89-0.9,1.96-1.61,3.04-2.48c-4.07-3.57-7.4-7.83-9.18-13.12c-1.14,0.13-1.38,0.83-1.44,1.73c-0.21,3.28,0.69,6.25,2.42,9.01
		c0.5,0.8,1.28,1.64,1.29,2.48c0.01,0.77-0.8,1.57-1.29,2.34c-2.17,3.41-3.76,7.11-5.35,10.81c-0.09,0.21-0.19,0.43-0.3,0.69
		c-3.56-0.11-7.08-0.21-10.7-0.32c4.38-10.56,2.41-20.44-3.5-29.94c0.42-0.08,0.69-0.17,0.97-0.18c5.12-0.26,10.25-0.54,15.37-0.14
		c8.68,0.67,17.21,2.11,25.39,5.21c1.8,0.68,1.64,0.46,1.64,2.33c0,4.17-0.11,8.34-1.12,12.42c-1.36,5.47-4.28,9.77-9.23,12.61
		c-1.22,0.7-2.37,0.98-3.8,0.56c-3.78-1.09-7.67-1.68-11.57-2.12C339.37,49.41,339.15,49.32,338.82,49.24L338.82,49.24z"/>
	<path fill="#ff0000" d="M289.11,68.64c0.68,0.76,1.26,1.39,1.82,2.04c0.35,0.39,0.73,0.78,1,1.22c2,3.33,3.84,6.75,4.72,10.58
		c0.1,0.42,0.18,0.85,0.25,1.27c0.15,0.92-0.1,1.62-0.87,2.26c-3.34,2.74-6.32,5.87-9.16,9.11c-0.66,0.76-1.26,1.55-2.01,2.48
		c-0.24-0.45-0.45-0.8-0.61-1.16c-1-2.26-2.39-4.26-4.18-5.96c-1.21-1.14-3.11-1.35-4.64-0.45c0.85,1.08,1.73,2.13,2.53,3.22
		c0.79,1.08,1.53,2.21,2.28,3.32c0.77,1.15,1.53,2.3,2.3,3.46c-2.83,4.46-5.62,8.85-8.48,13.34c-0.25-0.2-0.49-0.39-0.73-0.59
		c-1.12-0.97-2.15-2.08-3.39-2.86c-0.94-0.59-2.13-0.79-3.23-1.07c-0.34-0.08-0.76,0.17-1.51,0.35c0.64,0.56,1.01,0.89,1.38,1.21
		c1.76,1.55,3.52,3.1,5.29,4.64c0.54,0.47,0.68,0.91,0.34,1.62c-1.85,3.94-3.69,7.89-5.44,11.88c-2.52,5.74-4.85,11.57-7.8,17.12
		c-0.44,0.82-0.79,1.69-1.42,2.48c-0.04-0.16-0.12-0.32-0.12-0.48c0.11-7.39,0.69-14.74,1.95-22.03c1.31-7.58,3.49-14.9,6.29-22.06
		c2.47-6.32,5.64-12.26,9.4-17.9c1.91-2.87,3.83-5.75,5.99-8.42c2.22-2.75,4.74-5.27,7.13-7.88
		C288.45,69.1,288.79,68.9,289.11,68.64L289.11,68.64z"/>
	<path fill="#ff0000" d="M195.5,118.14c0.56,0.88,1.12,1.6,1.52,2.4c1.66,3.31,2.18,6.83,1.73,10.48c-0.19,1.51-0.55,3.01-0.89,4.5
		c-0.26,1.11-0.91,1.86-2.12,2.05c-3.12,0.51-6.21,1.17-9.34,1.55c-3.95,0.48-7.93,0.56-11.91,0.16c-0.23-0.02-0.45-0.06-0.8-0.12
		c0.29-0.5,0.52-0.9,0.76-1.3c1.39-2.29,2.18-4.78,2.48-7.44c0.05-0.43,0.05-0.86,0.04-1.29c-0.05-1.66-0.16-1.76-1.85-1.72
		c-2.03,0.05-2.05,0.05-2.11,2.07c-0.06,2.07-0.25,4.11-0.92,6.08c-0.11,0.32-0.2,0.64-0.33,0.95c-1,2.35-1.2,2.49-3.73,2.13
		c-14.53-2.1-26.99-8.31-37.12-18.99c-1.67-1.76-3.17-3.7-4.58-5.76c0.31,0.16,0.63,0.3,0.91,0.51c5.47,3.94,11.58,6.5,18.01,8.38
		c5.32,1.55,10.76,2.35,16.29,2.52c6.25,0.19,12.43-0.47,18.51-1.98c4.66-1.15,9.21-2.61,13.62-4.49
		C194.21,118.61,194.75,118.43,195.5,118.14L195.5,118.14z"/>
	<path fill="#ff0000" d="M320.76,70.81c0.16-1.07,0.39-2.14,0.48-3.22c0.22-2.48-0.18-4.87-1.2-7.15c-0.67-1.5-1.54-1.88-3.09-1.28
		c-0.39,0.15-0.74,0.42-1.2,0.69c0.18,0.8,0.35,1.59,0.54,2.37c0.72,2.84,1.25,5.69,1.12,8.66c-0.05,1.06-0.39,1.63-1.37,2.05
		c-4.78,2.02-9.25,4.63-13.47,7.65c-0.85,0.61-1.65,1.29-2.61,2.05c-0.03-0.43-0.07-0.73-0.07-1.03c0.03-4.21-1.65-7.72-4.45-10.75
		c-0.9-0.98-2.11-1.47-3.47-1.52c-0.83-0.03-1.63-0.17-2.13-1.06c0.24-0.75,0.92-1.14,1.49-1.62c6.67-5.58,14.53-8.59,22.88-10.52
		c7.4-1.71,14.88-2.05,22.43-1.51c1.62,0.12,1.73,0.1,1.92,1.68c0.29,2.52,0.43,5.05,0.62,7.58c0.02,0.28-0.02,0.57-0.07,0.86
		c-0.26,1.74-0.28,1.76-2,2.02c-5.27,0.78-10.41,2.11-15.44,3.88c-0.27,0.09-0.54,0.16-0.82,0.24
		C320.84,70.88,320.8,70.84,320.76,70.81L320.76,70.81z"/>
	<path fill="#ff0000" d="M387.82,75.14c1.02-0.29,1.97-0.57,2.92-0.84c7.17-2.02,12.14-6.62,15.57-13.1
		c1.63-3.06,2.75-6.31,3.94-9.55c0.08-0.21,0.16-0.42,0.3-0.74c5.58,4.91,10.13,10.55,14.72,16.34c-0.29,0.65-0.59,1.35-0.92,2.02
		c-3.67,7.5-9.42,12.69-17.29,15.47c-4.08,1.44-8.28,1.26-12.5,0.74c-0.77-0.09-0.99-0.63-1.28-1.18c-0.96-1.82-1.88-3.66-2.92-5.43
		C389.62,77.6,388.7,76.43,387.82,75.14L387.82,75.14z"/>
	<path fill="#ff0000" d="M232.99,55.57c-0.02-0.31-0.08-0.46-0.03-0.57c1.1-2.65,0.78-5.37,0.39-8.07
		c-0.54-3.68-1.58-7.21-3.8-10.27c-0.86-1.2-1.87-2.3-2.85-3.41c-0.86-0.97-2.15-0.95-3.28-1.3c-0.49-0.15-0.99-0.24-1.45-0.36
		c-0.16-0.95,0.43-1.37,0.93-1.77c2.46-1.98,4.88-4.02,7.43-5.88c3.06-2.23,6.23-4.29,9.35-6.43c0.2-0.14,0.4-0.26,0.61-0.38
		c1.21-0.71,1.42-0.69,2.22,0.46c4.25,6.08,6.37,12.81,6.2,20.23c-0.04,1.67-0.28,3.34-0.37,5.01c-0.04,0.8-0.42,1.3-1.04,1.77
		c-3.87,2.9-7.72,5.82-11.57,8.75C234.83,54.03,233.97,54.77,232.99,55.57L232.99,55.57z"/>
	<path fill="#ff0000" d="M220.14,32.05c1.44,1.13,2.56,2.35,3.5,3.74c2.97,4.39,4.93,9.18,5.59,14.47c0.32,2.54,0.27,5.07-0.21,7.58
		c-0.09,0.47-0.46,0.95-0.83,1.28c-3.71,3.33-7.43,6.64-11.18,9.93c-1.11,0.98-2.28,1.88-3.62,2.71c0.09-0.33,0.21-0.65,0.27-0.98
		c0.29-1.45,0.79-2.9,0.8-4.34c0.02-4.02-0.77-7.9-2.67-11.51c-1.06-2.02-2.55-3.71-4.11-5.33c-0.33-0.34-0.89-0.53-1.38-0.64
		c-1.5-0.33-1.81-0.42-2.99-1.26c0.4-0.46,0.76-0.96,1.2-1.37c2.97-2.78,5.96-5.55,8.95-8.32c1.69-1.56,3.41-3.09,5.12-4.63
		C219.05,32.96,219.53,32.57,220.14,32.05L220.14,32.05z"/>
	<path fill="#ff0000" d="M191.02,87.05c3.56-7.76,2.25-17.24-5.67-23.85c2.8-2.33,5.6-4.61,8.33-6.96c2.7-2.33,5.34-4.75,8.01-7.14
		c1.44,1.14,2.39,2.46,3.29,3.81c2.42,3.62,4.25,7.51,4.9,11.84c0.45,2.94,0.55,5.89-0.33,8.82c-0.35,1.17-0.94,2.08-1.92,2.75
		c-3.51,2.41-7,4.85-10.56,7.18C195.12,84.77,193.04,85.87,191.02,87.05L191.02,87.05z"/>
	<path fill="#ff0000" d="M201.23,136.09c2.9-7.02,2.34-13.48-2.99-19.35c2.86-2.03,5.81-3.96,8.59-6.12
		c2.75-2.14,5.32-4.51,8.08-6.88c0.53,0.51,1.07,0.97,1.54,1.49c2.86,3.14,5.25,6.59,6.78,10.57c1.14,2.95,1.44,6.03,1.2,9.18
		c-0.05,0.61-0.31,0.97-0.78,1.25c-6.33,3.81-12.83,7.26-20,9.24c-0.78,0.22-1.56,0.45-2.34,0.67
		C201.28,136.15,201.23,136.09,201.23,136.09L201.23,136.09z"/>
	<path fill="#ff0000" d="M364.39,62.44c-1.13,2.05-2.18,3.96-3.2,5.81c-3.36-0.52-6.59-1.15-9.86-1.49
		c-3.23-0.33-6.48-0.37-9.89-0.54c1.26-3.52,1.33-7.1,0.7-10.87C350.18,56,357.48,58.49,364.39,62.44L364.39,62.44z"/>
	<path fill="#ff0000" d="M384.57,80.75c-6.47-5.38-13.81-9.06-21.63-11.85c1.04-1.88,2.04-3.7,3.05-5.54
		C371.95,65.43,383.67,76.3,384.57,80.75L384.57,80.75z"/>
	<path fill="#ff0000" d="M93.91,365.02c3.11-0.35,5.82-1.75,8.48-3.23c3.34-1.86,5.48-4.72,6.6-8.35c0.68-2.19,0.48-4.37-0.26-6.49
		c-0.59-1.68-1.81-2.67-3.63-2.83c-1.58-0.14-2.63,0.35-3.23,1.83c-0.45,1.08-0.64,2.27-0.94,3.42c-1.94-0.36-3.68-2.47-3.82-4.69
		c-0.16-2.55,1.37-4.91,3.86-5.8c3.3-1.17,6.33-0.65,8.98,1.67c1.46,1.28,2.55,2.86,3.19,4.71c2.73,7.92-1.8,15.1-6.52,17.69
		C102.36,365.29,98.22,366.1,93.91,365.02L93.91,365.02z"/>
</g>
<g>
</g>
<g>
</g>
<g>
</g>
<g>
</g>
<g>
</g>
<g>
</g>
</svg>
